<?xml version="1.0" encoding="UTF-8"?><svg id="Camada_1" xmlns="http://www.w3.org/2000/svg" viewBox="0 0 369.07 120.71"><defs><style>.cls-1{fill:#fff;}.cls-2{fill:#ee734b;}.cls-3{fill:#1b8992;}.cls-4{fill:#3b7564;}</style></defs><polygon class="cls-4" points="306.5 51.83 189.74 51.88 189.74 17.35 188.1 17.35 188.1 51.88 67.17 51.92 67.17 51.94 66.35 51.94 66.35 69.8 67.99 69.8 67.99 53.56 188.1 53.51 188.1 92.79 189.74 92.79 189.74 53.51 304.86 53.47 304.86 69.8 306.49 69.8 306.49 53.47 306.5 53.47 306.5 51.83"/><rect class="cls-2" x="112.84" width="152.16" height="34.99" rx="5" ry="5"/><g><path class="cls-1" d="M123.17,9.19c.46,.23,.81,.56,1.05,1,.24,.43,.36,.94,.36,1.52s-.12,1.09-.36,1.52c-.24,.43-.59,.76-1.05,.98-.46,.23-.99,.34-1.62,.34h-1.78v-5.71h1.78c.62,0,1.16,.12,1.62,.35Zm.07,4.16c.39-.39,.58-.94,.58-1.64s-.2-1.26-.59-1.66c-.39-.4-.95-.6-1.68-.6h-1.03v4.49h1.03c.74,0,1.3-.2,1.69-.59Z"/><path class="cls-1" d="M126.32,8.84v5.71h-.75v-5.71h.75Z"/><path class="cls-1" d="M130.59,14.55l-1.36-2.33h-.9v2.33h-.75v-5.71h1.84c.43,0,.8,.07,1.09,.22s.52,.35,.67,.6c.15,.25,.22,.54,.22,.86,0,.39-.11,.74-.34,1.04s-.57,.5-1.02,.6l1.43,2.39h-.89Zm-2.26-2.93h1.1c.4,0,.71-.1,.91-.3,.2-.2,.3-.47,.3-.8s-.1-.6-.3-.79-.5-.28-.91-.28h-1.1v2.16Z"/><path class="cls-1" d="M133.31,9.44v1.91h2.08v.61h-2.08v1.97h2.33v.61h-3.07v-5.72h3.07v.61h-2.33Z"/><path class="cls-1" d="M140.28,8.84v.61h-1.56v5.1h-.75v-5.1h-1.56v-.61h3.87Z"/><path class="cls-1" d="M142.33,14.23c-.44-.25-.78-.59-1.04-1.04-.25-.44-.38-.95-.38-1.5s.13-1.06,.38-1.5,.6-.79,1.04-1.04c.44-.25,.92-.37,1.45-.37s1.02,.12,1.46,.37c.44,.25,.78,.59,1.03,1.04,.25,.44,.38,.94,.38,1.51s-.13,1.06-.38,1.51c-.25,.44-.6,.79-1.03,1.04-.44,.25-.92,.37-1.46,.37s-1.01-.12-1.45-.37Zm2.53-.55c.32-.19,.57-.45,.75-.79,.18-.34,.27-.74,.27-1.2s-.09-.86-.27-1.2c-.18-.34-.43-.6-.75-.79-.32-.19-.68-.28-1.08-.28s-.76,.09-1.08,.28c-.32,.19-.57,.45-.75,.79-.18,.34-.27,.74-.27,1.2s.09,.85,.27,1.2c.18,.34,.43,.61,.75,.79s.68,.28,1.08,.28,.76-.09,1.08-.28Z"/><path class="cls-1" d="M150.64,14.55l-1.36-2.33h-.9v2.33h-.75v-5.71h1.84c.43,0,.8,.07,1.09,.22s.52,.35,.67,.6c.15,.25,.22,.54,.22,.86,0,.39-.11,.74-.34,1.04s-.57,.5-1.02,.6l1.43,2.39h-.89Zm-2.26-2.93h1.1c.4,0,.71-.1,.91-.3,.2-.2,.3-.47,.3-.8s-.1-.6-.3-.79-.5-.28-.91-.28h-1.1v2.16Z"/><path class="cls-1" d="M153.36,8.84v5.71h-.75v-5.71h.75Z"/><path class="cls-1" d="M158,13.28h-2.49l-.46,1.27h-.79l2.06-5.68h.86l2.06,5.68h-.79l-.46-1.27Zm-.21-.61l-1.03-2.88-1.03,2.88h2.06Z"/><path class="cls-1" d="M165.73,9.19c.46,.23,.81,.56,1.05,1,.24,.43,.36,.94,.36,1.52s-.12,1.09-.36,1.52c-.24,.43-.59,.76-1.05,.98-.46,.23-.99,.34-1.62,.34h-1.78v-5.71h1.78c.62,0,1.16,.12,1.62,.35Zm.07,4.16c.39-.39,.58-.94,.58-1.64s-.2-1.26-.59-1.66c-.39-.4-.95-.6-1.68-.6h-1.03v4.49h1.03c.74,0,1.3-.2,1.69-.59Z"/><path class="cls-1" d="M168.87,9.44v1.91h2.08v.61h-2.08v1.97h2.33v.61h-3.07v-5.72h3.07v.61h-2.33Z"/><path class="cls-1" d="M177.88,13.28h-2.49l-.46,1.27h-.79l2.06-5.68h.86l2.05,5.68h-.79l-.46-1.27Zm-.21-.61l-1.03-2.88-1.03,2.88h2.06Zm-.23-5.07l-1.74,.93v-.56l1.74-1.02v.65Z"/><path class="cls-1" d="M183.03,14.55l-1.36-2.33h-.9v2.33h-.75v-5.71h1.84c.43,0,.79,.07,1.09,.22s.52,.35,.67,.6c.15,.25,.22,.54,.22,.86,0,.39-.11,.74-.34,1.04s-.57,.5-1.02,.6l1.43,2.39h-.89Zm-2.26-2.93h1.1c.4,0,.71-.1,.91-.3,.2-.2,.3-.47,.3-.8s-.1-.6-.3-.79c-.2-.19-.5-.28-.91-.28h-1.1v2.16Z"/><path class="cls-1" d="M185.75,9.44v1.91h2.08v.61h-2.08v1.97h2.33v.61h-3.07v-5.72h3.07v.61h-2.33Z"/><path class="cls-1" d="M192.58,13.28h-2.49l-.46,1.27h-.79l2.06-5.68h.86l2.05,5.68h-.79l-.46-1.27Zm-.21-.61l-1.03-2.88-1.03,2.88h2.06Z"/><path class="cls-1" d="M195.53,14.4c-.3-.13-.53-.32-.7-.56-.17-.24-.26-.51-.26-.82h.79c.03,.27,.14,.49,.33,.68,.19,.18,.48,.27,.85,.27s.63-.09,.84-.27c.2-.18,.31-.41,.31-.68,0-.22-.06-.4-.18-.53-.12-.14-.27-.24-.45-.31-.18-.07-.42-.15-.73-.23-.38-.1-.68-.2-.91-.29-.23-.1-.42-.25-.58-.46s-.24-.49-.24-.85c0-.31,.08-.59,.24-.83s.38-.43,.67-.56c.29-.13,.62-.2,.99-.2,.54,0,.97,.13,1.31,.4,.34,.27,.53,.62,.58,1.06h-.82c-.03-.22-.14-.41-.34-.58s-.47-.25-.8-.25c-.31,0-.56,.08-.76,.24-.2,.16-.29,.39-.29,.68,0,.21,.06,.38,.18,.51,.12,.13,.26,.23,.43,.3s.41,.15,.72,.23c.38,.1,.68,.21,.91,.31s.43,.26,.59,.47c.16,.21,.25,.5,.25,.86,0,.28-.07,.54-.22,.79-.15,.25-.37,.45-.66,.6-.29,.15-.63,.23-1.02,.23s-.71-.07-1.01-.2Z"/><path class="cls-1" d="M202.47,9.44v1.91h2.08v.61h-2.08v1.97h2.33v.61h-3.07v-5.72h3.07v.61h-2.33Z"/><path class="cls-1" d="M206.72,14.4c-.3-.13-.53-.32-.7-.56-.17-.24-.26-.51-.26-.82h.79c.03,.27,.14,.49,.33,.68,.19,.18,.48,.27,.85,.27s.63-.09,.84-.27c.2-.18,.31-.41,.31-.68,0-.22-.06-.4-.18-.53-.12-.14-.27-.24-.45-.31-.18-.07-.42-.15-.73-.23-.38-.1-.68-.2-.91-.29-.23-.1-.42-.25-.58-.46s-.24-.49-.24-.85c0-.31,.08-.59,.24-.83s.38-.43,.67-.56c.29-.13,.62-.2,.99-.2,.54,0,.97,.13,1.31,.4,.34,.27,.53,.62,.58,1.06h-.82c-.03-.22-.14-.41-.34-.58s-.47-.25-.8-.25c-.31,0-.56,.08-.76,.24-.2,.16-.29,.39-.29,.68,0,.21,.06,.38,.18,.51,.12,.13,.26,.23,.43,.3s.41,.15,.72,.23c.38,.1,.68,.21,.91,.31s.43,.26,.59,.47c.16,.21,.25,.5,.25,.86,0,.28-.07,.54-.22,.79-.15,.25-.37,.45-.66,.6-.29,.15-.63,.23-1.02,.23s-.71-.07-1.01-.2Z"/><path class="cls-1" d="M214.24,8.84v.61h-1.56v5.1h-.75v-5.1h-1.56v-.61h3.87Z"/><path class="cls-1" d="M218.17,14.55l-1.36-2.33h-.9v2.33h-.75v-5.71h1.84c.43,0,.79,.07,1.09,.22s.52,.35,.67,.6c.15,.25,.22,.54,.22,.86,0,.39-.11,.74-.34,1.04s-.57,.5-1.02,.6l1.43,2.39h-.89Zm-2.26-2.93h1.1c.4,0,.71-.1,.91-.3,.2-.2,.3-.47,.3-.8s-.1-.6-.3-.79c-.2-.19-.5-.28-.91-.28h-1.1v2.16Z"/><path class="cls-1" d="M223.52,13.28h-2.49l-.46,1.27h-.79l2.06-5.68h.86l2.05,5.68h-.79l-.46-1.27Zm-.21-.61l-1.03-2.88-1.03,2.88h2.06Z"/><path class="cls-1" d="M229.17,8.84v.61h-1.56v5.1h-.75v-5.1h-1.56v-.61h3.87Z"/><path class="cls-1" d="M230.84,9.44v1.91h2.08v.61h-2.08v1.97h2.33v.61h-3.07v-5.72h3.07v.61h-2.33Zm1.51-1.84l-1.74,.93v-.56l1.74-1.02v.65Z"/><path class="cls-1" d="M238.62,10.49c-.16-.33-.39-.59-.69-.77-.3-.18-.65-.27-1.05-.27s-.76,.09-1.08,.27-.57,.44-.75,.79c-.18,.34-.27,.74-.27,1.18s.09,.84,.27,1.18c.18,.34,.43,.6,.75,.78,.32,.18,.68,.27,1.08,.27,.56,0,1.02-.17,1.38-.5s.57-.78,.63-1.35h-2.28v-.61h3.07v.57c-.04,.47-.19,.9-.44,1.29-.25,.39-.58,.7-.99,.93s-.87,.34-1.37,.34c-.53,0-1.01-.12-1.45-.37-.44-.25-.78-.59-1.04-1.04s-.38-.94-.38-1.5,.13-1.06,.38-1.5,.6-.79,1.04-1.04c.44-.25,.92-.37,1.45-.37,.61,0,1.14,.15,1.61,.45s.81,.72,1.02,1.27h-.89Z"/><path class="cls-1" d="M241.41,8.84v5.71h-.75v-5.71h.75Z"/><path class="cls-1" d="M242.78,10.19c.25-.44,.59-.79,1.03-1.04,.43-.25,.92-.38,1.45-.38,.62,0,1.17,.15,1.63,.45,.46,.3,.8,.73,1.02,1.28h-.89c-.16-.34-.39-.61-.68-.79-.3-.19-.65-.28-1.07-.28s-.76,.09-1.07,.28c-.32,.19-.56,.45-.75,.79-.18,.34-.27,.74-.27,1.2s.09,.85,.27,1.19c.18,.34,.43,.6,.75,.79,.32,.19,.67,.28,1.07,.28s.77-.09,1.07-.27c.3-.18,.53-.45,.68-.79h.89c-.21,.55-.55,.97-1.02,1.27-.46,.3-1.01,.45-1.63,.45-.53,0-1.01-.12-1.45-.37-.43-.25-.78-.59-1.03-1.04s-.38-.94-.38-1.5,.12-1.06,.38-1.5Z"/><path class="cls-1" d="M252.38,13.28h-2.49l-.46,1.27h-.79l2.06-5.68h.86l2.05,5.68h-.79l-.46-1.27Zm-.21-.61l-1.03-2.88-1.03,2.88h2.06Z"/><path class="cls-1" d="M255.32,14.4c-.3-.13-.53-.32-.7-.56-.17-.24-.26-.51-.26-.82h.79c.03,.27,.14,.49,.33,.68,.19,.18,.48,.27,.85,.27s.63-.09,.84-.27c.2-.18,.31-.41,.31-.68,0-.22-.06-.4-.18-.53-.12-.14-.27-.24-.45-.31-.18-.07-.42-.15-.73-.23-.38-.1-.68-.2-.91-.29-.23-.1-.42-.25-.58-.46s-.24-.49-.24-.85c0-.31,.08-.59,.24-.83s.38-.43,.67-.56c.29-.13,.62-.2,.99-.2,.54,0,.97,.13,1.31,.4,.34,.27,.53,.62,.58,1.06h-.82c-.03-.22-.14-.41-.34-.58s-.47-.25-.8-.25c-.31,0-.56,.08-.76,.24-.2,.16-.29,.39-.29,.68,0,.21,.06,.38,.18,.51,.12,.13,.26,.23,.43,.3s.41,.15,.72,.23c.38,.1,.68,.21,.91,.31s.43,.26,.59,.47c.16,.21,.25,.5,.25,.86,0,.28-.07,.54-.22,.79-.15,.25-.37,.45-.66,.6-.29,.15-.63,.23-1.02,.23s-.71-.07-1.01-.2Z"/><path class="cls-1" d="M147.6,19.01c.46,.23,.81,.56,1.05,1,.24,.43,.36,.94,.36,1.52s-.12,1.09-.36,1.52c-.24,.43-.59,.76-1.05,.98-.46,.23-.99,.34-1.62,.34h-1.78v-5.71h1.78c.62,0,1.16,.12,1.62,.35Zm.07,4.16c.39-.39,.58-.94,.58-1.64s-.2-1.26-.59-1.66c-.39-.4-.95-.6-1.68-.6h-1.03v4.49h1.03c.74,0,1.3-.2,1.69-.59Z"/><path class="cls-1" d="M153.37,23.11h-2.49l-.46,1.27h-.79l2.06-5.68h.86l2.06,5.68h-.79l-.46-1.27Zm-.21-.61l-1.03-2.88-1.03,2.88h2.06Z"/><path class="cls-1" d="M161.08,23.11h-2.49l-.46,1.27h-.79l2.06-5.68h.86l2.06,5.68h-.79l-.46-1.27Zm-.21-.61l-1.03-2.88-1.03,2.88h2.06Z"/><path class="cls-1" d="M166.74,18.67v.61h-1.56v5.1h-.75v-5.1h-1.56v-.61h3.87Z"/><path class="cls-1" d="M168.4,19.27v1.91h2.08v.61h-2.08v1.97h2.33v.61h-3.07v-5.72h3.07v.61h-2.33Z"/><path class="cls-1" d="M176.34,24.37h-.75l-3-4.54v4.54h-.75v-5.72h.75l3,4.54v-4.54h.75v5.72Z"/><path class="cls-1" d="M181.25,23.5c.3-.18,.53-.45,.68-.79h.89c-.2,.5-.5,.9-.91,1.2-.41,.29-.89,.46-1.45,.51v.43c.32,0,.58,.06,.77,.2,.19,.14,.29,.34,.29,.61s-.09,.46-.28,.61-.43,.23-.72,.23h-.94v-.48h.79c.18,0,.31-.03,.4-.08,.08-.05,.13-.15,.13-.28s-.04-.22-.13-.27c-.08-.05-.22-.08-.4-.08h-.41v-.89c-.5-.03-.95-.18-1.35-.43s-.72-.59-.95-1.02-.34-.91-.34-1.45,.12-1.06,.38-1.5,.59-.79,1.03-1.04c.43-.25,.92-.38,1.45-.38,.62,0,1.17,.15,1.63,.45,.46,.3,.8,.73,1.02,1.28h-.89c-.16-.34-.39-.61-.68-.79-.3-.19-.65-.28-1.07-.28s-.76,.09-1.07,.28c-.32,.19-.56,.45-.75,.79-.18,.34-.27,.74-.27,1.2s.09,.85,.27,1.19c.18,.34,.43,.6,.75,.79,.32,.19,.67,.28,1.07,.28s.77-.09,1.07-.27Z"/><path class="cls-1" d="M187.31,23.11h-2.49l-.46,1.27h-.79l2.06-5.68h.86l2.06,5.68h-.79l-.46-1.27Zm-2.17-5.53c.14-.15,.33-.22,.54-.22,.1,0,.19,.02,.27,.05,.07,.04,.16,.09,.27,.15,.08,.05,.14,.1,.21,.13s.12,.04,.2,.04c.09,0,.17-.03,.24-.09,.07-.06,.11-.15,.12-.26h.43c-.03,.27-.12,.48-.27,.63s-.33,.22-.55,.22c-.1,0-.2-.02-.27-.05s-.17-.09-.27-.16c-.09-.05-.16-.1-.21-.12-.05-.03-.11-.04-.18-.04-.09,0-.17,.03-.23,.09-.06,.06-.1,.15-.12,.27h-.43c.04-.28,.13-.49,.27-.64Zm1.96,4.92l-1.03-2.88-1.03,2.88h2.06Z"/><path class="cls-1" d="M190.59,24.06c-.44-.25-.78-.59-1.04-1.04-.25-.44-.38-.95-.38-1.5s.13-1.06,.38-1.5,.6-.79,1.04-1.04c.44-.25,.92-.37,1.45-.37s1.02,.12,1.46,.37c.44,.25,.78,.59,1.03,1.04,.25,.44,.38,.94,.38,1.51s-.13,1.06-.38,1.51c-.25,.44-.59,.79-1.03,1.04-.44,.25-.92,.37-1.46,.37s-1.01-.12-1.45-.37Zm2.53-.55c.32-.19,.57-.45,.75-.79,.18-.34,.27-.74,.27-1.2s-.09-.86-.27-1.2c-.18-.34-.43-.6-.75-.79-.32-.19-.68-.28-1.08-.28s-.76,.09-1.08,.28c-.32,.19-.57,.45-.75,.79-.18,.34-.27,.74-.27,1.2s.09,.85,.27,1.2c.18,.34,.43,.61,.75,.79s.68,.28,1.08,.28,.76-.09,1.08-.28Z"/><path class="cls-1" d="M201.41,21.52c-.33,.31-.82,.47-1.49,.47h-1.1v2.38h-.75v-5.71h1.84c.64,0,1.13,.16,1.47,.47s.5,.71,.5,1.2-.16,.87-.49,1.18Zm-.57-.41c.2-.18,.29-.44,.29-.77,0-.7-.4-1.06-1.21-1.06h-1.1v2.1h1.1c.41,0,.72-.09,.92-.27Z"/><path class="cls-1" d="M205.82,24.37l-1.36-2.33h-.9v2.33h-.75v-5.71h1.84c.43,0,.79,.07,1.09,.22s.52,.35,.67,.6c.15,.25,.22,.54,.22,.86,0,.39-.11,.74-.34,1.04s-.57,.5-1.02,.6l1.43,2.39h-.89Zm-2.26-2.93h1.1c.4,0,.71-.1,.91-.3,.2-.2,.3-.47,.3-.8s-.1-.6-.3-.79c-.2-.19-.5-.28-.91-.28h-1.1v2.16Z"/><path class="cls-1" d="M208.54,18.67v5.71h-.75v-5.71h.75Z"/><path class="cls-1" d="M215.6,18.71v5.67h-.75v-4.23l-1.88,4.23h-.52l-1.89-4.23v4.23h-.75v-5.67h.8l2.1,4.68,2.1-4.68h.79Z"/><path class="cls-1" d="M220.24,23.11h-2.49l-.46,1.27h-.79l2.06-5.68h.86l2.05,5.68h-.79l-.46-1.27Zm-.21-.61l-1.03-2.88-1.03,2.88h2.06Zm-.23-5.07l-1.74,.93v-.56l1.74-1.02v.65Z"/><path class="cls-1" d="M225.39,24.37l-1.36-2.33h-.9v2.33h-.75v-5.71h1.84c.43,0,.79,.07,1.09,.22s.52,.35,.67,.6c.15,.25,.22,.54,.22,.86,0,.39-.11,.74-.34,1.04s-.57,.5-1.02,.6l1.43,2.39h-.89Zm-2.26-2.93h1.1c.4,0,.71-.1,.91-.3,.2-.2,.3-.47,.3-.8s-.1-.6-.3-.79c-.2-.19-.5-.28-.91-.28h-1.1v2.16Z"/><path class="cls-1" d="M228.11,18.67v5.71h-.75v-5.71h.75Z"/><path class="cls-1" d="M232.75,23.11h-2.49l-.46,1.27h-.79l2.06-5.68h.86l2.05,5.68h-.79l-.46-1.27Zm-.21-.61l-1.03-2.88-1.03,2.88h2.06Z"/></g><rect class="cls-3" y="64.86" width="135.67" height="55.84" rx="5" ry="5"/><g><path class="cls-1" d="M8.96,76.36c-.16-.33-.39-.59-.69-.77-.3-.18-.65-.27-1.05-.27s-.76,.09-1.08,.27c-.32,.18-.57,.45-.75,.79-.18,.34-.27,.74-.27,1.18s.09,.84,.27,1.18c.18,.34,.43,.6,.75,.78,.32,.18,.68,.27,1.08,.27,.56,0,1.02-.17,1.38-.5s.57-.78,.63-1.35h-2.28v-.61h3.07v.57c-.04,.47-.19,.9-.44,1.29-.25,.39-.58,.7-.99,.92-.41,.23-.87,.34-1.37,.34-.53,0-1.01-.12-1.45-.37-.44-.25-.78-.59-1.04-1.04s-.38-.94-.38-1.5,.13-1.06,.38-1.5c.25-.44,.6-.79,1.04-1.04,.44-.25,.92-.37,1.45-.37,.61,0,1.14,.15,1.61,.45,.47,.3,.81,.72,1.02,1.27h-.89Z"/><path class="cls-1" d="M11.75,75.31v1.91h2.08v.61h-2.08v1.97h2.33v.61h-3.07v-5.72h3.07v.61h-2.33Z"/><path class="cls-1" d="M18.21,80.41l-1.36-2.33h-.9v2.33h-.75v-5.71h1.84c.43,0,.8,.07,1.09,.22s.52,.35,.67,.6c.15,.25,.22,.54,.22,.86,0,.39-.11,.74-.34,1.04-.23,.3-.57,.5-1.02,.6l1.43,2.39h-.89Zm-2.26-2.93h1.1c.4,0,.71-.1,.91-.3,.2-.2,.3-.47,.3-.8s-.1-.6-.3-.79-.5-.28-.91-.28h-1.1v2.16Z"/><path class="cls-1" d="M20.93,75.31v1.91h2.08v.61h-2.08v1.97h2.33v.61h-3.07v-5.72h3.07v.61h-2.33Zm.71-1.67l-1.14,.7v-.59l1.14-.68,1.13,.68v.59l-1.13-.7Z"/><path class="cls-1" d="M28.88,80.41h-.75l-3-4.54v4.54h-.75v-5.72h.75l3,4.54v-4.54h.75v5.72Z"/><path class="cls-1" d="M30.25,76.05c.25-.44,.59-.79,1.03-1.04s.92-.38,1.45-.38c.62,0,1.17,.15,1.63,.45,.46,.3,.8,.73,1.02,1.28h-.89c-.16-.34-.39-.61-.68-.79-.3-.19-.65-.28-1.07-.28s-.76,.09-1.07,.28c-.32,.19-.57,.45-.75,.79-.18,.34-.27,.74-.27,1.2s.09,.85,.27,1.19c.18,.34,.43,.61,.75,.79,.32,.19,.67,.28,1.07,.28s.77-.09,1.07-.27c.3-.18,.53-.45,.68-.79h.89c-.21,.55-.55,.97-1.02,1.26-.46,.3-1.01,.45-1.63,.45-.53,0-1.01-.12-1.45-.37-.43-.25-.78-.59-1.03-1.04-.25-.44-.38-.94-.38-1.5s.13-1.06,.38-1.5Z"/><path class="cls-1" d="M37.21,74.71v5.71h-.75v-5.71h.75Z"/><path class="cls-1" d="M41.86,79.14h-2.49l-.46,1.27h-.79l2.06-5.67h.86l2.06,5.67h-.79l-.46-1.27Zm-.21-.61l-1.03-2.88-1.03,2.88h2.06Z"/><path class="cls-1" d="M49.58,75.05c.46,.23,.81,.56,1.05,1,.24,.43,.36,.94,.36,1.52s-.12,1.09-.36,1.52c-.24,.43-.59,.76-1.05,.98-.46,.23-.99,.34-1.62,.34h-1.78v-5.71h1.78c.62,0,1.16,.12,1.62,.35Zm.07,4.16c.39-.39,.58-.94,.58-1.64s-.2-1.26-.59-1.66c-.39-.4-.95-.6-1.68-.6h-1.03v4.49h1.03c.74,0,1.3-.2,1.69-.59Z"/><path class="cls-1" d="M52.73,75.31v1.91h2.08v.61h-2.08v1.97h2.33v.61h-3.07v-5.72h3.07v.61h-2.33Z"/><path class="cls-1" d="M61.74,79.14h-2.49l-.46,1.27h-.79l2.06-5.67h.86l2.06,5.67h-.79l-.46-1.27Zm-.21-.61l-1.03-2.88-1.03,2.88h2.06Z"/><path class="cls-1" d="M67.4,74.71v.61h-1.56v5.1h-.75v-5.1h-1.56v-.61h3.87Z"/><path class="cls-1" d="M69.06,75.31v1.91h2.08v.61h-2.08v1.97h2.33v.61h-3.07v-5.72h3.07v.61h-2.33Z"/><path class="cls-1" d="M77.01,80.41h-.75l-3-4.54v4.54h-.75v-5.72h.75l3,4.54v-4.54h.75v5.72Z"/><path class="cls-1" d="M81.92,79.54c.3-.18,.53-.45,.68-.79h.89c-.2,.5-.5,.9-.91,1.2s-.89,.46-1.45,.51v.43c.32,0,.58,.06,.77,.21,.19,.14,.29,.34,.29,.61s-.09,.46-.28,.61c-.19,.15-.43,.23-.72,.23h-.94v-.48h.79c.18,0,.31-.03,.4-.08,.08-.05,.13-.15,.13-.28s-.04-.22-.13-.27c-.08-.05-.22-.08-.4-.08h-.41v-.89c-.5-.03-.95-.18-1.35-.43s-.72-.6-.95-1.02c-.23-.43-.34-.91-.34-1.45s.13-1.06,.38-1.5c.25-.44,.59-.79,1.03-1.04s.92-.38,1.45-.38c.62,0,1.17,.15,1.63,.45,.46,.3,.8,.73,1.02,1.28h-.89c-.16-.34-.39-.61-.68-.79-.3-.19-.65-.28-1.07-.28s-.76,.09-1.07,.28c-.32,.19-.57,.45-.75,.79-.18,.34-.27,.74-.27,1.2s.09,.85,.27,1.19c.18,.34,.43,.61,.75,.79,.32,.19,.67,.28,1.07,.28s.77-.09,1.07-.27Z"/><path class="cls-1" d="M87.97,79.14h-2.49l-.46,1.27h-.79l2.06-5.67h.86l2.06,5.67h-.79l-.46-1.27Zm-2.17-5.53c.14-.15,.33-.22,.54-.22,.1,0,.19,.02,.27,.05,.07,.04,.16,.09,.27,.15,.08,.05,.14,.1,.2,.13s.13,.04,.2,.04c.09,0,.17-.03,.24-.09,.07-.06,.11-.15,.12-.26h.43c-.03,.27-.12,.48-.27,.63-.15,.15-.33,.22-.55,.22-.1,0-.2-.02-.27-.05s-.17-.09-.27-.16c-.09-.05-.16-.09-.21-.12s-.11-.04-.18-.04c-.09,0-.17,.03-.23,.09-.06,.06-.1,.15-.12,.27h-.43c.04-.28,.13-.49,.27-.64Zm1.96,4.92l-1.03-2.88-1.03,2.88h2.06Z"/><path class="cls-1" d="M91.26,80.1c-.44-.25-.78-.59-1.04-1.04-.25-.44-.38-.95-.38-1.5s.13-1.06,.38-1.5c.25-.44,.6-.79,1.04-1.04,.44-.25,.92-.37,1.45-.37s1.02,.12,1.46,.37c.44,.25,.78,.59,1.03,1.04s.38,.95,.38,1.51-.13,1.06-.38,1.51-.6,.79-1.03,1.04c-.44,.25-.92,.37-1.46,.37s-1.01-.12-1.45-.37Zm2.53-.55c.32-.19,.57-.45,.75-.79,.18-.34,.27-.74,.27-1.2s-.09-.86-.27-1.2c-.18-.34-.43-.6-.75-.79-.32-.19-.68-.28-1.08-.28s-.76,.09-1.08,.28c-.32,.19-.57,.45-.75,.79-.18,.34-.27,.74-.27,1.2s.09,.85,.27,1.2c.18,.34,.43,.61,.75,.79s.68,.28,1.08,.28,.76-.09,1.08-.28Z"/><path class="cls-1" d="M102.12,79.14h-2.49l-.46,1.27h-.79l2.06-5.67h.86l2.06,5.67h-.79l-.46-1.27Zm-.21-.61l-1.03-2.88-1.03,2.88h2.06Zm-.23-4.69v.56l-1.74-.93v-.65l1.74,1.02Z"/><path class="cls-1" d="M107.25,80.27c-.3-.13-.53-.32-.7-.56-.17-.24-.26-.51-.26-.82h.79c.03,.27,.14,.49,.33,.68s.48,.27,.85,.27,.63-.09,.84-.27c.2-.18,.31-.41,.31-.68,0-.22-.06-.4-.18-.53s-.27-.24-.45-.31c-.18-.07-.42-.15-.73-.23-.38-.1-.68-.2-.9-.29-.23-.1-.42-.25-.58-.46s-.24-.49-.24-.85c0-.31,.08-.59,.24-.83,.16-.24,.38-.43,.67-.56s.62-.2,.99-.2c.54,0,.97,.13,1.31,.4,.34,.27,.53,.62,.58,1.07h-.82c-.03-.22-.14-.41-.34-.58-.2-.17-.47-.25-.8-.25-.31,0-.56,.08-.76,.24-.2,.16-.29,.39-.29,.68,0,.21,.06,.38,.18,.51,.12,.13,.26,.23,.43,.3,.17,.07,.41,.15,.73,.23,.38,.1,.68,.21,.91,.31,.23,.1,.43,.26,.59,.47,.16,.21,.25,.5,.25,.86,0,.28-.07,.54-.22,.79-.15,.25-.37,.44-.65,.6-.29,.15-.63,.23-1.02,.23s-.71-.07-1.01-.2Z"/><path class="cls-1" d="M114.63,79.14h-2.49l-.46,1.27h-.79l2.06-5.67h.86l2.06,5.67h-.79l-.46-1.27Zm-.21-.61l-1.03-2.88-1.03,2.88h2.06Z"/><path class="cls-1" d="M117.5,74.71v3.61c0,.51,.12,.88,.37,1.13,.25,.25,.59,.37,1.04,.37s.78-.12,1.03-.37c.25-.25,.37-.62,.37-1.13v-3.61h.75v3.6c0,.47-.1,.88-.29,1.2-.19,.33-.45,.57-.77,.73-.32,.16-.69,.24-1.09,.24s-.77-.08-1.09-.24c-.32-.16-.58-.4-.77-.73-.19-.32-.28-.72-.28-1.2v-3.6h.75Zm2.2-1.24l-1.74,.93v-.56l1.74-1.02v.65Z"/><path class="cls-1" d="M125.7,75.05c.46,.23,.81,.56,1.05,1,.24,.43,.36,.94,.36,1.52s-.12,1.09-.36,1.52c-.24,.43-.59,.76-1.05,.98-.46,.23-.99,.34-1.62,.34h-1.78v-5.71h1.78c.62,0,1.16,.12,1.62,.35Zm.07,4.16c.39-.39,.58-.94,.58-1.64s-.2-1.26-.59-1.66c-.39-.4-.95-.6-1.68-.6h-1.03v4.49h1.03c.74,0,1.3-.2,1.69-.59Z"/><path class="cls-1" d="M128.84,75.31v1.91h2.08v.61h-2.08v1.97h2.33v.61h-3.07v-5.72h3.07v.61h-2.33Z"/><path class="cls-1" d="M11.53,84.88c.46,.23,.81,.56,1.05,1,.24,.43,.36,.94,.36,1.52s-.12,1.09-.36,1.52c-.24,.43-.59,.76-1.05,.98-.46,.23-.99,.34-1.62,.34h-1.78v-5.71h1.78c.62,0,1.16,.12,1.62,.35Zm.07,4.16c.39-.39,.58-.94,.58-1.64s-.2-1.26-.59-1.66c-.39-.4-.95-.6-1.68-.6h-1.03v4.49h1.03c.74,0,1.3-.2,1.69-.59Z"/><path class="cls-1" d="M14.67,85.14v1.91h2.08v.61h-2.08v1.97h2.33v.61h-3.07v-5.72h3.07v.61h-2.33Z"/><path class="cls-1" d="M23.64,87.39c-.32,.31-.82,.47-1.49,.47h-1.1v2.38h-.75v-5.71h1.84c.64,0,1.13,.16,1.47,.47,.34,.31,.5,.71,.5,1.2s-.16,.87-.49,1.18Zm-.57-.41c.2-.18,.29-.44,.29-.77,0-.7-.4-1.06-1.21-1.06h-1.1v2.1h1.1c.42,0,.72-.09,.92-.27Z"/><path class="cls-1" d="M26.19,89.93c-.44-.25-.78-.59-1.04-1.04-.25-.44-.38-.95-.38-1.5s.13-1.06,.38-1.5c.25-.44,.6-.79,1.04-1.04,.44-.25,.92-.37,1.45-.37s1.02,.12,1.46,.37c.44,.25,.78,.59,1.03,1.04s.38,.95,.38,1.51-.13,1.06-.38,1.51-.6,.79-1.03,1.04c-.44,.25-.92,.37-1.46,.37s-1.01-.12-1.45-.37Zm2.53-.55c.32-.19,.57-.45,.75-.79,.18-.34,.27-.74,.27-1.2s-.09-.86-.27-1.2c-.18-.34-.43-.6-.75-.79-.32-.19-.68-.28-1.08-.28s-.76,.09-1.08,.28c-.32,.19-.57,.45-.75,.79-.18,.34-.27,.74-.27,1.2s.09,.85,.27,1.2c.18,.34,.43,.61,.75,.79s.68,.28,1.08,.28,.76-.09,1.08-.28Z"/><path class="cls-1" d="M34.82,87.39c-.32,.31-.82,.47-1.49,.47h-1.1v2.38h-.75v-5.71h1.84c.64,0,1.13,.16,1.47,.47,.34,.31,.5,.71,.5,1.2s-.16,.87-.49,1.18Zm-.57-.41c.2-.18,.29-.44,.29-.77,0-.7-.4-1.06-1.21-1.06h-1.1v2.1h1.1c.42,0,.72-.09,.92-.27Z"/><path class="cls-1" d="M36.96,84.53v3.61c0,.51,.12,.88,.37,1.13,.25,.25,.59,.37,1.04,.37s.78-.12,1.03-.37c.25-.25,.37-.62,.37-1.13v-3.61h.75v3.6c0,.47-.1,.88-.29,1.2-.19,.33-.45,.57-.77,.73-.32,.16-.69,.24-1.09,.24s-.77-.08-1.09-.24c-.32-.16-.58-.4-.77-.73-.19-.32-.28-.72-.28-1.2v-3.6h.75Z"/><path class="cls-1" d="M42.51,89.63h2v.61h-2.74v-5.71h.75v5.1Z"/><path class="cls-1" d="M48.67,88.97h-2.49l-.46,1.27h-.79l2.06-5.67h.86l2.06,5.67h-.79l-.46-1.27Zm-.21-.61l-1.03-2.88-1.03,2.88h2.06Z"/><path class="cls-1" d="M54.46,89.37c.3-.18,.53-.45,.68-.79h.89c-.2,.5-.5,.9-.91,1.2s-.89,.46-1.45,.51v.43c.32,0,.58,.06,.77,.21,.19,.14,.29,.34,.29,.61s-.09,.46-.28,.61c-.19,.15-.43,.23-.72,.23h-.94v-.48h.79c.18,0,.31-.03,.4-.08,.08-.05,.13-.15,.13-.28s-.04-.22-.13-.27c-.08-.05-.22-.08-.4-.08h-.41v-.89c-.5-.03-.95-.18-1.35-.43s-.72-.6-.95-1.02c-.23-.43-.34-.91-.34-1.45s.13-1.06,.38-1.5c.25-.44,.59-.79,1.03-1.04s.92-.38,1.45-.38c.62,0,1.17,.15,1.63,.45,.46,.3,.8,.73,1.02,1.28h-.89c-.16-.34-.39-.61-.68-.79-.3-.19-.65-.28-1.07-.28s-.76,.09-1.07,.28c-.32,.19-.57,.45-.75,.79-.18,.34-.27,.74-.27,1.2s.09,.85,.27,1.19c.18,.34,.43,.61,.75,.79,.32,.19,.67,.28,1.07,.28s.77-.09,1.07-.27Z"/><path class="cls-1" d="M58.28,89.93c-.44-.25-.78-.59-1.04-1.04-.25-.44-.38-.95-.38-1.5s.13-1.06,.38-1.5c.25-.44,.6-.79,1.04-1.04,.44-.25,.92-.37,1.45-.37s1.02,.12,1.46,.37c.44,.25,.78,.59,1.03,1.04s.38,.95,.38,1.51-.13,1.06-.38,1.51-.6,.79-1.03,1.04c-.44,.25-.92,.37-1.46,.37s-1.01-.12-1.45-.37Zm2.53-.55c.32-.19,.57-.45,.75-.79,.18-.34,.27-.74,.27-1.2s-.09-.86-.27-1.2c-.18-.34-.43-.6-.75-.79-.32-.19-.68-.28-1.08-.28s-.76,.09-1.08,.28c-.32,.19-.57,.45-.75,.79-.18,.34-.27,.74-.27,1.2s.09,.85,.27,1.2c.18,.34,.43,.61,.75,.79s.68,.28,1.08,.28,.76-.09,1.08-.28Zm-1.98-5.93c.14-.15,.33-.22,.54-.22,.1,0,.19,.02,.27,.05,.07,.04,.16,.09,.27,.15,.08,.05,.14,.1,.2,.13s.13,.04,.2,.04c.09,0,.17-.03,.24-.09,.07-.06,.11-.15,.12-.26h.43c-.03,.27-.12,.48-.27,.63s-.33,.22-.55,.22c-.1,0-.2-.02-.27-.05s-.17-.09-.27-.16c-.09-.05-.16-.09-.21-.12-.05-.03-.11-.04-.18-.04-.09,0-.17,.03-.23,.09-.06,.06-.1,.15-.12,.27h-.43c.04-.28,.13-.49,.27-.64Z"/><path class="cls-1" d="M64.32,85.14v1.91h2.08v.61h-2.08v1.97h2.33v.61h-3.07v-5.72h3.07v.61h-2.33Z"/><path class="cls-1" d="M68.58,90.1c-.3-.13-.53-.32-.7-.56-.17-.24-.26-.51-.26-.82h.79c.03,.27,.14,.49,.33,.68s.48,.27,.85,.27,.63-.09,.84-.27c.2-.18,.31-.41,.31-.68,0-.22-.06-.4-.18-.53s-.27-.24-.45-.31c-.18-.07-.42-.15-.73-.23-.38-.1-.68-.2-.9-.29-.23-.1-.42-.25-.58-.46s-.24-.49-.24-.85c0-.31,.08-.59,.24-.83,.16-.24,.38-.43,.67-.56s.62-.2,.99-.2c.54,0,.97,.13,1.31,.4,.34,.27,.53,.62,.58,1.07h-.82c-.03-.22-.14-.41-.34-.58-.2-.17-.47-.25-.8-.25-.31,0-.56,.08-.76,.24-.2,.16-.29,.39-.29,.68,0,.21,.06,.38,.18,.51,.12,.13,.26,.23,.43,.3,.17,.07,.41,.15,.73,.23,.38,.1,.68,.21,.91,.31,.23,.1,.43,.26,.59,.47,.16,.21,.25,.5,.25,.86,0,.28-.07,.54-.22,.79-.15,.25-.37,.44-.65,.6-.29,.15-.63,.23-1.02,.23s-.71-.07-1.01-.2Z"/><path class="cls-1" d="M75.52,85.14v1.91h2.08v.61h-2.08v1.97h2.33v.61h-3.07v-5.72h3.07v.61h-2.33Z"/><path class="cls-1" d="M84.77,84.57v5.67h-.75v-4.23l-1.88,4.23h-.52l-1.89-4.23v4.23h-.75v-5.67h.8l2.1,4.68,2.1-4.68h.79Z"/><path class="cls-1" d="M89.01,90.1c-.3-.13-.53-.32-.7-.56-.17-.24-.26-.51-.26-.82h.79c.03,.27,.14,.49,.33,.68s.48,.27,.85,.27,.63-.09,.84-.27c.2-.18,.31-.41,.31-.68,0-.22-.06-.4-.18-.53s-.27-.24-.45-.31c-.18-.07-.42-.15-.73-.23-.38-.1-.68-.2-.9-.29-.23-.1-.42-.25-.58-.46s-.24-.49-.24-.85c0-.31,.08-.59,.24-.83,.16-.24,.38-.43,.67-.56s.62-.2,.99-.2c.54,0,.97,.13,1.31,.4,.34,.27,.53,.62,.58,1.07h-.82c-.03-.22-.14-.41-.34-.58-.2-.17-.47-.25-.8-.25-.31,0-.56,.08-.76,.24-.2,.16-.29,.39-.29,.68,0,.21,.06,.38,.18,.51,.12,.13,.26,.23,.43,.3,.17,.07,.41,.15,.73,.23,.38,.1,.68,.21,.91,.31,.23,.1,.43,.26,.59,.47,.16,.21,.25,.5,.25,.86,0,.28-.07,.54-.22,.79-.15,.25-.37,.44-.65,.6-.29,.15-.63,.23-1.02,.23s-.71-.07-1.01-.2Z"/><path class="cls-1" d="M93.77,84.53v5.71h-.75v-5.71h.75Z"/><path class="cls-1" d="M98.55,84.53v.61h-1.56v5.1h-.75v-5.1h-1.56v-.61h3.87Z"/><path class="cls-1" d="M100.19,84.53v3.61c0,.51,.12,.88,.37,1.13,.25,.25,.59,.37,1.04,.37s.78-.12,1.03-.37c.25-.25,.37-.62,.37-1.13v-3.61h.75v3.6c0,.47-.1,.88-.29,1.2-.19,.33-.45,.57-.77,.73-.32,.16-.69,.24-1.09,.24s-.77-.08-1.09-.24c-.32-.16-.58-.4-.77-.73-.19-.32-.28-.72-.28-1.2v-3.6h.75Z"/><path class="cls-1" d="M108.37,88.97h-2.49l-.46,1.27h-.79l2.06-5.67h.86l2.06,5.67h-.79l-.46-1.27Zm-.21-.61l-1.03-2.88-1.03,2.88h2.06Z"/><path class="cls-1" d="M114.15,89.37c.3-.18,.53-.45,.68-.79h.89c-.2,.5-.5,.9-.91,1.2s-.89,.46-1.45,.51v.43c.32,0,.58,.06,.77,.21,.19,.14,.29,.34,.29,.61s-.09,.46-.28,.61c-.19,.15-.43,.23-.72,.23h-.94v-.48h.79c.18,0,.31-.03,.4-.08,.08-.05,.13-.15,.13-.28s-.04-.22-.13-.27c-.08-.05-.22-.08-.4-.08h-.41v-.89c-.5-.03-.95-.18-1.35-.43s-.72-.6-.95-1.02c-.23-.43-.34-.91-.34-1.45s.13-1.06,.38-1.5c.25-.44,.59-.79,1.03-1.04s.92-.38,1.45-.38c.62,0,1.17,.15,1.63,.45,.46,.3,.8,.73,1.02,1.28h-.89c-.16-.34-.39-.61-.68-.79-.3-.19-.65-.28-1.07-.28s-.76,.09-1.07,.28c-.32,.19-.57,.45-.75,.79-.18,.34-.27,.74-.27,1.2s.09,.85,.27,1.19c.18,.34,.43,.61,.75,.79,.32,.19,.67,.28,1.07,.28s.77-.09,1.07-.27Z"/><path class="cls-1" d="M120.21,88.97h-2.49l-.46,1.27h-.79l2.06-5.67h.86l2.06,5.67h-.79l-.46-1.27Zm-2.17-5.53c.14-.15,.33-.22,.54-.22,.1,0,.19,.02,.27,.05,.07,.04,.16,.09,.27,.15,.08,.05,.14,.1,.2,.13s.13,.04,.2,.04c.09,0,.17-.03,.24-.09,.07-.06,.11-.15,.12-.26h.43c-.03,.27-.12,.48-.27,.63-.15,.15-.33,.22-.55,.22-.1,0-.2-.02-.27-.05s-.17-.09-.27-.16c-.09-.05-.16-.09-.21-.12s-.11-.04-.18-.04c-.09,0-.17,.03-.23,.09-.06,.06-.1,.15-.12,.27h-.43c.04-.28,.13-.49,.27-.64Zm1.96,4.92l-1.03-2.88-1.03,2.88h2.06Z"/><path class="cls-1" d="M123.49,89.93c-.44-.25-.78-.59-1.04-1.04-.25-.44-.38-.95-.38-1.5s.13-1.06,.38-1.5c.25-.44,.6-.79,1.04-1.04,.44-.25,.92-.37,1.45-.37s1.02,.12,1.46,.37c.44,.25,.78,.59,1.03,1.04s.38,.95,.38,1.51-.13,1.06-.38,1.51-.6,.79-1.03,1.04c-.44,.25-.92,.37-1.46,.37s-1.01-.12-1.45-.37Zm2.53-.55c.32-.19,.57-.45,.75-.79,.18-.34,.27-.74,.27-1.2s-.09-.86-.27-1.2c-.18-.34-.43-.6-.75-.79-.32-.19-.68-.28-1.08-.28s-.76,.09-1.08,.28c-.32,.19-.57,.45-.75,.79-.18,.34-.27,.74-.27,1.2s.09,.85,.27,1.2c.18,.34,.43,.61,.75,.79s.68,.28,1.08,.28,.76-.09,1.08-.28Z"/><path class="cls-1" d="M19.52,94.36l-2.15,5.71h-.86l-2.15-5.71h.79l1.79,4.92,1.79-4.92h.79Z"/><path class="cls-1" d="M21.07,94.36v3.61c0,.51,.12,.88,.37,1.13,.25,.25,.59,.37,1.04,.37s.78-.12,1.03-.37c.25-.25,.37-.62,.37-1.13v-3.61h.75v3.6c0,.47-.1,.88-.29,1.2-.19,.33-.45,.57-.77,.73-.32,.16-.69,.24-1.09,.24s-.77-.08-1.09-.24c-.32-.16-.58-.4-.77-.73-.19-.32-.28-.72-.28-1.2v-3.6h.75Z"/><path class="cls-1" d="M26.62,99.46h2v.61h-2.74v-5.71h.75v5.1Z"/><path class="cls-1" d="M33.9,100.07h-.75l-3-4.54v4.54h-.75v-5.72h.75l3,4.54v-4.54h.75v5.72Z"/><path class="cls-1" d="M35.91,94.97v1.91h2.08v.61h-2.08v1.97h2.33v.61h-3.07v-5.72h3.07v.61h-2.33Z"/><path class="cls-1" d="M42.37,100.07l-1.36-2.33h-.9v2.33h-.75v-5.71h1.84c.43,0,.8,.07,1.09,.22s.52,.35,.67,.6c.15,.25,.22,.54,.22,.86,0,.39-.11,.74-.34,1.04-.23,.3-.57,.5-1.02,.6l1.43,2.39h-.89Zm-2.26-2.93h1.1c.4,0,.71-.1,.91-.3,.2-.2,.3-.47,.3-.8s-.1-.6-.3-.79-.5-.28-.91-.28h-1.1v2.16Z"/><path class="cls-1" d="M47.72,98.8h-2.49l-.46,1.27h-.79l2.06-5.67h.86l2.06,5.67h-.79l-.46-1.27Zm-.21-.61l-1.03-2.88-1.03,2.88h2.06Zm-.23-5.07l-1.74,.93v-.56l1.74-1.02v.65Z"/><path class="cls-1" d="M54.58,94.36l-2.15,5.71h-.86l-2.15-5.71h.79l1.79,4.92,1.79-4.92h.79Z"/><path class="cls-1" d="M56.15,94.97v1.91h2.08v.61h-2.08v1.97h2.33v.61h-3.07v-5.72h3.07v.61h-2.33Z"/><path class="cls-1" d="M60.35,99.46h2v.61h-2.74v-5.71h.75v5.1Z"/><path class="cls-1" d="M66.07,94.97v1.91h2.08v.61h-2.08v1.97h2.33v.61h-3.07v-5.72h3.07v.61h-2.33Z"/><path class="cls-1" d="M75.04,97.21c-.32,.31-.82,.47-1.49,.47h-1.1v2.38h-.75v-5.71h1.84c.64,0,1.13,.16,1.47,.47,.34,.31,.5,.71,.5,1.2s-.16,.87-.49,1.18Zm-.57-.41c.2-.18,.29-.44,.29-.77,0-.7-.4-1.06-1.21-1.06h-1.1v2.1h1.1c.42,0,.72-.09,.92-.27Z"/><path class="cls-1" d="M79.46,100.07l-1.36-2.33h-.9v2.33h-.75v-5.71h1.84c.43,0,.8,.07,1.09,.22s.52,.35,.67,.6c.15,.25,.22,.54,.22,.86,0,.39-.11,.74-.34,1.04-.23,.3-.57,.5-1.02,.6l1.43,2.39h-.89Zm-2.26-2.93h1.1c.4,0,.71-.1,.91-.3,.2-.2,.3-.47,.3-.8s-.1-.6-.3-.79-.5-.28-.91-.28h-1.1v2.16Z"/><path class="cls-1" d="M82.57,99.75c-.44-.25-.78-.59-1.04-1.04-.25-.44-.38-.95-.38-1.5s.13-1.06,.38-1.5c.25-.44,.6-.79,1.04-1.04,.44-.25,.92-.37,1.45-.37s1.02,.12,1.46,.37c.44,.25,.78,.59,1.03,1.04s.38,.95,.38,1.51-.13,1.06-.38,1.51-.6,.79-1.03,1.04c-.44,.25-.92,.37-1.46,.37s-1.01-.12-1.45-.37Zm2.53-.55c.32-.19,.57-.45,.75-.79,.18-.34,.27-.74,.27-1.2s-.09-.86-.27-1.2c-.18-.34-.43-.6-.75-.79-.32-.19-.68-.28-1.08-.28s-.76,.09-1.08,.28c-.32,.19-.57,.45-.75,.79-.18,.34-.27,.74-.27,1.2s.09,.85,.27,1.2c.18,.34,.43,.61,.75,.79s.68,.28,1.08,.28,.76-.09,1.08-.28Z"/><path class="cls-1" d="M92.2,96.01c-.16-.33-.39-.59-.69-.77-.3-.18-.65-.27-1.05-.27s-.76,.09-1.08,.27c-.32,.18-.57,.45-.75,.79-.18,.34-.27,.74-.27,1.18s.09,.84,.27,1.18c.18,.34,.43,.6,.75,.78,.32,.18,.68,.27,1.08,.27,.56,0,1.02-.17,1.38-.5s.57-.78,.63-1.35h-2.28v-.61h3.07v.57c-.04,.47-.19,.9-.44,1.29-.25,.39-.58,.7-.99,.92-.41,.23-.87,.34-1.37,.34-.53,0-1.01-.12-1.45-.37-.44-.25-.78-.59-1.04-1.04s-.38-.94-.38-1.5,.13-1.06,.38-1.5c.25-.44,.6-.79,1.04-1.04,.44-.25,.92-.37,1.45-.37,.61,0,1.14,.15,1.61,.45,.47,.3,.81,.72,1.02,1.27h-.89Z"/><path class="cls-1" d="M97.25,100.07l-1.36-2.33h-.9v2.33h-.75v-5.71h1.84c.43,0,.8,.07,1.09,.22s.52,.35,.67,.6c.15,.25,.22,.54,.22,.86,0,.39-.11,.74-.34,1.04-.23,.3-.57,.5-1.02,.6l1.43,2.39h-.89Zm-2.26-2.93h1.1c.4,0,.71-.1,.91-.3,.2-.2,.3-.47,.3-.8s-.1-.6-.3-.79-.5-.28-.91-.28h-1.1v2.16Z"/><path class="cls-1" d="M102.6,98.8h-2.49l-.46,1.27h-.79l2.06-5.67h.86l2.06,5.67h-.79l-.46-1.27Zm-.21-.61l-1.03-2.88-1.03,2.88h2.06Z"/><path class="cls-1" d="M110.53,94.4v5.67h-.75v-4.23l-1.88,4.23h-.52l-1.89-4.23v4.23h-.75v-5.67h.8l2.1,4.68,2.1-4.68h.79Z"/><path class="cls-1" d="M115.17,98.8h-2.49l-.46,1.27h-.79l2.06-5.67h.86l2.06,5.67h-.79l-.46-1.27Zm-.21-.61l-1.03-2.88-1.03,2.88h2.06Z"/><path class="cls-1" d="M118.11,99.92c-.3-.13-.53-.32-.7-.56-.17-.24-.26-.51-.26-.82h.79c.03,.27,.14,.49,.33,.68s.48,.27,.85,.27,.63-.09,.84-.27c.2-.18,.31-.41,.31-.68,0-.22-.06-.4-.18-.53s-.27-.24-.45-.31c-.18-.07-.42-.15-.73-.23-.38-.1-.68-.2-.9-.29-.23-.1-.42-.25-.58-.46s-.24-.49-.24-.85c0-.31,.08-.59,.24-.83,.16-.24,.38-.43,.67-.56s.62-.2,.99-.2c.54,0,.97,.13,1.31,.4,.34,.27,.53,.62,.58,1.07h-.82c-.03-.22-.14-.41-.34-.58-.2-.17-.47-.25-.8-.25-.31,0-.56,.08-.76,.24-.2,.16-.29,.39-.29,.68,0,.21,.06,.38,.18,.51,.12,.13,.26,.23,.43,.3,.17,.07,.41,.15,.73,.23,.38,.1,.68,.21,.91,.31,.23,.1,.43,.26,.59,.47,.16,.21,.25,.5,.25,.86,0,.28-.07,.54-.22,.79-.15,.25-.37,.44-.65,.6-.29,.15-.63,.23-1.02,.23s-.71-.07-1.01-.2Z"/><path class="cls-1" d="M49.9,104.79v1.91h2.08v.61h-2.08v1.97h2.33v.61h-3.07v-5.72h3.07v.61h-2.33Z"/><path class="cls-1" d="M54.15,109.75c-.3-.13-.53-.32-.7-.56-.17-.24-.26-.51-.26-.82h.79c.03,.27,.14,.49,.33,.68s.48,.27,.85,.27,.63-.09,.84-.27c.2-.18,.31-.41,.31-.68,0-.22-.06-.4-.18-.53s-.27-.24-.45-.31c-.18-.07-.42-.15-.73-.23-.38-.1-.68-.2-.9-.29-.23-.1-.42-.25-.58-.46s-.24-.49-.24-.85c0-.31,.08-.59,.24-.83,.16-.24,.38-.43,.67-.56s.62-.2,.99-.2c.54,0,.97,.13,1.31,.4,.34,.27,.53,.62,.58,1.07h-.82c-.03-.22-.14-.41-.34-.58-.2-.17-.47-.25-.8-.25-.31,0-.56,.08-.76,.24-.2,.16-.29,.39-.29,.68,0,.21,.06,.38,.18,.51,.12,.13,.26,.23,.43,.3,.17,.07,.41,.15,.73,.23,.38,.1,.68,.21,.91,.31,.23,.1,.43,.26,.59,.47,.16,.21,.25,.5,.25,.86,0,.28-.07,.54-.22,.79-.15,.25-.37,.44-.65,.6-.29,.15-.63,.23-1.02,.23s-.71-.07-1.01-.2Z"/><path class="cls-1" d="M61.49,107.04c-.32,.31-.82,.47-1.49,.47h-1.1v2.38h-.75v-5.71h1.84c.64,0,1.13,.16,1.47,.47,.34,.31,.5,.71,.5,1.2s-.16,.87-.49,1.18Zm-.57-.41c.2-.18,.29-.44,.29-.77,0-.7-.4-1.06-1.21-1.06h-1.1v2.1h1.1c.42,0,.72-.09,.92-.27Z"/><path class="cls-1" d="M63.65,104.79v1.91h2.08v.61h-2.08v1.97h2.33v.61h-3.07v-5.72h3.07v.61h-2.33Z"/><path class="cls-1" d="M67.2,105.53c.25-.44,.59-.79,1.03-1.04s.92-.38,1.45-.38c.62,0,1.17,.15,1.63,.45,.46,.3,.8,.73,1.02,1.28h-.89c-.16-.34-.39-.61-.68-.79-.3-.19-.65-.28-1.07-.28s-.76,.09-1.07,.28c-.32,.19-.57,.45-.75,.79-.18,.34-.27,.74-.27,1.2s.09,.85,.27,1.19c.18,.34,.43,.61,.75,.79,.32,.19,.67,.28,1.07,.28s.77-.09,1.07-.27c.3-.18,.53-.45,.68-.79h.89c-.21,.55-.55,.97-1.02,1.26-.46,.3-1.01,.45-1.63,.45-.53,0-1.01-.12-1.45-.37-.43-.25-.78-.59-1.03-1.04-.25-.44-.38-.94-.38-1.5s.13-1.06,.38-1.5Z"/><path class="cls-1" d="M74.17,104.19v5.71h-.75v-5.71h.75Z"/><path class="cls-1" d="M78.81,108.63h-2.49l-.46,1.27h-.79l2.06-5.67h.86l2.06,5.67h-.79l-.46-1.27Zm-.21-.61l-1.03-2.88-1.03,2.88h2.06Z"/><path class="cls-1" d="M81.7,104.19v5.71h-.75v-5.71h.75Z"/><path class="cls-1" d="M83.77,109.75c-.3-.13-.53-.32-.7-.56-.17-.24-.26-.51-.26-.82h.79c.03,.27,.14,.49,.33,.68s.48,.27,.85,.27,.63-.09,.84-.27c.2-.18,.31-.41,.31-.68,0-.22-.06-.4-.18-.53s-.27-.24-.45-.31c-.18-.07-.42-.15-.73-.23-.38-.1-.68-.2-.9-.29-.23-.1-.42-.25-.58-.46s-.24-.49-.24-.85c0-.31,.08-.59,.24-.83,.16-.24,.38-.43,.67-.56s.62-.2,.99-.2c.54,0,.97,.13,1.31,.4,.34,.27,.53,.62,.58,1.07h-.82c-.03-.22-.14-.41-.34-.58-.2-.17-.47-.25-.8-.25-.31,0-.56,.08-.76,.24-.2,.16-.29,.39-.29,.68,0,.21,.06,.38,.18,.51,.12,.13,.26,.23,.43,.3,.17,.07,.41,.15,.73,.23,.38,.1,.68,.21,.91,.31,.23,.1,.43,.26,.59,.47,.16,.21,.25,.5,.25,.86,0,.28-.07,.54-.22,.79-.15,.25-.37,.44-.65,.6-.29,.15-.63,.23-1.02,.23s-.71-.07-1.01-.2Z"/></g><rect class="cls-3" x="140.29" y="64.86" width="98.42" height="28.76" rx="5" ry="5"/><g><path class="cls-1" d="M154.67,71.29c-.16-.33-.39-.59-.69-.77-.3-.18-.65-.27-1.05-.27s-.76,.09-1.08,.27c-.32,.18-.57,.45-.75,.79-.18,.34-.27,.74-.27,1.18s.09,.84,.27,1.18c.18,.34,.43,.6,.75,.78,.32,.18,.68,.27,1.08,.27,.56,0,1.02-.17,1.38-.5s.57-.78,.63-1.35h-2.28v-.61h3.07v.57c-.04,.47-.19,.9-.44,1.29-.25,.39-.58,.7-.99,.92-.41,.23-.87,.34-1.37,.34-.53,0-1.01-.12-1.45-.37-.44-.25-.78-.59-1.04-1.04s-.38-.94-.38-1.5,.13-1.06,.38-1.5c.25-.44,.6-.79,1.04-1.04,.44-.25,.92-.37,1.45-.37,.61,0,1.14,.15,1.61,.45,.47,.3,.81,.72,1.02,1.27h-.89Z"/><path class="cls-1" d="M157.46,70.25v1.91h2.08v.61h-2.08v1.97h2.33v.61h-3.07v-5.72h3.07v.61h-2.33Z"/><path class="cls-1" d="M163.92,75.35l-1.36-2.33h-.9v2.33h-.75v-5.71h1.84c.43,0,.8,.07,1.09,.22s.52,.35,.67,.6c.15,.25,.22,.54,.22,.86,0,.39-.11,.74-.34,1.04-.23,.3-.57,.5-1.02,.6l1.43,2.39h-.89Zm-2.26-2.93h1.1c.4,0,.71-.1,.91-.3,.2-.2,.3-.47,.3-.8s-.1-.6-.3-.79-.5-.28-.91-.28h-1.1v2.16Z"/><path class="cls-1" d="M166.64,70.25v1.91h2.08v.61h-2.08v1.97h2.33v.61h-3.07v-5.72h3.07v.61h-2.33Zm.71-1.67l-1.14,.7v-.59l1.14-.68,1.13,.68v.59l-1.13-.7Z"/><path class="cls-1" d="M174.59,75.35h-.75l-3-4.54v4.54h-.75v-5.72h.75l3,4.54v-4.54h.75v5.72Z"/><path class="cls-1" d="M175.95,70.99c.25-.44,.59-.79,1.03-1.04s.92-.38,1.45-.38c.62,0,1.17,.15,1.63,.45,.46,.3,.8,.73,1.02,1.28h-.89c-.16-.34-.39-.61-.68-.79-.3-.19-.65-.28-1.07-.28s-.76,.09-1.07,.28c-.32,.19-.57,.45-.75,.79-.18,.34-.27,.74-.27,1.2s.09,.85,.27,1.19c.18,.34,.43,.61,.75,.79,.32,.19,.67,.28,1.07,.28s.77-.09,1.07-.27c.3-.18,.53-.45,.68-.79h.89c-.21,.55-.55,.97-1.02,1.26-.46,.3-1.01,.45-1.63,.45-.53,0-1.01-.12-1.45-.37-.43-.25-.78-.59-1.03-1.04-.25-.44-.38-.94-.38-1.5s.13-1.06,.38-1.5Z"/><path class="cls-1" d="M182.92,69.64v5.71h-.75v-5.71h.75Z"/><path class="cls-1" d="M187.57,74.08h-2.49l-.46,1.27h-.79l2.06-5.67h.86l2.05,5.67h-.79l-.46-1.27Zm-.21-.61l-1.03-2.88-1.03,2.88h2.06Z"/><path class="cls-1" d="M195.29,69.99c.46,.23,.8,.56,1.05,1,.24,.43,.36,.94,.36,1.52s-.12,1.09-.36,1.52-.59,.76-1.05,.98c-.46,.23-1,.34-1.62,.34h-1.78v-5.71h1.78c.62,0,1.16,.12,1.62,.35Zm.07,4.16c.39-.39,.58-.94,.58-1.64s-.2-1.26-.58-1.66c-.39-.4-.95-.6-1.68-.6h-1.03v4.49h1.03c.74,0,1.3-.2,1.69-.59Z"/><path class="cls-1" d="M198.43,70.25v1.91h2.08v.61h-2.08v1.97h2.33v.61h-3.07v-5.72h3.07v.61h-2.33Z"/><path class="cls-1" d="M204.87,75.2c-.3-.13-.53-.32-.7-.56-.17-.24-.26-.51-.26-.82h.79c.03,.27,.14,.49,.33,.68s.48,.27,.85,.27,.63-.09,.84-.27c.2-.18,.31-.41,.31-.68,0-.22-.06-.4-.18-.53-.12-.14-.27-.24-.45-.31-.18-.07-.42-.15-.73-.23-.38-.1-.68-.2-.91-.29-.23-.1-.42-.25-.58-.46s-.24-.49-.24-.85c0-.31,.08-.59,.24-.83s.38-.43,.67-.56c.29-.13,.62-.2,.99-.2,.54,0,.97,.13,1.31,.4,.34,.27,.53,.62,.58,1.07h-.82c-.03-.22-.14-.41-.34-.58-.2-.17-.47-.25-.8-.25-.31,0-.56,.08-.76,.24-.2,.16-.29,.39-.29,.68,0,.21,.06,.38,.18,.51,.12,.13,.26,.23,.43,.3s.41,.15,.72,.23c.38,.1,.68,.21,.91,.31,.23,.1,.43,.26,.59,.47,.16,.21,.25,.5,.25,.86,0,.28-.07,.54-.22,.79-.15,.25-.37,.44-.66,.6-.29,.15-.63,.23-1.02,.23s-.71-.07-1.01-.2Z"/><path class="cls-1" d="M212.26,74.08h-2.49l-.46,1.27h-.79l2.06-5.67h.86l2.05,5.67h-.79l-.46-1.27Zm-.21-.61l-1.03-2.88-1.03,2.88h2.06Z"/><path class="cls-1" d="M215.13,69.64v3.61c0,.51,.12,.88,.37,1.13,.25,.25,.59,.37,1.04,.37s.78-.12,1.03-.37c.25-.25,.37-.62,.37-1.13v-3.61h.75v3.6c0,.47-.1,.88-.29,1.2-.19,.33-.45,.57-.77,.73-.33,.16-.69,.24-1.09,.24s-.77-.08-1.09-.24c-.33-.16-.58-.4-.77-.73-.19-.32-.28-.72-.28-1.2v-3.6h.75Zm2.2-1.24l-1.74,.93v-.56l1.74-1.02v.65Z"/><path class="cls-1" d="M223.32,69.99c.46,.23,.8,.56,1.05,1,.24,.43,.36,.94,.36,1.52s-.12,1.09-.36,1.52-.59,.76-1.05,.98c-.46,.23-1,.34-1.62,.34h-1.78v-5.71h1.78c.62,0,1.16,.12,1.62,.35Zm.07,4.16c.39-.39,.58-.94,.58-1.64s-.2-1.26-.58-1.66c-.39-.4-.95-.6-1.68-.6h-1.03v4.49h1.03c.74,0,1.3-.2,1.69-.59Z"/><path class="cls-1" d="M226.47,70.25v1.91h2.08v.61h-2.08v1.97h2.33v.61h-3.07v-5.72h3.07v.61h-2.33Z"/><path class="cls-1" d="M148.91,79.81c.46,.23,.81,.56,1.05,1,.24,.43,.36,.94,.36,1.52s-.12,1.09-.36,1.52c-.24,.43-.59,.76-1.05,.98-.46,.23-.99,.34-1.62,.34h-1.78v-5.71h1.78c.62,0,1.16,.12,1.62,.35Zm.07,4.16c.39-.39,.58-.94,.58-1.64s-.2-1.26-.59-1.66c-.39-.4-.95-.6-1.68-.6h-1.03v4.49h1.03c.74,0,1.3-.2,1.69-.59Z"/><path class="cls-1" d="M152.44,84.86c-.44-.25-.78-.59-1.04-1.04-.25-.44-.38-.95-.38-1.5s.13-1.06,.38-1.5c.25-.44,.6-.79,1.04-1.04,.44-.25,.92-.37,1.45-.37s1.02,.12,1.46,.37c.44,.25,.78,.59,1.03,1.04s.38,.95,.38,1.51-.13,1.06-.38,1.51-.6,.79-1.03,1.04c-.44,.25-.92,.37-1.46,.37s-1.01-.12-1.45-.37Zm2.53-.55c.32-.19,.57-.45,.75-.79,.18-.34,.27-.74,.27-1.2s-.09-.86-.27-1.2c-.18-.34-.43-.6-.75-.79-.32-.19-.68-.28-1.08-.28s-.76,.09-1.08,.28c-.32,.19-.57,.45-.75,.79-.18,.34-.27,.74-.27,1.2s.09,.85,.27,1.2c.18,.34,.43,.61,.75,.79s.68,.28,1.08,.28,.76-.09,1.08-.28Z"/><path class="cls-1" d="M160.73,85.03c-.3-.13-.53-.32-.7-.56-.17-.24-.26-.51-.26-.82h.79c.03,.27,.14,.49,.33,.68s.48,.27,.85,.27,.63-.09,.84-.27c.2-.18,.31-.41,.31-.68,0-.22-.06-.4-.18-.53s-.27-.24-.45-.31c-.18-.07-.42-.15-.73-.23-.38-.1-.68-.2-.9-.29-.23-.1-.42-.25-.58-.46s-.24-.49-.24-.85c0-.31,.08-.59,.24-.83,.16-.24,.38-.43,.67-.56s.62-.2,.99-.2c.54,0,.97,.13,1.31,.4,.34,.27,.53,.62,.58,1.07h-.82c-.03-.22-.14-.41-.34-.58-.2-.17-.47-.25-.8-.25-.31,0-.56,.08-.76,.24-.2,.16-.29,.39-.29,.68,0,.21,.06,.38,.18,.51,.12,.13,.26,.23,.43,.3,.17,.07,.41,.15,.73,.23,.38,.1,.68,.21,.91,.31,.23,.1,.43,.26,.59,.47,.16,.21,.25,.5,.25,.86,0,.28-.07,.54-.22,.79-.15,.25-.37,.44-.65,.6-.29,.15-.63,.23-1.02,.23s-.71-.07-1.01-.2Z"/><path class="cls-1" d="M165.48,79.47v5.71h-.75v-5.71h.75Z"/><path class="cls-1" d="M167.55,85.03c-.3-.13-.53-.32-.7-.56-.17-.24-.26-.51-.26-.82h.79c.03,.27,.14,.49,.33,.68s.48,.27,.85,.27,.63-.09,.84-.27c.2-.18,.31-.41,.31-.68,0-.22-.06-.4-.18-.53s-.27-.24-.45-.31c-.18-.07-.42-.15-.73-.23-.38-.1-.68-.2-.9-.29-.23-.1-.42-.25-.58-.46s-.24-.49-.24-.85c0-.31,.08-.59,.24-.83,.16-.24,.38-.43,.67-.56s.62-.2,.99-.2c.54,0,.97,.13,1.31,.4,.34,.27,.53,.62,.58,1.07h-.82c-.03-.22-.14-.41-.34-.58-.2-.17-.47-.25-.8-.25-.31,0-.56,.08-.76,.24-.2,.16-.29,.39-.29,.68,0,.21,.06,.38,.18,.51,.12,.13,.26,.23,.43,.3,.17,.07,.41,.15,.73,.23,.38,.1,.68,.21,.91,.31,.23,.1,.43,.26,.59,.47,.16,.21,.25,.5,.25,.86,0,.28-.07,.54-.22,.79-.15,.25-.37,.44-.65,.6-.29,.15-.63,.23-1.02,.23s-.71-.07-1.01-.2Z"/><path class="cls-1" d="M175.07,79.47v.61h-1.56v5.1h-.75v-5.1h-1.56v-.61h3.87Z"/><path class="cls-1" d="M176.73,80.07v1.91h2.08v.61h-2.08v1.97h2.33v.61h-3.07v-5.72h3.07v.61h-2.33Z"/><path class="cls-1" d="M185.98,79.51v5.67h-.75v-4.23l-1.88,4.23h-.52l-1.89-4.23v4.23h-.75v-5.67h.8l2.1,4.68,2.1-4.68h.79Z"/><path class="cls-1" d="M190.61,83.91h-2.49l-.46,1.27h-.79l2.06-5.67h.86l2.05,5.67h-.79l-.46-1.27Zm-.21-.61l-1.03-2.88-1.03,2.88h2.06Z"/><path class="cls-1" d="M198.27,82.32c-.33,.31-.82,.47-1.49,.47h-1.1v2.38h-.75v-5.71h1.84c.64,0,1.13,.16,1.47,.47s.5,.71,.5,1.2-.16,.87-.49,1.18Zm-.57-.41c.2-.18,.29-.44,.29-.77,0-.7-.4-1.06-1.21-1.06h-1.1v2.1h1.1c.41,0,.72-.09,.92-.27Z"/><path class="cls-1" d="M202.69,85.17l-1.36-2.33h-.9v2.33h-.75v-5.71h1.84c.43,0,.79,.07,1.09,.22s.52,.35,.67,.6c.15,.25,.22,.54,.22,.86,0,.39-.11,.74-.34,1.04-.23,.3-.57,.5-1.02,.6l1.43,2.39h-.89Zm-2.26-2.93h1.1c.4,0,.71-.1,.91-.3,.2-.2,.3-.47,.3-.8s-.1-.6-.3-.79c-.2-.19-.5-.28-.91-.28h-1.1v2.16Z"/><path class="cls-1" d="M205.41,79.47v5.71h-.75v-5.71h.75Z"/><path class="cls-1" d="M207.48,85.03c-.3-.13-.53-.32-.7-.56-.17-.24-.26-.51-.26-.82h.79c.03,.27,.14,.49,.33,.68s.48,.27,.85,.27,.63-.09,.84-.27c.2-.18,.31-.41,.31-.68,0-.22-.06-.4-.18-.53-.12-.14-.27-.24-.45-.31-.18-.07-.42-.15-.73-.23-.38-.1-.68-.2-.91-.29-.23-.1-.42-.25-.58-.46s-.24-.49-.24-.85c0-.31,.08-.59,.24-.83s.38-.43,.67-.56c.29-.13,.62-.2,.99-.2,.54,0,.97,.13,1.31,.4,.34,.27,.53,.62,.58,1.07h-.82c-.03-.22-.14-.41-.34-.58-.2-.17-.47-.25-.8-.25-.31,0-.56,.08-.76,.24-.2,.16-.29,.39-.29,.68,0,.21,.06,.38,.18,.51,.12,.13,.26,.23,.43,.3s.41,.15,.72,.23c.38,.1,.68,.21,.91,.31,.23,.1,.43,.26,.59,.47,.16,.21,.25,.5,.25,.86,0,.28-.07,.54-.22,.79-.15,.25-.37,.44-.66,.6-.29,.15-.63,.23-1.02,.23s-.71-.07-1.01-.2Z"/><path class="cls-1" d="M212.23,79.47v5.71h-.75v-5.71h.75Z"/><path class="cls-1" d="M214.64,84.86c-.44-.25-.78-.59-1.04-1.04-.25-.44-.38-.95-.38-1.5s.13-1.06,.38-1.5c.25-.44,.6-.79,1.04-1.04,.44-.25,.92-.37,1.45-.37s1.02,.12,1.46,.37c.44,.25,.78,.59,1.03,1.04s.38,.95,.38,1.51-.13,1.06-.38,1.51-.59,.79-1.03,1.04c-.44,.25-.92,.37-1.46,.37s-1.01-.12-1.45-.37Zm2.53-.55c.32-.19,.57-.45,.75-.79,.18-.34,.27-.74,.27-1.2s-.09-.86-.27-1.2c-.18-.34-.43-.6-.75-.79-.32-.19-.68-.28-1.08-.28s-.76,.09-1.08,.28c-.32,.19-.57,.45-.75,.79-.18,.34-.27,.74-.27,1.2s.09,.85,.27,1.2c.18,.34,.43,.61,.75,.79s.68,.28,1.08,.28,.76-.09,1.08-.28Z"/><path class="cls-1" d="M224.43,85.17h-.75l-3-4.54v4.54h-.75v-5.72h.75l3,4.54v-4.54h.75v5.72Z"/><path class="cls-1" d="M229.07,83.91h-2.49l-.46,1.27h-.79l2.06-5.67h.86l2.05,5.67h-.79l-.46-1.27Zm-.21-.61l-1.03-2.88-1.03,2.88h2.06Z"/><path class="cls-1" d="M231.96,84.57h2v.61h-2.74v-5.71h.75v5.1Z"/></g><rect class="cls-3" x="255.66" y="64.86" width="113.41" height="30.48" rx="5" ry="5"/><g><path class="cls-1" d="M271.29,74.17c-.16-.33-.39-.59-.69-.77-.3-.18-.65-.27-1.05-.27s-.76,.09-1.08,.27c-.32,.18-.57,.45-.75,.79-.18,.34-.27,.74-.27,1.18s.09,.84,.27,1.18c.18,.34,.43,.6,.75,.78,.32,.18,.68,.27,1.08,.27,.56,0,1.02-.17,1.38-.5s.57-.78,.63-1.35h-2.28v-.61h3.07v.57c-.04,.47-.19,.9-.44,1.29-.25,.39-.58,.7-.99,.92s-.87,.34-1.37,.34c-.53,0-1.01-.12-1.45-.37-.44-.25-.78-.59-1.04-1.04s-.38-.94-.38-1.5,.13-1.06,.38-1.5c.25-.44,.6-.79,1.04-1.04,.44-.25,.92-.37,1.45-.37,.61,0,1.14,.15,1.61,.45,.47,.3,.81,.72,1.02,1.27h-.89Z"/><path class="cls-1" d="M274.08,73.12v1.91h2.08v.61h-2.08v1.97h2.33v.61h-3.07v-5.72h3.07v.61h-2.33Z"/><path class="cls-1" d="M280.54,78.22l-1.36-2.33h-.9v2.33h-.75v-5.71h1.84c.43,0,.79,.07,1.09,.22s.52,.35,.67,.6c.15,.25,.22,.54,.22,.86,0,.39-.11,.74-.34,1.04-.23,.3-.57,.5-1.02,.6l1.43,2.39h-.89Zm-2.26-2.93h1.1c.4,0,.71-.1,.91-.3,.2-.2,.3-.47,.3-.8s-.1-.6-.3-.79c-.2-.19-.5-.28-.91-.28h-1.1v2.16Z"/><path class="cls-1" d="M283.26,73.12v1.91h2.08v.61h-2.08v1.97h2.33v.61h-3.07v-5.72h3.07v.61h-2.33Zm.71-1.67l-1.14,.7v-.59l1.14-.68,1.13,.68v.59l-1.13-.7Z"/><path class="cls-1" d="M291.21,78.22h-.75l-3-4.54v4.54h-.75v-5.72h.75l3,4.54v-4.54h.75v5.72Z"/><path class="cls-1" d="M292.57,73.86c.25-.44,.59-.79,1.03-1.04,.43-.25,.92-.38,1.45-.38,.62,0,1.17,.15,1.63,.45,.46,.3,.8,.73,1.02,1.28h-.89c-.16-.34-.39-.61-.68-.79-.3-.19-.65-.28-1.07-.28s-.76,.09-1.07,.28c-.32,.19-.56,.45-.75,.79-.18,.34-.27,.74-.27,1.2s.09,.85,.27,1.19c.18,.34,.43,.61,.75,.79,.32,.19,.67,.28,1.07,.28s.77-.09,1.07-.27c.3-.18,.53-.45,.68-.79h.89c-.21,.55-.55,.97-1.02,1.26-.46,.3-1.01,.45-1.63,.45-.53,0-1.01-.12-1.45-.37-.43-.25-.78-.59-1.03-1.04s-.38-.94-.38-1.5,.12-1.06,.38-1.5Z"/><path class="cls-1" d="M299.54,72.51v5.71h-.75v-5.71h.75Z"/><path class="cls-1" d="M304.19,76.95h-2.49l-.46,1.27h-.79l2.06-5.67h.86l2.05,5.67h-.79l-.46-1.27Zm-.21-.61l-1.03-2.88-1.03,2.88h2.06Z"/><path class="cls-1" d="M311.91,72.86c.46,.23,.8,.56,1.05,1,.24,.43,.36,.94,.36,1.52s-.12,1.09-.36,1.52-.59,.76-1.05,.98c-.46,.23-1,.34-1.62,.34h-1.78v-5.71h1.78c.62,0,1.16,.12,1.62,.35Zm.07,4.16c.39-.39,.58-.94,.58-1.64s-.2-1.26-.58-1.66c-.39-.4-.95-.6-1.68-.6h-1.03v4.49h1.03c.74,0,1.3-.2,1.69-.59Z"/><path class="cls-1" d="M315.06,73.12v1.91h2.08v.61h-2.08v1.97h2.33v.61h-3.07v-5.72h3.07v.61h-2.33Z"/><path class="cls-1" d="M324.03,75.36c-.33,.31-.82,.47-1.49,.47h-1.1v2.38h-.75v-5.71h1.84c.64,0,1.13,.16,1.47,.47s.5,.71,.5,1.2-.16,.87-.49,1.18Zm-.57-.41c.2-.18,.29-.44,.29-.77,0-.7-.4-1.06-1.21-1.06h-1.1v2.1h1.1c.41,0,.72-.09,.92-.27Z"/><path class="cls-1" d="M328.44,78.22l-1.36-2.33h-.9v2.33h-.75v-5.71h1.84c.43,0,.79,.07,1.09,.22s.52,.35,.67,.6c.15,.25,.22,.54,.22,.86,0,.39-.11,.74-.34,1.04-.23,.3-.57,.5-1.02,.6l1.43,2.39h-.89Zm-2.26-2.93h1.1c.4,0,.71-.1,.91-.3,.2-.2,.3-.47,.3-.8s-.1-.6-.3-.79c-.2-.19-.5-.28-.91-.28h-1.1v2.16Z"/><path class="cls-1" d="M333.79,76.95h-2.49l-.46,1.27h-.79l2.06-5.67h.86l2.05,5.67h-.79l-.46-1.27Zm-.21-.61l-1.03-2.88-1.03,2.88h2.06Zm-.23-5.07l-1.74,.93v-.56l1.74-1.02v.65Z"/><path class="cls-1" d="M339.45,72.51v.61h-1.56v5.1h-.75v-5.1h-1.56v-.61h3.87Z"/><path class="cls-1" d="M341.11,72.51v5.71h-.75v-5.71h.75Z"/><path class="cls-1" d="M342.48,73.86c.25-.44,.59-.79,1.03-1.04,.43-.25,.92-.38,1.45-.38,.62,0,1.17,.15,1.63,.45,.46,.3,.8,.73,1.02,1.28h-.89c-.16-.34-.39-.61-.68-.79-.3-.19-.65-.28-1.07-.28s-.76,.09-1.07,.28c-.32,.19-.56,.45-.75,.79-.18,.34-.27,.74-.27,1.2s.09,.85,.27,1.19c.18,.34,.43,.61,.75,.79,.32,.19,.67,.28,1.07,.28s.77-.09,1.07-.27c.3-.18,.53-.45,.68-.79h.89c-.21,.55-.55,.97-1.02,1.26-.46,.3-1.01,.45-1.63,.45-.53,0-1.01-.12-1.45-.37-.43-.25-.78-.59-1.03-1.04s-.38-.94-.38-1.5,.12-1.06,.38-1.5Z"/><path class="cls-1" d="M352.08,76.95h-2.49l-.46,1.27h-.79l2.06-5.67h.86l2.05,5.67h-.79l-.46-1.27Zm-.21-.61l-1.03-2.88-1.03,2.88h2.06Z"/><path class="cls-1" d="M355.02,78.08c-.3-.13-.53-.32-.7-.56-.17-.24-.26-.51-.26-.82h.79c.03,.27,.14,.49,.33,.68s.48,.27,.85,.27,.63-.09,.84-.27c.2-.18,.31-.41,.31-.68,0-.22-.06-.4-.18-.53-.12-.14-.27-.24-.45-.31-.18-.07-.42-.15-.73-.23-.38-.1-.68-.2-.91-.29-.23-.1-.42-.25-.58-.46s-.24-.49-.24-.85c0-.31,.08-.59,.24-.83s.38-.43,.67-.56c.29-.13,.62-.2,.99-.2,.54,0,.97,.13,1.31,.4,.34,.27,.53,.62,.58,1.07h-.82c-.03-.22-.14-.41-.34-.58-.2-.17-.47-.25-.8-.25-.31,0-.56,.08-.76,.24-.2,.16-.29,.39-.29,.68,0,.21,.06,.38,.18,.51,.12,.13,.26,.23,.43,.3s.41,.15,.72,.23c.38,.1,.68,.21,.91,.31,.23,.1,.43,.26,.59,.47,.16,.21,.25,.5,.25,.86,0,.28-.07,.54-.22,.79-.15,.25-.37,.44-.66,.6-.29,.15-.63,.23-1.02,.23s-.71-.07-1.01-.2Z"/><path class="cls-1" d="M265.22,82.34v5.71h-.75v-5.71h.75Z"/><path class="cls-1" d="M270.98,88.05h-.75l-3-4.54v4.54h-.75v-5.72h.75l3,4.54v-4.54h.75v5.72Z"/><path class="cls-1" d="M275.76,82.34v.61h-1.56v5.1h-.75v-5.1h-1.56v-.61h3.87Z"/><path class="cls-1" d="M277.42,82.94v1.91h2.08v.61h-2.08v1.97h2.33v.61h-3.07v-5.72h3.07v.61h-2.33Z"/><path class="cls-1" d="M285.2,83.99c-.16-.33-.39-.59-.69-.77-.3-.18-.65-.27-1.05-.27s-.76,.09-1.08,.27c-.32,.18-.57,.45-.75,.79-.18,.34-.27,.74-.27,1.18s.09,.84,.27,1.18c.18,.34,.43,.6,.75,.78,.32,.18,.68,.27,1.08,.27,.56,0,1.02-.17,1.38-.5s.57-.78,.63-1.35h-2.28v-.61h3.07v.57c-.04,.47-.19,.9-.44,1.29-.25,.39-.58,.7-.99,.92s-.87,.34-1.37,.34c-.53,0-1.01-.12-1.45-.37-.44-.25-.78-.59-1.04-1.04s-.38-.94-.38-1.5,.13-1.06,.38-1.5c.25-.44,.6-.79,1.04-1.04,.44-.25,.92-.37,1.45-.37,.61,0,1.14,.15,1.61,.45,.47,.3,.81,.72,1.02,1.27h-.89Z"/><path class="cls-1" d="M290.25,88.05l-1.36-2.33h-.9v2.33h-.75v-5.71h1.84c.43,0,.79,.07,1.09,.22s.52,.35,.67,.6c.15,.25,.22,.54,.22,.86,0,.39-.11,.74-.34,1.04-.23,.3-.57,.5-1.02,.6l1.43,2.39h-.89Zm-2.26-2.93h1.1c.4,0,.71-.1,.91-.3,.2-.2,.3-.47,.3-.8s-.1-.6-.3-.79c-.2-.19-.5-.28-.91-.28h-1.1v2.16Z"/><path class="cls-1" d="M295.6,86.78h-2.49l-.46,1.27h-.79l2.06-5.67h.86l2.05,5.67h-.79l-.46-1.27Zm-.21-.61l-1.03-2.88-1.03,2.88h2.06Z"/><path class="cls-1" d="M301.26,82.34v.61h-1.56v5.1h-.75v-5.1h-1.56v-.61h3.87Z"/><path class="cls-1" d="M302.92,82.34v5.71h-.75v-5.71h.75Z"/><path class="cls-1" d="M308.91,82.34l-2.15,5.71h-.86l-2.15-5.71h.79l1.79,4.92,1.79-4.92h.79Z"/><path class="cls-1" d="M313.1,86.78h-2.49l-.46,1.27h-.79l2.06-5.67h.86l2.05,5.67h-.79l-.46-1.27Zm-.21-.61l-1.03-2.88-1.03,2.88h2.06Z"/><path class="cls-1" d="M316.05,87.9c-.3-.13-.53-.32-.7-.56-.17-.24-.26-.51-.26-.82h.79c.03,.27,.14,.49,.33,.68s.48,.27,.85,.27,.63-.09,.84-.27c.2-.18,.31-.41,.31-.68,0-.22-.06-.4-.18-.53-.12-.14-.27-.24-.45-.31-.18-.07-.42-.15-.73-.23-.38-.1-.68-.2-.91-.29-.23-.1-.42-.25-.58-.46s-.24-.49-.24-.85c0-.31,.08-.59,.24-.83s.38-.43,.67-.56c.29-.13,.62-.2,.99-.2,.54,0,.97,.13,1.31,.4,.34,.27,.53,.62,.58,1.07h-.82c-.03-.22-.14-.41-.34-.58-.2-.17-.47-.25-.8-.25-.31,0-.56,.08-.76,.24-.2,.16-.29,.39-.29,.68,0,.21,.06,.38,.18,.51,.12,.13,.26,.23,.43,.3s.41,.15,.72,.23c.38,.1,.68,.21,.91,.31,.23,.1,.43,.26,.59,.47,.16,.21,.25,.5,.25,.86,0,.28-.07,.54-.22,.79-.15,.25-.37,.44-.66,.6-.29,.15-.63,.23-1.02,.23s-.71-.07-1.01-.2Z"/><path class="cls-1" d="M322.99,82.94v1.91h2.08v.61h-2.08v1.97h2.33v.61h-3.07v-5.72h3.07v.61h-2.33Z"/><path class="cls-1" d="M332.23,82.38v5.67h-.75v-4.23l-1.88,4.23h-.52l-1.89-4.23v4.23h-.75v-5.67h.8l2.1,4.68,2.1-4.68h.79Z"/><path class="cls-1" d="M336.48,87.9c-.3-.13-.53-.32-.7-.56-.17-.24-.26-.51-.26-.82h.79c.03,.27,.14,.49,.33,.68s.48,.27,.85,.27,.63-.09,.84-.27c.2-.18,.31-.41,.31-.68,0-.22-.06-.4-.18-.53-.12-.14-.27-.24-.45-.31-.18-.07-.42-.15-.73-.23-.38-.1-.68-.2-.91-.29-.23-.1-.42-.25-.58-.46s-.24-.49-.24-.85c0-.31,.08-.59,.24-.83s.38-.43,.67-.56c.29-.13,.62-.2,.99-.2,.54,0,.97,.13,1.31,.4,.34,.27,.53,.62,.58,1.07h-.82c-.03-.22-.14-.41-.34-.58-.2-.17-.47-.25-.8-.25-.31,0-.56,.08-.76,.24-.2,.16-.29,.39-.29,.68,0,.21,.06,.38,.18,.51,.12,.13,.26,.23,.43,.3s.41,.15,.72,.23c.38,.1,.68,.21,.91,.31,.23,.1,.43,.26,.59,.47,.16,.21,.25,.5,.25,.86,0,.28-.07,.54-.22,.79-.15,.25-.37,.44-.66,.6-.29,.15-.63,.23-1.02,.23s-.71-.07-1.01-.2Z"/><path class="cls-1" d="M343.86,86.78h-2.49l-.46,1.27h-.79l2.06-5.67h.86l2.05,5.67h-.79l-.46-1.27Zm-.21-.61l-1.03-2.88-1.03,2.88h2.06Z"/><path class="cls-1" d="M346.73,82.34v3.61c0,.51,.12,.88,.37,1.13,.25,.25,.59,.37,1.04,.37s.78-.12,1.03-.37c.25-.25,.37-.62,.37-1.13v-3.61h.75v3.6c0,.47-.1,.88-.29,1.2-.19,.33-.45,.57-.77,.73-.33,.16-.69,.24-1.09,.24s-.77-.08-1.09-.24c-.33-.16-.58-.4-.77-.73-.19-.32-.28-.72-.28-1.2v-3.6h.75Zm2.2-1.24l-1.74,.93v-.56l1.74-1.02v.65Z"/><path class="cls-1" d="M354.93,82.69c.46,.23,.8,.56,1.05,1,.24,.43,.36,.94,.36,1.52s-.12,1.09-.36,1.52-.59,.76-1.05,.98c-.46,.23-1,.34-1.62,.34h-1.78v-5.71h1.78c.62,0,1.16,.12,1.62,.35Zm.07,4.16c.39-.39,.58-.94,.58-1.64s-.2-1.26-.58-1.66c-.39-.4-.95-.6-1.68-.6h-1.03v4.49h1.03c.74,0,1.3-.2,1.69-.59Z"/><path class="cls-1" d="M358.07,82.94v1.91h2.08v.61h-2.08v1.97h2.33v.61h-3.07v-5.72h3.07v.61h-2.33Z"/></g></svg>