<?xml version="1.0" encoding="UTF-8"?><svg id="Objects" xmlns="http://www.w3.org/2000/svg" viewBox="0 0 168.08 166.11"><defs><style>.cls-1{fill:#f65690;}.cls-2{fill:#eb3677;}.cls-3{fill:#fff;}.cls-4{fill:#ececec;}.cls-5{fill:#fafafa;}.cls-6{fill:#ff735d;}.cls-7{fill:#df6c57;}.cls-8{fill:#e1e1e1;}.cls-9{fill:#a94c3c;}.cls-10{fill:#375a64;}.cls-11{fill:#1a2e35;}.cls-12{opacity:.2;}.cls-13{opacity:.3;}</style></defs><g><g><g><path class="cls-4" d="M38.32,88.24c.06-10.89,7.19-17.86,7.19-17.86,2.17,8.96-7.19,17.86-7.19,17.86Z"/><path class="cls-4" d="M48.76,83.18c10.02-4.29,19.24-.53,19.24-.53-7.35,5.57-19.24,.53-19.24,.53Z"/><path class="cls-4" d="M49.95,77.38c-1.74-8.42,2.62-14.96,2.62-14.96,3.15,6.56-2.62,14.96-2.62,14.96Z"/><path class="cls-4" d="M9.59,56.43c15.26,4.06,23.44,17.33,23.44,17.33-13.04,0-23.44-17.33-23.44-17.33Z"/><path class="cls-4" d="M33.96,62.68c-.79-16.45,15.28-35.06,15.28-35.06-2.43,20.42-15.28,35.06-15.28,35.06"/><path class="cls-4" d="M33.88,15.84c.68,13.34-5.78,23.56-5.78,23.56-2.27-10.58,5.78-23.56,5.78-23.56Z"/><path class="cls-4" d="M27.68,49.26c-12.02-1.29-18.57-13.25-18.57-13.25,14.54,4.07,18.57,13.25,18.57,13.25Z"/><path class="cls-4" d="M1.75,99.53c9.19-5.85,18.9-3.64,18.9-3.64-6.35,6.68-18.9,3.64-18.9,3.64Z"/><path class="cls-4" d="M32.9,104.93c-2.28,6.29-8.08,9.1-8.08,9.1,.51-5.55,8.08-9.1,8.08-9.1Z"/><path class="cls-4" d="M31.36,103.16c-6.84,4.21-14.38,2.57-14.38,2.57,4.63-4.82,14.38-2.57,14.38-2.57Z"/><path class="cls-8" d="M37.51,125.3s-.02-.08-.02-.24c0-.19,0-.43-.02-.72,0-.68,0-1.6,0-2.76,.01-1.2,.01-2.66-.02-4.36-.03-1.7-.03-3.63-.12-5.77-.1-4.28-.41-9.36-.84-15-.49-5.63-1.17-11.81-2.11-18.27-1.9-12.92-4.5-24.46-6.58-32.75-1.05-4.15-1.94-7.49-2.58-9.8-.3-1.12-.54-2.01-.72-2.66-.07-.28-.13-.51-.17-.7-.04-.16-.05-.24-.04-.24,0,0,.04,.07,.09,.23l.23,.68c.2,.65,.47,1.52,.82,2.63,.71,2.29,1.65,5.62,2.75,9.76,2.18,8.28,4.84,19.83,6.75,32.77,.94,6.47,1.61,12.66,2.08,18.31,.41,5.65,.68,10.74,.73,15.03,.07,2.14,.04,4.08,.04,5.78,0,1.7-.02,3.17-.07,4.36-.04,1.16-.07,2.08-.1,2.76-.02,.29-.03,.52-.04,.72-.01,.16-.02,.24-.03,.24Z"/><path class="cls-8" d="M15.44,90.49c.08-.12,4.94,3.06,10.85,7.11,5.91,4.05,10.63,7.44,10.55,7.56-.08,.12-4.94-3.06-10.85-7.11-5.91-4.05-10.63-7.44-10.55-7.56Z"/><path class="cls-8" d="M36.84,92.24s.24-.32,.75-.82c.6-.57,1.32-1.27,2.16-2.08,1.95-1.83,4.45-4.18,7.23-6.78,2.77-2.6,5.28-4.95,7.23-6.78,.86-.8,1.59-1.49,2.19-2.05,.52-.48,.82-.73,.85-.71,.03,.03-.22,.33-.7,.86-.47,.53-1.19,1.27-2.07,2.18-1.78,1.81-4.3,4.25-7.13,6.9-2.83,2.64-5.43,4.99-7.34,6.67-.95,.84-1.73,1.51-2.28,1.96-.55,.45-.86,.69-.89,.66Z"/><path class="cls-4" d="M0,82.7s12.43-.24,17.68,9.54c0,0-10.6,.35-17.68-9.54Z"/><path class="cls-4" d="M16.97,77.71s10.12,7.22,8.51,18.2c0,0-8.72-6.04-8.51-18.2Z"/><path class="cls-4" d="M70.26,59.92s-3.99,13.91-16.68,16.41c0,0,3.24-11.92,16.68-16.41Z"/><path class="cls-4" d="M11.45,8.21s15.85,10.34,14.1,27.16c0,0-13.65-8.64-14.1-27.16Z"/></g><path class="cls-8" d="M64.22,100.2s-.35,.32-1.03,.83c-.69,.5-1.66,1.24-2.84,2.17-2.37,1.87-5.5,4.64-8.58,8.07-3.08,3.43-5.49,6.85-7.1,9.4-.81,1.28-1.44,2.33-1.86,3.06-.43,.73-.68,1.13-.71,1.11-.03-.02,.16-.45,.53-1.21,.36-.77,.95-1.85,1.72-3.16,1.53-2.62,3.92-6.1,7.02-9.56,3.11-3.45,6.31-6.2,8.75-8.01,1.22-.91,2.23-1.6,2.96-2.05,.72-.45,1.13-.68,1.15-.65Z"/><path class="cls-4" d="M50.42,110.53c-2.02-10.71,3.64-18.9,3.64-18.9,1.7,11.79-3.64,18.9-3.64,18.9Z"/><path class="cls-4" d="M61.09,104.71c6.83-4.01,13.84-2.14,13.84-2.14-7.65,4.06-13.84,2.14-13.84,2.14Z"/></g><g><polygon class="cls-4" points="14.39 126.59 20.34 165.68 54.89 165.68 62.91 127.16 14.39 126.59"/><g><path class="cls-5" d="M58.08,151.64c0,.11-8.85,.2-19.77,.2s-19.78-.09-19.78-.2,8.85-.2,19.78-.2,19.77,.09,19.77,.2Z"/><path class="cls-5" d="M58.22,149.72c0,.11-8.91,.2-19.91,.2s-19.91-.09-19.91-.2,8.91-.2,19.91-.2,19.91,.09,19.91,.2Z"/><path class="cls-5" d="M58.15,147.55c0,.11-8.91,.2-19.91,.2s-19.91-.09-19.91-.2,8.91-.2,19.91-.2,19.91,.09,19.91,.2Z"/><path class="cls-5" d="M24.31,163.45c-.11,.02-.59-2.18-1.06-4.92-.48-2.74-.77-4.97-.66-4.99,.11-.02,.58,2.18,1.06,4.92,.47,2.74,.77,4.97,.66,4.99Z"/><path class="cls-5" d="M26.66,163.04c-.11,0-.25-2.15-.43-4.8-.18-2.65-.34-4.8-.23-4.82,.11-.01,.45,2.13,.63,4.79,.18,2.66,.13,4.83,.02,4.83Z"/><path class="cls-5" d="M30.94,163.03c-.11,.02-.58-2.18-.9-4.92-.32-2.75-.37-4.99-.26-5,.11,0,.34,2.22,.67,4.95,.32,2.73,.61,4.95,.5,4.97Z"/><path class="cls-5" d="M33.95,163.24c-.11,0-.39-2.23-.48-5-.09-2.78,.04-5.03,.15-5.02,.11,0,.16,2.25,.25,5.01,.09,2.76,.19,5.01,.07,5.02Z"/><path class="cls-5" d="M39.27,163.04c-.11,0-.27-2.12-.36-4.75-.09-2.63-.07-4.76,.04-4.76,.11,0,.27,2.12,.36,4.75,.09,2.63,.07,4.76-.04,4.76Z"/><path class="cls-5" d="M43.16,163.24c-.11,0-.18-2.2-.16-4.91,.02-2.71,.13-4.91,.24-4.91,.11,0,.18,2.2,.16,4.91-.02,2.71-.13,4.91-.24,4.91Z"/><path class="cls-5" d="M46.81,162.72c-.11-.01,.02-2.31,.29-5.13,.27-2.82,.59-5.11,.7-5.09,.11,.01-.02,2.31-.29,5.13-.27,2.82-.59,5.1-.7,5.09Z"/><path class="cls-5" d="M51.51,162.21c-.11-.01,.06-1.99,.58-4.37,.52-2.38,1.18-4.25,1.28-4.21,.11,.03-.38,1.94-.89,4.3-.52,2.36-.86,4.29-.98,4.28Z"/></g><path class="cls-4" d="M10.43,118.85v7.31c0,1.59,1.29,2.88,2.88,2.88H63.34c1.59,0,2.88-1.29,2.88-2.88v-7.31H10.43Z"/><polygon class="cls-8" points="14.76 129.05 15.18 131.38 61.35 134.67 62.52 129.05 14.76 129.05"/></g></g><g><path class="cls-1" d="M154.41,109.64c0,32.58-28.45,56.46-67.76,56.46-24.97,0-41.7-9.34-53.86-29.75l22.58-32.36c7.82,12.81,18.24,19.55,30.19,19.55s20.85-8.04,21.07-19.33c.22-10.86-7.82-19.76-18.68-19.76-7.17,0-12.81,1.52-20.63,6.73l-11.08-28.45,31.71-26.06-51.03,.65V-.24l111.41-.22,.87,36.27-29.54,19.98c19.33,7.17,34.75,29.75,34.75,53.86Z"/><g><path class="cls-2" d="M110.58,100.31c.22-10.86-7.82-19.76-18.68-19.76-7.17,0-12.81,1.52-20.63,6.73l-10.88-27.95-4.14,3.4,11.08,28.45c7.82-5.21,13.46-6.73,20.63-6.73,10.86,0,18.89,8.9,18.68,19.76-.08,4.36-1.44,8.22-3.76,11.33,4.7-3.44,7.58-8.81,7.7-15.24Z"/><path class="cls-2" d="M90.6,162.2c-24.97,0-41.7-9.34-53.86-29.75l19.22-27.54c-.19-.31-.39-.6-.58-.91l-22.58,32.36c12.16,20.41,28.88,29.75,53.86,29.75,22.86,0,42.04-8.09,54.1-21.27-12.1,10.85-29.64,17.36-50.15,17.36Z"/><polygon class="cls-2" points="91.84 32.77 40.74 33.42 40.74 -.25 36.65 -.24 36.65 37.33 86.97 36.69 91.84 32.77"/></g></g><g><g><g><g><path class="cls-10" d="M130.6,145.26l-9.42,8.61,10.66,11.77c1.06-1.09-2.19-9.22-2.19-9.22l5.88-5.69-4.93-5.48Z"/><path class="cls-3" d="M126.86,152.33c-.27-.17-.67-.1-.85,.16-.18,.26-.11,.67,.16,.84,.27,.18,.75,.1,.9-.18,.15-.28,.04-.75-.26-.86"/><path class="cls-11" d="M121.18,153.88l.98-.91,9.82,11.71s.24,.73-.18,1l-10.62-11.81Z"/><path class="cls-3" d="M129.88,156.56c-.06,.05-.35-.21-.79-.33-.44-.13-.82-.05-.84-.12-.04-.06,.38-.29,.92-.14,.53,.14,.78,.55,.71,.59Z"/><path class="cls-3" d="M130.49,158.26c-.04,.06-.37-.1-.79-.07-.42,.01-.73,.2-.78,.14-.06-.05,.22-.39,.74-.41,.52-.03,.88,.29,.83,.34Z"/><path class="cls-3" d="M129.65,160.3c-.07-.05,.1-.36,.6-.52,.45-.14,.82,.02,.79,.09-.02,.08-.34,.05-.71,.17-.37,.11-.63,.31-.68,.26Z"/><path class="cls-3" d="M131.17,155.2c-.07,.02-.23-.31-.55-.62-.31-.31-.65-.47-.63-.54,.01-.07,.45-.02,.81,.35,.37,.36,.43,.8,.36,.81Z"/><path class="cls-3" d="M132.32,153.66s-.26-.17-.53-.59c-.13-.21-.27-.48-.37-.79-.05-.16-.09-.32-.13-.5-.01-.09-.04-.18-.02-.3,0-.12,.12-.29,.28-.3,.15-.02,.28,.05,.36,.13,.08,.08,.13,.17,.17,.25,.09,.16,.15,.32,.21,.48,.1,.32,.14,.62,.14,.87,0,.5-.14,.79-.16,.78-.04,0,.02-.3-.03-.77-.02-.23-.07-.51-.18-.79-.05-.14-.12-.29-.2-.43-.08-.15-.18-.26-.26-.24-.03,0-.04,.01-.05,.07,0,.06,0,.14,.02,.22,.03,.17,.06,.32,.1,.47,.08,.3,.19,.56,.3,.77,.21,.42,.4,.66,.36,.69Z"/><path class="cls-3" d="M132.17,153.66s.08-.31,.43-.67c.18-.18,.42-.36,.72-.5,.15-.07,.32-.13,.49-.17,.18-.04,.41-.09,.64,.11,.11,.11,.11,.29,.06,.4-.04,.11-.11,.18-.16,.26-.12,.15-.26,.27-.4,.36-.28,.19-.59,.28-.84,.3-.51,.05-.8-.13-.78-.15,.01-.05,.3,.05,.76-.03,.22-.04,.48-.14,.72-.31,.12-.09,.23-.19,.33-.32,.11-.13,.17-.27,.11-.31-.05-.06-.24-.07-.38-.03-.16,.04-.31,.08-.45,.14-.28,.12-.51,.27-.69,.42-.36,.3-.52,.55-.56,.53Z"/></g><g><path class="cls-10" d="M128.33,153.56l.12,12.76,15.88-.07c-.1-1.52-8.33-4.53-8.33-4.53l.26-8.18h-7.93Z"/><path class="cls-3" d="M131.09,161.06c-.31,.09-.52,.43-.45,.74s.42,.53,.73,.45c.31-.08,.57-.49,.47-.79-.11-.3-.53-.53-.81-.38"/><path class="cls-11" d="M128.45,166.35l-.02-1.37,15.27,.52s.71,.31,.63,.81l-15.88,.04Z"/><path class="cls-11" d="M136.26,161.65c0,.08-.39,.11-.77,.37-.39,.24-.58,.58-.65,.55-.07-.01,.04-.48,.51-.77,.46-.3,.93-.21,.92-.14Z"/><path class="cls-11" d="M137.93,162.33c.02,.08-.32,.21-.58,.54-.27,.32-.34,.68-.41,.67-.07,.01-.13-.44,.2-.84,.33-.41,.79-.44,.79-.37Z"/><path class="cls-11" d="M138.88,164.32c-.07,.02-.18-.37,.02-.8,.19-.43,.56-.6,.59-.53,.04,.06-.19,.29-.35,.64-.16,.35-.19,.68-.26,.68Z"/><path class="cls-11" d="M136.11,159.78c-.03,.07-.39-.03-.83,0-.44,.02-.78,.17-.82,.11-.05-.06,.29-.34,.8-.37,.52-.03,.88,.21,.84,.27Z"/></g><g><g><path class="cls-11" d="M127.96,80.74s-1.01,3.56-1.13,3.82c-1.04,2.31-3.79,8.01-3.79,8.01,0,0-2.09,7.43-1.62,10.93,.47,3.5,3.6,27.45,3.6,27.45,0,0-.62,18.99,2.06,27.44l.49,2.24,8.95-1.59h0l1.98-47,5.46-31.08-16-.22Z"/><path class="cls-11" d="M150.3,85.01s3.94,32.01,4.41,37.13c.47,5.12-18.1,32.41-18.1,32.41l-7.84-9.26,11.96-22.23-4.03-22.14,5.3-19.98,7.54,.09,.76,3.98Z"/></g><path class="cls-10" d="M125.7,151.22s0,.23,.06,.65c.05,.43,.16,1.05,.31,1.87,.3,1.62,.78,3.97,1.43,6.91v.06h.08c2.53-.45,5.57-.99,8.96-1.58h.07v-.08c.25-6.14,.55-13.49,.87-21.36,.33-8.47,.64-16.33,.89-22.78h0c.67-5.17,1.23-9.45,1.61-12.45,.19-1.49,.33-2.66,.44-3.46,.05-.39,.08-.7,.11-.91,.02-.21,.03-.31,.03-.31,0,0-.02,.1-.05,.31l-.13,.91c-.11,.8-.27,1.97-.48,3.46-.41,2.99-.98,7.27-1.69,12.45h0c-.26,6.45-.58,14.31-.92,22.78-.31,7.88-.59,15.22-.83,21.37l.07-.08c-3.39,.61-6.42,1.15-8.95,1.61l.08,.05c-.67-2.93-1.17-5.28-1.49-6.9-.16-.81-.28-1.43-.34-1.86-.04-.21-.06-.37-.07-.48-.02-.11-.03-.16-.03-.16Z"/></g></g><g><g><path class="cls-11" d="M149.15,22.57s1.98,7.39,2.15,12.62l.06,1.74s-4.36,3.62-8.02,3.85l-3.07-7.54,8.89-10.67Z"/><g><g><g><path class="cls-11" d="M129.77,27.11c.83-3.61,1.15-7.8,4.15-10.15,2.23-1.74,4.76-2.23,7.59-2.11,1.39,.06,2.96,.7,4.17,1.39,1.66,.94,2.36,2.85,3.17,4.58,1.61,3.47,1.4,8.17,.31,9.48l-14.5,7.66c-2.9-1.51-4.71-2.11-5.17-5.97-.19-1.62-.08-3.27,.29-4.87Z"/><g><path class="cls-7" d="M134.26,19.82l9.13-2.69c2.94-.43,5.05,3.13,5.35,6.09,.34,3.28,.62,7.31,.33,9.78-.59,4.97-4.35,5.75-4.35,5.75,0-.02,0,.07,.02,1.54l.1,2.38c.04,.96-.22,1.93-.8,2.69-1.35,1.74-3.8,1.98-6.69,.91-1.68-.62-2.84-1.87-2.97-3.57l-1.59-21.05c-.05-.9,.59-1.69,1.49-1.82Z"/><path class="cls-11" d="M147.34,28.21c.03,.33-.24,.63-.59,.66-.35,.03-.65-.21-.68-.55-.02-.33,.24-.63,.58-.66,.35-.03,.65,.21,.68,.55Z"/><path class="cls-11" d="M147.95,26.19c-.08,.09-.57-.25-1.25-.22-.68,.02-1.17,.39-1.25,.31-.04-.04,.04-.19,.25-.35,.21-.17,.57-.33,.99-.35,.42-.01,.79,.13,1,.28,.22,.15,.29,.3,.26,.34Z"/><path class="cls-11" d="M141.21,28.32c.03,.33-.24,.63-.59,.66-.35,.03-.65-.21-.68-.55-.02-.33,.24-.63,.59-.66,.35-.03,.65,.21,.68,.55Z"/><path class="cls-11" d="M141.25,26.27c-.08,.09-.57-.25-1.25-.22-.68,.02-1.17,.39-1.25,.31-.04-.04,.04-.19,.25-.35,.21-.17,.57-.33,.99-.35,.42-.01,.79,.13,1,.28,.22,.15,.29,.3,.26,.34Z"/><path class="cls-11" d="M143.9,30.69s.42-.13,1.1-.24c.17-.02,.34-.07,.36-.19,.04-.13-.04-.31-.14-.51-.18-.41-.37-.85-.57-1.31-.79-1.86-1.37-3.39-1.29-3.42,.08-.03,.78,1.45,1.57,3.31,.19,.46,.37,.9,.55,1.31,.07,.2,.2,.42,.12,.68-.04,.13-.17,.23-.28,.27-.11,.04-.21,.04-.29,.05-.69,.06-1.12,.08-1.12,.05Z"/><path class="cls-9" d="M144.69,38.74s-3.45,.35-6.82-1.5c0,0,1.92,3.48,6.84,2.82l-.02-1.32Z"/><path class="cls-9" d="M141.7,32.05c.18-.33,.53-.51,.89-.53,.52-.04,.97,.12,1.32,.59,.12,.13,.13,.53,.08,.64-.04,.11,0,.06-.09,.13-.29,.28-.61,.56-.99,.67-.39,.11-.87,0-1.15-.37-.24-.33-.25-.81-.07-1.13Z"/><path class="cls-11" d="M141.79,31.27c.11-.01,.15,.73,.8,1.22,.66,.5,1.44,.38,1.45,.48,.01,.05-.17,.15-.5,.18-.33,.03-.81-.06-1.21-.36-.4-.3-.59-.73-.63-1.03-.04-.31,.03-.49,.08-.49Z"/><path class="cls-11" d="M141.51,23.78c-.05,.19-.74,.17-1.52,.34-.79,.16-1.41,.45-1.53,.3-.05-.07,.04-.26,.28-.46,.24-.2,.63-.41,1.11-.51,.47-.1,.92-.07,1.22,.02,.3,.09,.47,.22,.44,.31Z"/><path class="cls-11" d="M147.9,24.36c-.15,.13-.65-.1-1.28-.2-.62-.12-1.17-.06-1.27-.24-.04-.09,.06-.23,.32-.34,.25-.11,.65-.17,1.07-.1,.43,.07,.78,.27,.97,.46,.2,.19,.25,.36,.18,.42Z"/></g></g><path class="cls-11" d="M143.24,16.6s.02,.07,.02,.11h-.02v-.11Z"/></g><path class="cls-11" d="M136.86,40.74c-.14-1.3,.38-2.6,.23-3.89-.16-1.37-1.05-2.55-1.41-3.88-.58-2.13,.22-4.4,.51-6.61,1.24-.15,2.39-.89,3.21-1.85,.99-1.16,1.59-2.59,2.17-3.99-.03,1.38-.51,2.74-1.34,3.84,.55,.11,1.13-.12,1.54-.5,.41-.38,.68-.89,.9-1.4,.54-1.25,.83-2.6,.88-3.95,.18,1.94-.03,3.92-.65,5.77,.35-.11,.72-.01,1.07,.04,.36,.05,.77,.04,1.02-.22,.17-.17,.23-.42,.28-.66,.34-1.65,.4-3.36,.16-5.03,.44,.9,.88,1.82,1.13,2.79,.26,.97,.32,2.02,.02,2.97,.14,.18,.44,.15,.61,0,.17-.16,.23-.39,.27-.62,.13-.83-.02-1.68-.16-2.5,.49,.88,.66,1.89,.93,2.86,.27,.97,.71,1.96,1.55,2.51,.15-1.45,.09-2.44-.12-3.79-.17-1.04-.66-2.06-1.11-3.01-.51-1.06-1.21-2.1-2-2.79-1.46-1.28-2.06-.73-2.99-.24l-.11,.05s0-.05,0-.07l-.04-.2c-2.42-.54-4.99-.43-7.34,.34-1.75,.57-3.91,2.37-4.8,3.99l-.05,.09c-2.07,3.73-3.43,8.05-3.53,17.4h0l9.18,2.56Z"/></g></g><g><path class="cls-6" d="M135.12,41.01s5.35,4.05,7.96,3.59c2.09-.37,1.88-3.59,1.88-3.59l.87,2.24,2.19,8.76-.93,4.12-4.97-3.07-6.99-12.05Z"/><path class="cls-8" d="M153.37,57.92c-.56-5.62-7.5-15.34-7.5-15.34l-.89-1.65,.89,4.69s1.08,6.97,1.24,7.11c0,0-6.12-5.76-6.12-5.76l-7.02-7.23-1.22,2.05-5.6,3.12,.14,18.6,2.16,5.41s-7.16,16.17-7.99,22.2l-2.38,32.45h24.22l3.9-22.55,1.79,22.55,7.21-.83c.33,.22-3.17-36.53-3.32-40.6-.14-3.72-1.1-12.77-1.1-12.77,0,0,2.16-5.8,1.6-11.42Z"/><path class="cls-8" d="M146.88,44.18s2.58,1.1,3.42,2.41c.84,1.32,1.4,7.04,1.4,7.04l-4.09-6.9-.73-2.56Z"/><path class="cls-11" d="M146.88,44.18s0,.07,0,.21c.01,.15,.03,.35,.04,.61,.05,.54,.11,1.31,.19,2.28v.02h.02l.69,.41-.03-.05c-.12,1.59-.27,3.62-.44,5.92l.1-.07c-1.7-.61-3.56-1.29-5.5-1.99-.6-.21-1.18-.43-1.76-.63l.05,.09c.09-.6,.17-1.19,.26-1.77l.02-.13-.12,.04c-.72,.26-1.42,.51-2.1,.74l.09,.03c-1.65-2.35-3.06-4.35-4.06-5.78-.5-.7-.89-1.25-1.17-1.65l-.32-.43c-.07-.1-.11-.15-.12-.15,0,0,.03,.06,.1,.16l.3,.45c.27,.4,.66,.96,1.14,1.67,.99,1.44,2.39,3.45,4.02,5.81l.03,.05,.05-.02c.67-.24,1.38-.48,2.1-.74l-.1-.09c-.08,.58-.17,1.17-.26,1.77v.06l.05,.02c.58,.21,1.16,.42,1.76,.63,1.95,.7,3.81,1.37,5.51,1.98l.09,.03v-.1c.16-2.3,.29-4.33,.4-5.93v-.03l-.03-.02c-.25-.14-.48-.27-.7-.39l.02,.04c-.1-.96-.18-1.73-.23-2.27l-.07-.6c-.02-.14-.03-.21-.03-.21Z"/><g class="cls-12"><polygon points="138.35 49.94 140.07 49.88 139.71 51.62 147.45 53.59 140.19 50.97 140.44 49.19 138.35 49.94"/></g></g><path class="cls-11" d="M140.97,85.97s-.13,.11-.38,.28c-.12,.09-.28,.19-.47,.3-.19,.11-.4,.24-.64,.35-.24,.12-.51,.25-.81,.37-.29,.13-.62,.23-.96,.35-.69,.21-1.47,.38-2.29,.47-.83,.08-1.62,.07-2.34,0-.36-.04-.7-.08-1.01-.15-.32-.05-.61-.13-.87-.2-.27-.06-.5-.15-.7-.22-.21-.06-.38-.13-.52-.2-.28-.12-.43-.19-.43-.2,0,0,.16,.04,.45,.15,.14,.05,.32,.12,.52,.17,.21,.06,.44,.14,.7,.19,.26,.06,.55,.13,.86,.18,.31,.06,.65,.09,1,.13,.71,.05,1.5,.06,2.31-.02,.82-.09,1.59-.26,2.27-.45,.34-.11,.66-.21,.96-.33,.3-.11,.57-.23,.81-.35,.25-.11,.46-.23,.65-.33,.19-.1,.35-.19,.48-.27,.26-.16,.4-.24,.41-.23Z"/><path class="cls-11" d="M129.36,86.42s0,.04,.02,.11l.03,.31c.03,.28,.07,.68,.12,1.2,.1,1.05,.23,2.56,.4,4.41,.03,.46,.19,.93,.37,1.4,.19,.47,.39,.97,.76,1.37,.35,.41,.85,.71,1.41,.84,.28,.07,.57,.1,.87,.12,.3,.02,.6,.04,.91,.05,.62,.02,1.25,.01,1.89-.06,.64-.07,1.28-.21,1.9-.47,.62-.25,1.18-.64,1.64-1.15,.45-.51,.77-1.15,.98-1.82,.28-.92,.36-1.88,.37-2.8,0-.93-.06-1.84-.1-2.73-.09-1.77-.14-3.45-.11-4.98l.09,.05c-1.32,.77-2.65,1.25-3.86,1.51-1.21,.27-2.29,.33-3.18,.32-.89-.02-1.58-.12-2.04-.2-.23-.04-.41-.09-.53-.11l-.13-.03s-.05-.01-.04-.01,.02,0,.05,0l.14,.02c.12,.02,.3,.06,.53,.09,.47,.07,1.16,.16,2.04,.17,.88,0,1.96-.06,3.15-.34,1.2-.27,2.51-.75,3.82-1.51l.09-.05v.11c-.03,1.53,.03,3.2,.12,4.97,.04,.89,.1,1.8,.1,2.73,0,.94-.09,1.9-.37,2.84-.21,.69-.54,1.34-1.01,1.87-.47,.52-1.06,.93-1.69,1.18-.63,.27-1.29,.41-1.93,.48-.65,.07-1.29,.08-1.91,.06-.31-.01-.62-.03-.92-.05-.3-.02-.6-.05-.89-.13-.58-.14-1.1-.46-1.47-.88-.38-.42-.58-.93-.77-1.4-.18-.48-.33-.95-.37-1.43-.15-1.86-.27-3.37-.36-4.42l-.09-1.2-.02-.31c0-.07,0-.11,0-.11Z"/><path class="cls-11" d="M147.2,98.67s0-.04,0-.12v-.34l.04-1.31c.04-1.14,.09-2.78,.15-4.81,.14-4.07,.34-9.67,.56-15.86,.11-3.1,.23-6.05,.26-8.73,.04-2.68,0-5.1-.1-7.13-.1-2.03-.26-3.66-.39-4.79-.06-.56-.13-1-.16-1.3l-.04-.34c0-.08-.01-.12,0-.12,0,0,.01,.04,.02,.11l.05,.34c.04,.3,.12,.73,.19,1.29,.15,1.13,.32,2.76,.44,4.79,.11,2.03,.17,4.45,.13,7.14-.03,2.69-.14,5.64-.25,8.74-.23,6.19-.45,11.8-.6,15.86-.08,2.02-.15,3.66-.2,4.81-.03,.56-.05,1-.06,1.31l-.02,.34c0,.08,0,.12-.01,.12Z"/><g><g><g><path class="cls-10" d="M134.22,48.88l.42-.18s-.95-2.27-1.87-4.66c-.37-.95-.5-1.73-.39-2.34,.09-.53,.37-.87,.92-.87l.29-.48c-.81-.17-1.53,.53-1.66,1.28-.12,.69,.02,1.56,.42,2.59,.93,2.39,1.87,4.64,1.87,4.67Z"/><path class="cls-10" d="M133.55,54.14l.58-.22c-.47-1.22-1.12-3.39-.84-4,.17-.37,.66-.69,1.24-.82,.69-.15,1.35-.02,1.82,.37,.66,.56,1.66,2.54,1.99,3.26l.56-.26c-.05-.11-1.25-2.71-2.16-3.47-.61-.52-1.47-.7-2.35-.5-.78,.17-1.42,.62-1.67,1.17-.47,1.02,.61,3.91,.83,4.48Z"/><path class="cls-11" d="M139.8,63.58c.72,0,1.42-.38,2.09-1.14l-.23-.21c-.74,.84-1.51,1.17-2.27,.99-3.1-.73-5.45-9.33-5.48-9.42l-.3,.08c.1,.36,2.43,8.87,5.7,9.64,.16,.04,.32,.06,.48,.06Z"/></g><path class="cls-11" d="M141.3,62.79h0c.13,.13,.34,.14,.48,.03l.67-.5c.21-.14,.26-.41,.13-.62h0c-.16-.23-.49-.27-.68-.07l-.6,.63c-.14,.15-.14,.38,0,.52Z"/><g><path class="cls-11" d="M138.48,63.86c.96,0,1.66-.32,2.11-.94,1.9-2.67-1.68-10.08-1.84-10.39l-.28,.14c.04,.08,3.66,7.56,1.86,10.08-.47,.66-1.29,.92-2.45,.77l-.04,.31c.22,.03,.43,.04,.63,.04Z"/><path class="cls-11" d="M138.54,63.69h0c-.01,.18-.16,.33-.34,.34l-.83,.07c-.24,.03-.47-.14-.5-.38h0c-.04-.28,.19-.52,.47-.5l.87,.07c.2,.02,.35,.19,.34,.4Z"/></g></g><g><path class="cls-10" d="M152.47,54.23l.51-.09c-.2-.4-5.12-9.86-5.41-10.28-.05-.07-.11-.18-.18-.29-.14-.23-.31-.51-.48-.72-.48-.6-1.02-1.17-1.63-1.35l.4,.72c.37,.15,.44,.38,.87,.91,.15,.19,.31,.46,.44,.67,.07,.12,.14,.23,.2,.31,.23,.33,3.88,7.41,5.27,10.11Z"/><g><path class="cls-11" d="M151.11,56.45c0,1.37,1.11,2.48,2.48,2.48s2.48-1.11,2.48-2.48-1.11-2.48-2.48-2.48-2.48,1.11-2.48,2.48Z"/><path class="cls-11" d="M151.11,56.45c0,1.37,1.11,2.48,2.48,2.48s2.48-1.11,2.48-2.48-1.11-2.48-2.48-2.48-2.48,1.11-2.48,2.48Z"/><path class="cls-8" d="M151.8,56.45c0,.99,.8,1.8,1.8,1.8s1.8-.8,1.8-1.8-.8-1.8-1.8-1.8-1.8,.8-1.8,1.8Z"/></g></g></g></g></g><g><g><polygon class="cls-10" points="156.64 59.64 140.72 76.07 141.33 76.7 152.73 75.41 168.08 60.79 168.06 60.09 156.64 59.64"/><g class="cls-13"><path d="M159.62,67.3c-.73-.7-1.78-1.02-2.79-.94-1.01,.08-1.97,.53-2.76,1.16-.63,.51-1.19,1.17-1.37,1.96-.32,1.38,.81,3.31,2.07,3.98h0c1.59-1.28,3.13-3.23,4.72-4.51,.24-.19,.49-.41,.55-.7,.07-.36-.16-.71-.42-.96Z"/></g><path class="cls-11" d="M168.02,60.76s-.07,0-.21,.01h-.61c-.55,0-1.32-.01-2.28-.03-1.97-.04-4.72-.09-7.93-.15l.07-.03c-1.23,1.28-2.58,2.68-3.99,4.14-3.22,3.32-6.14,6.32-8.27,8.51-1.05,1.07-1.91,1.94-2.52,2.56-.29,.29-.52,.52-.69,.69-.16,.16-.25,.24-.25,.23,0,0,.07-.09,.22-.26,.16-.18,.39-.42,.67-.72,.6-.63,1.44-1.52,2.48-2.61,2.12-2.2,5.02-5.22,8.22-8.55,1.41-1.46,2.76-2.85,4-4.13l.03-.03h.04c3.21,.09,5.96,.17,7.93,.23,.96,.03,1.73,.06,2.28,.08,.25,.01,.45,.02,.61,.03,.14,0,.21,.02,.21,.02Z"/></g><g><path class="cls-7" d="M158.05,65.58s1.54,.03,2.05,.28c.5,.25,1.89,1.73,1.89,1.73,0,0,0,1-.4,1.04,0,0,.04,.12,.08,.68,.04,.56,.12,.88-.64,1.36,0,0,.08,.92-.2,1.16-.28,.24-.6,.44-.6,.44,0,0-.04,1.02-1.4,1l-1.28,.56s-2.84-.27-2.54-.6c.3-.33,.98-2,.98-2,0,0-1.94-1.42-1.9-1.86,.04-.44,.2-.48,.2-.48,0,0-.08-.84,.6-.92,0,0,.52-1.04,1.04-1.08,.52-.04,4.05,1.24,4.05,1.24l-1.32-1.12s-1.32-.2-1.28-.64c.04-.44,.68-.8,.68-.8Z"/><path class="cls-9" d="M157.82,70.87c-.03,.05-.8-.4-1.79-.87-.99-.48-1.81-.81-1.79-.86,.02-.05,.89,.19,1.89,.67,1,.48,1.73,1.01,1.7,1.06Z"/><path class="cls-9" d="M159.66,69.64c-.02,.05-1.05-.28-2.3-.75-1.25-.47-2.25-.89-2.23-.94,.02-.05,1.05,.28,2.3,.75,1.25,.47,2.25,.89,2.23,.94Z"/></g></g><path class="cls-7" d="M137.73,79.46s2.11,2.44,2.13,3.24c0,0-3.49,1.93-8.02,1.17l5.89-4.4Z"/><g><path class="cls-8" d="M127.14,44.9s-3.33,1.86-4.91,7.6c-1.69,6.15-6.12,19.76-4.14,21.91s13.74,9.45,13.74,9.45l6.87-5.13-10.88-8.71,3.46-13.09"/><path class="cls-11" d="M131.28,56.93s-.01,.08-.05,.23l-.17,.68c-.15,.61-.38,1.48-.67,2.61-.59,2.27-1.44,5.55-2.5,9.59l-.03-.08c3.08,2.46,6.79,5.42,10.89,8.69l.1,.08-.11,.08c-2.16,1.62-4.47,3.35-6.86,5.14l-.06,.04-.06-.04c-1.7-1.06-3.47-2.18-5.26-3.35-2.44-1.6-4.83-3.17-7.02-4.84-.55-.42-1.08-.84-1.55-1.37-.23-.29-.31-.64-.37-.98-.03-.17-.05-.34-.06-.51-.02-.17-.02-.34-.02-.5,0-1.34,.2-2.63,.42-3.88,.46-2.49,1.07-4.82,1.66-7,.59-2.17,1.18-4.18,1.72-6.02,.27-.92,.52-1.79,.76-2.62,.23-.83,.48-1.61,.76-2.32,.57-1.42,1.26-2.55,1.91-3.4,.65-.86,1.27-1.43,1.71-1.78,.22-.18,.4-.3,.52-.38,.12-.08,.19-.11,.19-.11,0,0-.06,.04-.18,.13-.12,.08-.29,.21-.5,.39-.43,.36-1.03,.94-1.66,1.8-.63,.86-1.31,1.98-1.86,3.39-.27,.71-.52,1.48-.74,2.31-.23,.83-.48,1.71-.74,2.63-.53,1.84-1.11,3.85-1.69,6.02-.58,2.17-1.18,4.5-1.63,6.98-.22,1.24-.42,2.53-.41,3.84,0,.16,0,.33,.02,.49,0,.16,.03,.33,.06,.49,.02,.16,.08,.31,.11,.47,.07,.14,.12,.3,.22,.41,.43,.48,.98,.91,1.51,1.33,2.18,1.66,4.57,3.23,7.01,4.83,1.79,1.16,3.56,2.29,5.25,3.35h-.12c2.39-1.78,4.7-3.5,6.87-5.12v.16c-4.09-3.28-7.79-6.26-10.87-8.72l-.04-.03v-.05c1.1-4.04,1.97-7.3,2.58-9.57,.31-1.12,.54-2,.71-2.6l.19-.67c.04-.15,.07-.23,.07-.23Z"/></g><path class="cls-11" d="M123.86,70.37s.78-.5,1.91-.6c1.12-.11,2.01,.19,1.99,.24-.01,.07-.89-.12-1.97-.02-1.08,.09-1.9,.44-1.93,.38Z"/></g></svg>