<?xml version="1.0" encoding="UTF-8"?><svg id="Designed_by_freepik" xmlns="http://www.w3.org/2000/svg" viewBox="0 0 106.11 165.03"><defs><style>.cls-1{fill:#fff;}.cls-2{opacity:.6;}.cls-3{fill:#c78976;}.cls-4{fill:#bf654e;}.cls-5{fill:#e1e1e1;}.cls-6{opacity:.3;}.cls-7{fill:#9a50fd;}.cls-8{fill:#375a64;}.cls-9{fill:#822ef2;}.cls-10{fill:#ff4f5b;}.cls-11{fill:#ececec;}.cls-12{fill:#1a2e35;}</style></defs><g><path class="cls-7" d="M47.15,0l30.71,3.24V164.15H30.49V45.2H0V0H47.15Z"/><polygon class="cls-9" points="74 2.77 74 159.21 30.57 159.21 30.57 164.64 78.07 164.64 78.07 3.24 74 2.77"/></g><g><g><path class="cls-12" d="M72.83,9.44c.29-1.37,1.27-2.09,2.57-2.62s2.86-.36,4.02,.43c.78,.53,1.41,1.32,2.31,1.58,1.49,.43,3.13-.76,4.57-.18,.85,.34,1.38,1.32,1.21,2.22-.17,.9-1.03,1.61-1.95,1.62,.97,.29,1.34,1.64,.83,2.51-.51,.88-1.63,1.26-2.64,1.13-1.01-.13-1.91-.69-2.7-1.32-.79-.64-1.51-1.36-2.35-1.93-.84-.57-1.84-.98-2.85-.87-1.36,.15-2.48,1.25-3.03,2.51-.54,1.26-.61,2.67-.61,4.04,0,1.37,.05,2.77-.28,4.1-.04,.16-.1,.33-.25,.39-.22,.08-.42-.15-.54-.34-1.37-2.24-2.3-4.76-2.71-7.35-.24-1.51-.28-2.95,.49-4.27,.76-1.32,2.82-2.38,3.9-1.63"/><g><g><path class="cls-3" d="M70.78,18.44c-.07-.03-2.78-.74-2.61,2,.16,2.74,2.88,2.01,2.88,1.93,0-.08-.27-3.93-.27-3.93Z"/><path class="cls-4" d="M70.15,21.38s-.05,.04-.12,.08c-.08,.04-.21,.07-.36,.03-.3-.09-.57-.53-.61-1.03-.02-.25,.02-.49,.09-.69,.07-.21,.19-.35,.34-.39,.14-.04,.25,.04,.29,.11,.04,.07,.03,.13,.04,.13,0,0,.06-.05,.03-.16-.01-.05-.05-.12-.12-.17-.07-.05-.17-.07-.27-.05-.21,.03-.39,.23-.47,.45-.1,.22-.14,.49-.12,.77,.05,.55,.36,1.05,.77,1.14,.2,.04,.35-.03,.43-.1,.08-.07,.09-.13,.08-.14Z"/></g><g><g><path class="cls-3" d="M77.06,8.88c4.11-.29,7.67,2.85,7.88,6.97,.18,3.43,.34,7.14,.3,9-.08,4.01-4.09,4.6-4.09,4.6,0,0,.09,1.19,.19,2.66,.2,2.97-2.09,5.52-5.07,5.63h0c-2.91,.11-5.37-2.16-5.47-5.08l-.6-16.15c-.15-3.98,2.89-7.36,6.86-7.63h0Z"/><path class="cls-4" d="M81.15,29.45s-2.46,.13-5.14-1.58c0,0,1.21,2.92,5.21,2.59l-.07-1Z"/></g><g><g><g><path class="cls-12" d="M83.6,18.68c0,.3-.24,.56-.56,.57-.31,.01-.58-.22-.59-.52,0-.3,.24-.56,.56-.57,.32-.01,.58,.22,.59,.52Z"/><path class="cls-12" d="M83.96,17.27c-.07,.07-.5-.25-1.12-.25-.61-.01-1.07,.3-1.14,.23-.03-.03,.04-.17,.24-.31,.19-.14,.53-.28,.91-.27,.38,0,.71,.15,.89,.3,.19,.15,.25,.28,.22,.32Z"/></g><g><path class="cls-12" d="M77.65,18.59c0,.3-.24,.56-.56,.57-.31,.01-.58-.22-.59-.52,0-.3,.24-.56,.56-.57,.32-.01,.58,.22,.59,.52Z"/><path class="cls-12" d="M77.91,17.34c-.07,.07-.5-.25-1.12-.25-.61-.01-1.07,.3-1.14,.23-.03-.03,.04-.17,.24-.31,.19-.14,.53-.28,.91-.27,.38,0,.7,.15,.89,.29,.19,.15,.25,.28,.22,.32Z"/></g><path class="cls-12" d="M80.11,21.92s.38-.1,1-.17c.16-.02,.31-.05,.33-.15,.04-.11-.03-.28-.1-.47-.14-.38-.3-.78-.46-1.2-.63-1.71-1.09-3.12-1.02-3.14,.07-.02,.64,1.34,1.27,3.05,.15,.42,.3,.82,.44,1.21,.06,.18,.16,.38,.08,.62-.04,.12-.16,.2-.26,.23-.1,.03-.19,.03-.27,.04-.62,.03-1.01,.03-1.01,0Z"/><path class="cls-12" d="M78.29,22.34c.1,0,.1,.66,.66,1.14,.57,.48,1.28,.41,1.28,.5,0,.04-.16,.13-.46,.13-.3,0-.73-.09-1.07-.38-.35-.29-.49-.68-.51-.96-.02-.28,.05-.44,.1-.44Z"/></g><path class="cls-12" d="M78.02,15.33c-.06,.17-.68,.08-1.4,.16-.72,.07-1.31,.27-1.4,.12-.04-.07,.06-.23,.3-.39,.23-.16,.61-.31,1.04-.36,.43-.04,.83,.03,1.09,.14,.26,.11,.4,.24,.37,.32Z"/><path class="cls-12" d="M83.87,15.43c-.11,.14-.53,0-1.04-.02-.51-.03-.94,.09-1.04-.06-.04-.07,.03-.21,.22-.34,.19-.13,.5-.24,.85-.22,.35,.01,.65,.14,.83,.29,.18,.15,.24,.29,.19,.36Z"/></g></g></g><path class="cls-12" d="M85.65,14.01c-.78,1.13-3.86,.67-5.41-.49-1.08-.81-2.03-1.43-3.34-1.75-.88-.22-1.83,.03-2.6,.51-.77,.49-1.37,1.19-1.88,1.95,.94,2.1,.54,4.53,.11,6.79-.05,.25-.1,.52-.3,.69-.33,.28-.85,.11-1.17-.19-.51-.47-.73-1.16-.9-1.84-.37-1.53-.5-3.13-.25-4.69,.25-1.55,.91-3.06,1.98-4.21,1.34-1.44,3.29-2.26,5.25-2.35,1.97-.09,3.93,.54,5.57,1.63,.76,.51,1.47,1.13,1.89,1.94"/></g><g><g><g><path class="cls-10" d="M69.74,152.13l.19,8.07s-8.14,2.9-8.25,4.39l15.66,.2,.23-12.58-7.82-.08Z"/><g class="cls-2"><path class="cls-1" d="M74.77,159.58c.3,.09,.51,.43,.43,.74-.07,.31-.42,.52-.73,.44-.3-.08-.56-.49-.45-.78,.11-.3,.53-.52,.8-.37"/></g><g class="cls-2"><path class="cls-1" d="M77.33,164.79l-.03-1.27-15,.28s-.7,.29-.63,.79l15.66,.2Z"/></g><path class="cls-12" d="M69.67,160.11c0,.08,.38,.12,.76,.37,.38,.24,.57,.57,.64,.55,.07-.01-.04-.47-.49-.77-.45-.3-.92-.21-.9-.14Z"/><path class="cls-12" d="M68.02,160.77c-.02,.07,.31,.21,.57,.53,.27,.32,.33,.67,.4,.67,.07,.01,.13-.43-.2-.83-.32-.4-.77-.44-.77-.37Z"/><path class="cls-12" d="M67.06,162.73c.07,.02,.18-.36-.01-.78-.19-.42-.55-.59-.58-.53-.04,.06,.19,.29,.34,.64,.16,.34,.18,.67,.25,.68Z"/><path class="cls-12" d="M69.83,158.27c.03,.07,.38-.03,.82,0,.43,.03,.77,.18,.81,.11,.04-.05-.28-.34-.79-.38-.51-.04-.87,.2-.83,.26Z"/></g><path class="cls-12" d="M69.83,156.64s.3,.08,.78,0c.24-.04,.52-.11,.82-.24,.15-.06,.3-.14,.45-.23,.07-.05,.16-.09,.24-.18,.09-.08,.14-.28,.04-.41-.08-.12-.22-.17-.33-.18-.12,0-.21,.02-.29,.04-.17,.04-.34,.1-.49,.16-.3,.13-.55,.3-.73,.47-.37,.33-.5,.62-.47,.63,.03,.03,.21-.21,.59-.48,.19-.14,.42-.28,.7-.38,.14-.05,.29-.1,.45-.13,.17-.04,.31-.04,.35,.03,.02,.03,.02,.04-.02,.09-.04,.04-.1,.09-.18,.13-.14,.09-.28,.17-.42,.23-.27,.13-.54,.22-.76,.28-.45,.12-.75,.14-.74,.18Z"/><path class="cls-12" d="M69.92,156.75s.18-.26,.22-.75c.02-.25,0-.54-.1-.86-.05-.16-.11-.32-.19-.48-.09-.16-.2-.36-.5-.4-.15,0-.29,.11-.33,.21-.05,.11-.06,.2-.08,.29-.03,.18-.03,.36,0,.53,.04,.33,.18,.61,.32,.81,.3,.41,.62,.51,.63,.48,.03-.04-.24-.19-.47-.58-.11-.19-.21-.45-.24-.74-.01-.15,0-.3,.02-.45,.03-.17,.09-.3,.15-.28,.08,0,.21,.13,.27,.26,.08,.14,.14,.29,.19,.43,.09,.28,.13,.56,.14,.78,.02,.46-.07,.75-.03,.76Z"/></g><g><g><path class="cls-10" d="M98.22,152.45l-.3,8.06s8.09,3.02,8.18,4.51l-15.66-.03-.04-12.58,7.82,.03Z"/><g class="cls-2"><path class="cls-1" d="M93.08,159.83c-.3,.08-.51,.42-.44,.73s.41,.52,.72,.45c.3-.08,.57-.48,.47-.77-.1-.3-.52-.53-.8-.38"/></g><g class="cls-2"><path class="cls-1" d="M90.45,165l.05-1.27,14.99,.5s.7,.3,.62,.8l-15.66-.03Z"/></g><path class="cls-12" d="M98.18,160.43c0,.08-.39,.11-.76,.36-.38,.24-.58,.57-.65,.54-.07-.02,.04-.47,.51-.76,.46-.29,.92-.2,.9-.13Z"/><path class="cls-12" d="M99.82,161.12c.02,.07-.31,.2-.57,.53-.27,.32-.34,.66-.41,.66-.07,.01-.12-.44,.21-.83,.33-.4,.78-.43,.78-.36Z"/><path class="cls-12" d="M100.75,163.08c-.07,.02-.18-.37,.02-.78,.19-.42,.55-.58,.59-.52,.04,.06-.19,.29-.35,.63-.16,.34-.19,.66-.26,.67Z"/><path class="cls-12" d="M98.04,158.59c-.03,.07-.38-.04-.81,0-.43,.02-.77,.16-.81,.1-.04-.06,.28-.34,.79-.36,.51-.03,.87,.21,.83,.27Z"/></g><path class="cls-12" d="M98.07,156.96s-.3,.08-.78,0c-.24-.04-.52-.12-.82-.25-.15-.07-.3-.15-.45-.24-.07-.05-.16-.09-.24-.18-.08-.08-.13-.28-.03-.41,.08-.12,.22-.17,.34-.17,.12,0,.21,.02,.29,.04,.17,.04,.34,.1,.49,.17,.3,.14,.54,.31,.72,.48,.36,.34,.49,.62,.46,.64-.03,.03-.21-.21-.58-.49-.18-.14-.42-.28-.7-.4-.14-.06-.29-.1-.45-.14-.17-.04-.31-.05-.35,.03-.02,.03-.02,.04,.02,.09,.04,.04,.1,.09,.17,.13,.14,.09,.28,.17,.41,.24,.27,.14,.53,.23,.76,.29,.45,.13,.74,.15,.74,.19Z"/><path class="cls-12" d="M97.97,157.07s-.18-.26-.21-.76c-.01-.25,.01-.54,.11-.86,.05-.16,.11-.32,.2-.48,.09-.15,.2-.36,.5-.4,.15,0,.28,.12,.33,.22,.05,.11,.06,.2,.08,.29,.03,.18,.02,.36,0,.53-.05,.33-.19,.61-.34,.81-.31,.41-.63,.5-.63,.47-.03-.04,.24-.19,.48-.58,.12-.19,.22-.45,.25-.74,.02-.15,.01-.3-.01-.45-.02-.17-.09-.3-.15-.28-.08,0-.21,.12-.27,.26-.08,.14-.14,.28-.19,.42-.1,.28-.14,.55-.15,.78-.02,.46,.06,.75,.02,.76Z"/></g><polygon class="cls-12" points="88.97 74.61 100.82 159.63 89.32 159.41 76.61 88.17 79.41 159.75 66.81 158.97 62.39 74.09 88.97 74.61"/></g><g><path class="cls-10" d="M70.87,35.24l-.15-4.76s.94,4.35,5.89,4.3c4.73-.05,4.64-3.83,4.64-3.83l.17,1.92v7.74l-3.08,12.63-3.94,.5-4.35-17.26,.82-1.23Z"/><path class="cls-12" d="M80.81,33.72s-.02,.04-.06,.1c-.04,.06-.09,.16-.19,.28-.17,.23-.46,.55-.88,.85-.42,.31-.98,.59-1.65,.77-.66,.18-1.43,.25-2.22,.15-.79-.11-1.51-.35-2.13-.64-.62-.29-1.14-.63-1.56-.94-.42-.31-.73-.58-.94-.78-.11-.1-.18-.18-.24-.23-.05-.05-.08-.08-.08-.09s.03,.02,.09,.07l.25,.22c.22,.19,.54,.45,.96,.75,.42,.3,.94,.63,1.55,.91,.61,.29,1.33,.52,2.11,.63,.78,.1,1.53,.03,2.18-.14,.65-.18,1.21-.44,1.63-.74,.42-.29,.71-.59,.89-.82,.18-.22,.27-.36,.28-.35Z"/></g><g><path class="cls-11" d="M77.65,98.92l.07-20.41-.09-26.65-6.7-16.38-.21-4.93-3.88,2.94s-5.65,19.46-5.74,18.79c-.09-.67,1.37,17.29,1.37,17.29l-2.23,30.27,17.42-.91Z"/><path class="cls-11" d="M82.98,32.65c-1.14-1.99-1.73-1.78-1.73-1.78l.06,.71v1.49l-.54,6.4-3.61,12,.56,26.57,1.35,21.01,16.77-1.37-5.85-28.93,2.09-19.99-.15-11.01-8.96-5.09Z"/><path class="cls-12" d="M73.44,76.54s-.07,.16-.24,.41c-.17,.25-.45,.6-.83,.99-.75,.79-2.01,1.72-3.61,2.23-1.61,.51-3.17,.47-4.24,.26-.54-.1-.96-.23-1.25-.34-.29-.11-.44-.18-.43-.19,.01-.04,.64,.22,1.71,.39,1.06,.17,2.58,.19,4.15-.31,1.57-.5,2.81-1.39,3.57-2.13,.78-.75,1.14-1.32,1.17-1.3Z"/><path class="cls-10" d="M70,80.38c-.05-.27-.11-.54-.2-.79l1.77-1.03s-1.44-1.05-3.43-.95c-1.12,.06-2.25,.66-3.02,1.16-.22,.1-.42,.23-.58,.39-.06,.03-.11,.07-.16,.11-.08,.07-.15,.14-.22,.22h0c-.36,.43-.52,1.01-.62,1.56-.21,1.18-.23,2.4-.07,3.59,.06,.45,.24,1,.69,1.08,.27,.05,.53-.1,.69-.33,0,.52,.06,1.03,.15,1.54,.07,.39,.26,.85,.65,.87,.41,.01,.63-.48,.7-.89,.15-.86,.19-1.74,.11-2.61,.22,.44,.14,.97,.21,1.45s.45,1.03,.93,.93c.48-.09,.62-.69,.67-1.18,.13-1.27,.26-2.53,.39-3.8,.26,.42,.25,.96,.44,1.42,.19,.46,.81,.83,1.17,.48,.23-.22,.2-.6,.15-.92-.13-.78-.27-1.55-.42-2.33Z"/><path class="cls-12" d="M71.14,90.8s-.12,.15-.37,.39c-.25,.24-.63,.57-1.16,.9-.53,.33-1.2,.67-2.03,.81-.81,.15-1.77,.09-2.65-.33-.89-.42-1.47-1.21-1.78-1.98-.32-.77-.41-1.52-.44-2.14-.03-.62,0-1.12,.02-1.46,.02-.34,.05-.53,.06-.53,.04,0-.01,.77,.06,1.99,.05,.61,.15,1.34,.47,2.07,.31,.73,.86,1.47,1.7,1.87,.82,.4,1.74,.46,2.52,.33,.79-.13,1.46-.44,1.98-.75,1.05-.63,1.58-1.2,1.6-1.16Z"/><path class="cls-12" d="M90.05,76.78s-.08,.08-.25,.19c-.17,.11-.43,.25-.76,.4-.66,.3-1.64,.57-2.76,.6-1.11,.02-2.11-.22-2.78-.48-.34-.13-.6-.26-.77-.37-.17-.1-.27-.17-.26-.18,.02-.03,.41,.18,1.08,.41,.67,.23,1.64,.43,2.73,.41,1.08-.02,2.04-.27,2.71-.53,.66-.25,1.05-.48,1.07-.45Z"/><path class="cls-12" d="M77.71,79.73s-.01-.1-.02-.29l-.02-.84c-.01-.75-.02-1.8-.04-3.08-.04-2.62-.1-6.2-.16-10.15-.07-3.96-.13-7.54-.17-10.15-.02-1.28-.03-2.33-.04-3.08v-.84c0-.19,0-.29,.01-.29,0,0,.02,.1,.03,.29l.04,.84c.03,.75,.06,1.79,.1,3.08,.08,2.6,.17,6.19,.23,10.15,.07,3.96,.1,7.56,.1,10.15,0,1.3,0,2.35-.02,3.08l-.02,.84c0,.19-.01,.29-.02,.29Z"/><polygon class="cls-5" points="66.89 36.7 67.68 37.3 67.13 40.93 76.43 50.67 67.98 39.58 68.7 36.7 66.89 36.7"/><path class="cls-11" d="M77.73,62.81l-14.28-4.19-.47-10.84,3.92-14.29s-9.33,4.66-9.97,7.62c-.64,2.96-2.17,10.17-2.33,15.37-.15,4.66-.17,7.77,.9,9.25,1.79,2.5,9.44,4.12,17.08,3.74,5.37-.26,10.74-1.68,14.05-3.75"/><path class="cls-12" d="M76.61,50.91s-.02-.02-.05-.05l-.13-.16-.48-.62c-.42-.55-1.02-1.33-1.77-2.3-1.49-1.95-3.54-4.63-5.8-7.6l-.44-.57v-.04c.24-.99,.48-1.96,.71-2.88l.05,.06c-.62,0-1.23,0-1.81,0h-.05v-.05c0-1.17,0-2.25,0-3.21v-.02h.02c1.18-.91,2.14-1.63,2.81-2.14l.77-.58,.2-.15s.07-.05,.07-.05c0,0-.02,.02-.06,.06l-.2,.16-.76,.59c-.66,.52-1.62,1.25-2.79,2.16l.02-.03c0,.95,0,2.03,0,3.21l-.05-.05c.58,0,1.18,0,1.81,0h.06l-.02,.06-.72,2.88v-.04l.43,.57c2.26,2.97,4.3,5.66,5.78,7.62,.73,.97,1.33,1.76,1.74,2.32l.47,.63,.12,.17s.04,.06,.04,.06Z"/><path class="cls-11" d="M91.94,37.74s3.38,2.5,3.68,6.52c.24,3.27,.78,12.2,.88,14.15,.15,3.03-2.21,10.13-8.35,8.12-3.68-1.21-17.3-5.83-17.3-5.83l.91-5.78,16.16,.96,.32-13.48,3.7-4.66Z"/><path class="cls-3" d="M71.57,55.58s-4.57-.49-5.63-.24c-1.02,.25-2.47,1.49-2.47,1.49l.02,1.81,7.36,2.06,.72-5.12Z"/><path class="cls-12" d="M77.31,51.28s0-.02,.02-.06l.07-.18,.27-.68c.24-.6,.59-1.45,1.02-2.51l1.53-3.71c.15-.35,.29-.71,.47-1.07,.17-.36,.38-.71,.59-1.06,.43-.7,.92-1.4,1.45-2.1,.26-.34,.53-.67,.8-.99v.05l-.58-1.45-.02-.05,.05-.02c.83-.28,1.63-.56,2.38-.81l-.02,.07c-1.11-1.85-2.04-3.41-2.7-4.51-.33-.55-.61-.98-.9-1.16-.15-.09-.28-.13-.36-.15l-.13-.03s.05,0,.14,.02c.09,.02,.22,.05,.37,.14,.15,.09,.31,.24,.46,.44,.15,.2,.31,.44,.48,.71,.67,1.1,1.62,2.66,2.73,4.49l.03,.05-.05,.02c-.75,.26-1.55,.53-2.38,.82l.03-.06c.19,.47,.38,.96,.57,1.45v.05c-.28,.31-.55,.65-.81,.98-.53,.69-1.02,1.39-1.45,2.09-.21,.35-.41,.7-.58,1.06-.18,.35-.32,.71-.47,1.06-.58,1.39-1.11,2.65-1.55,3.7-.44,1.05-.8,1.9-1.05,2.49l-.29,.68-.08,.17s-.03,.06-.03,.06Z"/><path class="cls-12" d="M93.79,65.4s-.02,.02-.06,.06l-.17,.17c-.16,.15-.4,.35-.74,.56-.35,.21-.8,.43-1.36,.57-.56,.14-1.22,.2-1.95,.12-.36-.04-.74-.12-1.11-.24-.38-.12-.76-.27-1.16-.41-.8-.29-1.65-.59-2.56-.91-1.8-.63-3.79-1.31-5.89-1.99-4.19-1.38-8.01-2.54-10.78-3.36-1.38-.41-2.5-.74-3.28-.97l-.89-.27-.23-.07c-.05-.02-.08-.03-.08-.03,0,0,.03,0,.08,.02l.23,.06c.21,.06,.51,.14,.9,.25,.78,.22,1.9,.54,3.29,.94,2.77,.81,6.6,1.96,10.79,3.34,2.1,.69,4.08,1.37,5.89,2,.9,.32,1.76,.62,2.55,.92,.4,.14,.78,.29,1.16,.41,.37,.12,.74,.2,1.1,.24,.71,.08,1.37,.03,1.93-.11,.55-.14,1.01-.35,1.35-.55,.34-.21,.59-.4,.75-.54l.18-.16s.06-.05,.06-.05Z"/><path class="cls-12" d="M63.49,58.67s-.26-.03-.67-.02c-.2,0-.45,.04-.71,.12-.26,.08-.53,.2-.8,.36-.53,.34-.89,.79-1.11,1.14-.22,.35-.31,.59-.33,.58,0,0,.01-.06,.05-.17,.04-.11,.11-.26,.21-.45,.21-.36,.57-.84,1.11-1.19,.27-.17,.56-.29,.82-.37,.27-.07,.52-.1,.73-.1,.21,0,.38,.02,.49,.04,.11,.02,.18,.04,.18,.05Z"/><path class="cls-12" d="M58.99,57.25s0-.02,.02-.05c.02-.03,.04-.08,.09-.13,.09-.1,.27-.21,.51-.25,.24-.05,.53-.04,.84,0,.31,.04,.65,.12,.99,.24,.69,.24,1.24,.63,1.58,.97,.17,.17,.29,.32,.37,.43,.07,.11,.11,.17,.11,.18-.02,.01-.18-.24-.52-.55-.34-.32-.89-.68-1.56-.92-.34-.12-.67-.2-.97-.24-.31-.04-.58-.06-.81-.02-.23,.03-.4,.12-.49,.21-.09,.09-.13,.15-.14,.15Z"/><path class="cls-12" d="M64.32,44.8s-.03-.11-.07-.29c-.03-.09-.07-.2-.11-.33-.06-.12-.12-.27-.21-.41-.17-.3-.42-.63-.73-.97-.32-.33-.68-.68-1.12-.98-.86-.62-1.76-.98-2.44-1.12-.34-.06-.62-.1-.81-.1-.19,0-.3-.02-.3-.02,0,0,.11-.01,.3-.01,.2-.01,.48,.02,.82,.07,.69,.12,1.61,.48,2.48,1.11,.44,.31,.81,.66,1.12,1,.31,.35,.55,.69,.72,1,.09,.15,.14,.3,.2,.43,.04,.13,.08,.25,.1,.34,.02,.2,.03,.3,.03,.3Z"/><path class="cls-12" d="M91.43,61.38s0-.02,0-.07v-.2c0-.18-.02-.44-.04-.78-.06-.67-.17-1.65-.57-2.8-.1-.28-.21-.58-.39-.85-.17-.27-.43-.5-.76-.64-.65-.28-1.43-.24-2.23-.29-1.6-.07-3.36-.14-5.21-.22-4.3-.19-8.13-.35-10.53-.48l.03-.03-.34,2.07-.09,.55-.03,.14s-.01,.05-.01,.05,0-.02,0-.05l.02-.14,.08-.55c.07-.49,.18-1.19,.31-2.08v-.03h.03c2.41,.1,6.24,.26,10.54,.44,1.85,.08,3.61,.16,5.21,.23,.4,.02,.79,.03,1.17,.06,.38,.03,.75,.1,1.09,.24,.33,.14,.61,.39,.79,.68,.18,.28,.29,.59,.39,.87,.4,1.15,.5,2.14,.55,2.82,.02,.34,.02,.6,.02,.78v.2s0,.07-.01,.07Z"/><path class="cls-12" d="M88.35,48.73s.05,1.57,.05,3.5-.02,3.5-.05,3.5-.05-1.56-.05-3.5,.02-3.5,.05-3.5Z"/><path class="cls-12" d="M57.04,40.77s-.01,.04-.04,.13c-.03,.09-.08,.21-.12,.38-.09,.34-.21,.84-.35,1.49-.27,1.31-.6,3.22-.98,5.61-.19,1.2-.38,2.51-.58,3.94-.1,.71-.16,1.45-.21,2.22-.05,.77-.09,1.56-.12,2.38-.06,1.63-.09,3.35-.05,5.15,.01,.45,.03,.9,.07,1.36,.01,.23,.05,.45,.08,.68,.05,.22,.09,.45,.17,.67,.14,.44,.35,.86,.64,1.23,.29,.36,.67,.68,1.1,.85h0c.9,.47,1.88,.8,2.88,1.1,1,.3,2.04,.54,3.09,.76,2.35,.48,4.69,.76,6.94,.85,1.13,.03,2.23,0,3.31-.09,1.08-.07,2.13-.19,3.15-.34,2.04-.29,3.94-.75,5.66-1.31,1.72-.57,3.25-1.25,4.57-1.96v.06c-2.66-.94-4.79-1.7-6.27-2.22-.73-.26-1.3-.46-1.69-.6l-.44-.16c-.1-.04-.15-.06-.15-.06,0,0,.05,.01,.15,.05l.44,.15c.39,.13,.96,.33,1.7,.59,1.48,.52,3.62,1.26,6.28,2.19l.07,.03-.07,.04c-1.33,.71-2.86,1.41-4.58,1.98-1.72,.57-3.63,1.03-5.67,1.33-1.02,.15-2.08,.27-3.16,.34-1.08,.08-2.19,.12-3.32,.09-2.26-.08-4.6-.36-6.96-.85-1.05-.22-2.09-.46-3.1-.76-1-.3-1.99-.64-2.89-1.11h0c-.47-.18-.85-.5-1.15-.88-.3-.38-.52-.81-.66-1.26-.08-.22-.12-.45-.17-.68-.03-.23-.07-.46-.08-.69-.04-.46-.05-.91-.07-1.36-.05-1.8,0-3.52,.05-5.15,.03-.82,.07-1.61,.13-2.38,.05-.77,.12-1.51,.22-2.22,.2-1.42,.4-2.74,.59-3.94,.38-2.39,.72-4.3,1.01-5.61,.14-.65,.26-1.15,.36-1.49,.04-.17,.1-.29,.13-.38,.03-.08,.05-.13,.05-.13Z"/><path class="cls-5" d="M63.47,57.33c2.39-2.64,2.28-7.34,.91-10.68-.13,3.61-.55,6.82-.88,10.33"/><path class="cls-12" d="M64.39,47.33s0,.04,0,.12l-.02,.33c-.02,.3-.06,.71-.1,1.21-.09,1.04-.2,2.44-.33,4-.12,1.56-.23,2.96-.31,4-.04,.5-.07,.91-.09,1.21l-.03,.33c0,.08-.01,.11-.02,.11,0,0,0-.04,0-.12v-.33c.02-.29,.04-.7,.07-1.21,.06-1.03,.16-2.44,.28-4,.13-1.56,.26-2.97,.36-4l.13-1.21,.04-.33c.01-.07,.02-.11,.02-.11Z"/><g><path class="cls-12" d="M70.27,42.55s.05,.92,.05,2.05-.02,2.05-.05,2.05-.05-.92-.05-2.05,.02-2.05,.05-2.05Z"/><g><g><path class="cls-5" d="M68.72,49.36c.04,.42,.22,.8,.44,1.09,.22,.29,.68,.58,1.05,.56,0,0,.92,.08,1.41-.71,.45-.71,.56-2.19,.2-3.07-.25-.6-.8-1.16-1.45-1.18-.85-.02-1.39,.6-1.57,1.22"/><path class="cls-12" d="M68.79,47.28s.02-.16,.16-.42c.07-.13,.17-.28,.32-.42,.15-.14,.35-.28,.6-.35,.13-.04,.26-.06,.41-.06,.14,0,.3,0,.44,.06,.3,.1,.57,.3,.79,.57,.22,.27,.39,.6,.47,.97,.08,.37,.11,.75,.09,1.15-.04,.61-.16,1.21-.49,1.67-.17,.23-.4,.39-.64,.49-.24,.1-.49,.13-.73,.12h0c-.2,0-.37-.06-.52-.13-.15-.08-.28-.17-.39-.27-.22-.21-.34-.44-.43-.64-.08-.2-.12-.36-.14-.47,0-.06-.01-.1-.01-.13,0-.03,0-.04,0-.04,.01,0,.01,.24,.19,.62,.09,.18,.22,.41,.43,.61,.11,.1,.24,.18,.38,.26,.15,.07,.31,.12,.48,.11h0c.44,.02,.97-.15,1.29-.58,.31-.43,.43-1.03,.47-1.62,.04-.77-.09-1.54-.52-2.06-.21-.26-.47-.45-.75-.55-.14-.05-.28-.06-.42-.06-.14,0-.27,.02-.39,.06-.24,.07-.44,.19-.59,.33-.15,.13-.25,.28-.32,.4-.15,.24-.18,.4-.19,.4Z"/></g><g><path class="cls-5" d="M68.26,49.4c.04,.42,.22,.8,.44,1.09,.22,.29,.68,.58,1.05,.56,0,0,.92,.08,1.41-.71,.45-.71,.56-2.19,.2-3.07-.25-.6-.8-1.16-1.45-1.18-.85-.02-1.39,.6-1.57,1.22"/><path class="cls-12" d="M68.34,47.32s.02-.16,.16-.42c.07-.13,.17-.28,.32-.42,.15-.14,.35-.28,.6-.35,.13-.04,.26-.06,.41-.06,.14,0,.3,0,.44,.06,.3,.1,.57,.3,.79,.57,.22,.27,.39,.6,.47,.97,.08,.37,.11,.75,.09,1.15-.04,.61-.16,1.21-.49,1.67-.17,.23-.4,.39-.64,.49-.24,.1-.49,.13-.73,.12h0c-.2,0-.37-.06-.52-.13-.15-.08-.28-.17-.39-.27-.22-.21-.34-.44-.43-.64-.08-.2-.12-.36-.14-.47,0-.06-.01-.1-.01-.13,0-.03,0-.04,0-.04,.01,0,.01,.24,.19,.62,.09,.18,.22,.41,.43,.61,.11,.1,.24,.18,.38,.26,.15,.07,.31,.12,.48,.11h0c.44,.02,.97-.15,1.29-.58,.31-.43,.43-1.03,.47-1.62,.04-.77-.09-1.54-.52-2.06-.21-.26-.47-.45-.75-.55-.14-.05-.28-.06-.42-.06-.14,0-.27,.02-.39,.06-.24,.07-.44,.19-.59,.33-.15,.13-.25,.28-.32,.4-.15,.24-.18,.4-.19,.4Z"/></g><g><path class="cls-5" d="M69.09,47.1c-.42-.08-.86,.21-1.04,.6-.18,.39-.14,.86,0,1.27,.07,.21,.17,.41,.32,.57s.36,.27,.58,.28c.32,0,.61-.21,.8-.47,.3-.42,.41-.98,.27-1.49-.09-.34-.34-.68-.68-.69"/><path class="cls-12" d="M69.34,47.16s.03,0,.08,0c.05,0,.13,.02,.21,.07,.17,.09,.36,.33,.44,.67,.08,.33,.07,.77-.12,1.19-.1,.21-.23,.41-.43,.57-.19,.16-.48,.26-.75,.18-.27-.07-.47-.27-.6-.49-.13-.22-.2-.45-.25-.67-.09-.45-.02-.89,.19-1.17,.21-.29,.49-.41,.68-.43,.1-.02,.17,0,.22,0,.05,.01,.07,.02,.07,.02,0,.01-.11-.02-.29,.02-.18,.04-.44,.16-.63,.43-.19,.27-.25,.68-.16,1.11,.05,.21,.12,.44,.24,.64,.12,.2,.31,.38,.54,.44,.23,.07,.48-.02,.66-.16,.18-.14,.32-.34,.41-.53,.19-.4,.2-.81,.13-1.13-.07-.32-.24-.55-.39-.65-.16-.1-.27-.09-.27-.1Z"/></g><path class="cls-12" d="M70.06,50.29s-.04-.06-.1-.14c-.06-.08-.18-.17-.33-.21-.15-.05-.3-.05-.41-.06-.11,0-.18-.02-.18-.03,0-.01,.07-.03,.18-.04,.11,0,.27-.01,.44,.04,.17,.05,.3,.17,.36,.27,.06,.1,.06,.18,.04,.18Z"/><path class="cls-12" d="M70.22,46.83s-.03,.07-.12,.14c-.09,.07-.23,.15-.41,.18-.17,.03-.34,.01-.45-.02-.11-.04-.17-.08-.16-.09,.01-.03,.27,.08,.59,.01,.32-.05,.53-.24,.55-.22Z"/></g></g><g><path class="cls-12" d="M83.54,32.94s.02,0,.06,.02c.04,.02,.1,.05,.17,.09,.15,.08,.35,.22,.58,.42,.46,.39,.99,1.08,1.25,1.98,.27,.88,.41,1.7,.48,2.3,.03,.3,.05,.54,.06,.71,0,.17,.01,.26,0,.26,0,0-.02-.09-.04-.26l-.09-.7c-.08-.59-.23-1.41-.5-2.28-.25-.88-.76-1.55-1.2-1.95-.44-.4-.78-.56-.77-.58Z"/><g><path class="cls-12" d="M81.13,54.29c.56-.02,1.01-.58,1.57-.55,.42,.02,.77,.43,.74,.85-.04,.42-.45,.76-.87,.71-.59-.07-.94-.76-1.51-.89"/><path class="cls-12" d="M85.9,54.77c-.17,0-.34-.01-.53-.04l.03-.19c.7,.11,1.28,0,1.73-.34,.57-.42,.94-1.18,1.1-2.24v-.04c.07-.42,.16-8.72,.16-10.29,0-2.46-2.16-2.8-2.25-2.81-.09-.02-2.05-.34-3.09,2.34-1.09,2.81-2.83,8.24-2.95,8.87-.01,.08-.04,.17-.06,.29-.18,.81-.56,2.51,.57,3.48,1.26,1.09,2.25,.67,2.29,.65l.08,.18s-1.14,.49-2.5-.68c-1.22-1.05-.82-2.82-.63-3.67,.02-.11,.05-.2,.06-.28,.12-.64,1.87-6.09,2.96-8.91,1.1-2.84,3.28-2.47,3.3-2.46,.02,0,2.41,.37,2.41,3,0,1.3-.09,9.87-.15,10.32v.04c-.17,1.12-.57,1.92-1.18,2.37-.38,.28-.83,.42-1.35,.42Z"/></g><path class="cls-12" d="M88.49,43.2s-.06-.41-.4-.97c-.17-.27-.43-.57-.77-.83-.34-.26-.77-.48-1.25-.59-.97-.22-1.89,.02-2.46,.32-.58,.3-.84,.63-.85,.61,0,0,.01-.02,.04-.06,.03-.04,.08-.09,.15-.15,.13-.13,.34-.3,.63-.46,.29-.16,.66-.31,1.09-.39,.43-.08,.92-.09,1.42,.03,.5,.11,.93,.34,1.28,.61,.35,.27,.6,.58,.77,.87,.17,.29,.26,.54,.3,.72,.03,.09,.03,.16,.04,.21,0,.05,0,.07,0,.07Z"/></g><path class="cls-12" d="M93.43,58.71s-.05-.33-.27-.83c-.21-.49-.63-1.13-1.32-1.58-.34-.22-.72-.32-1.07-.39-.35-.06-.67-.08-.94-.1l-.64-.04c-.15-.01-.23-.03-.23-.03,0,0,.08,0,.24,0h.64c.27,.02,.59,.03,.95,.09,.35,.06,.75,.16,1.11,.39,.71,.46,1.13,1.13,1.33,1.64,.1,.25,.15,.47,.18,.62,.03,.15,.03,.23,.02,.24Z"/><g><path class="cls-3" d="M83.64,55.47s1.91-2.89,2.39-3.27,4.65-2.26,5.14-1.96c.49,.3,.19,.96,.19,.96,0,0,1.76-.62,1.95-.37s.23,.66,0,.99c0,0,.98-.15,.98,.15s-.11,.68-.56,1.01c-.45,.34-3.38,2.29-3.61,2.82l-.95-.06-5.52-.28Z"/><path class="cls-4" d="M89.13,54.65s.02-.07,.09-.18c.06-.11,.17-.27,.31-.45,.29-.36,.77-.8,1.38-1.16,.61-.36,1.21-.6,1.64-.77,.22-.08,.39-.14,.51-.19s.19-.06,.19-.05c0,0-.06,.04-.18,.09l-.5,.21c-.42,.18-1.01,.43-1.61,.79-.6,.36-1.08,.78-1.38,1.12-.3,.34-.44,.6-.46,.59Z"/><path class="cls-4" d="M86.71,54.6s.03-.08,.09-.21c.07-.13,.16-.33,.29-.56,.13-.23,.3-.5,.53-.78,.12-.14,.24-.27,.4-.4,.16-.11,.33-.21,.51-.31,.7-.41,1.36-.74,1.86-.93,.25-.1,.46-.16,.6-.2,.15-.03,.23-.05,.23-.04,0,.02-.32,.09-.8,.31-.49,.21-1.14,.54-1.84,.95-.17,.1-.34,.2-.5,.31-.14,.1-.27,.25-.38,.37-.23,.26-.4,.53-.54,.75-.13,.21-.23,.39-.32,.54-.08,.13-.12,.2-.13,.19Z"/></g></g></g><g><g><g><path class="cls-12" d="M23.39,153.7s.02-.07,.08-.19l.25-.54c.22-.48,.5-1.2,.75-2.17,.49-1.93,.67-4.87-.06-8.37-.34-1.75-.89-3.63-1.55-5.62-.66-2-1.42-4.11-2.04-6.4-.62-2.28-1.1-4.76-1.01-7.36,.09-2.6,.87-5.2,1.71-7.79,.85-2.59,1.72-5.12,1.98-7.67,.3-2.54-.25-5.04-1.41-7.09-1.12-2.07-2.53-3.84-3.59-5.67-1.07-1.83-1.74-3.7-2.16-5.45-.8-3.52-.52-6.49-.14-8.44,.42-1.97,.88-2.98,.88-2.98,0,0-.01,.07-.05,.2l-.18,.57c-.16,.5-.36,1.25-.55,2.23-.35,1.95-.6,4.9,.22,8.38,.42,1.73,1.1,3.58,2.17,5.38,1.05,1.81,2.47,3.57,3.62,5.66,1.18,2.07,1.75,4.65,1.45,7.23-.26,2.59-1.15,5.14-1.99,7.73-.85,2.58-1.61,5.16-1.71,7.72-.1,2.56,.38,5.01,.99,7.29,.61,2.28,1.37,4.4,2.02,6.4,.66,2,1.2,3.89,1.53,5.66,.71,3.52,.51,6.5-.02,8.43-.27,.97-.57,1.69-.8,2.16l-.28,.53c-.06,.12-.1,.18-.1,.18Z"/><g><path class="cls-10" d="M19.93,96.63s-2.15-6.86,1.7-10.88c.14-.14,.37-.07,.41,.12,.21,1.13,.46,4.58-2.11,10.76Z"/><path class="cls-12" d="M21.22,88.04s-.02,.49-.14,1.27c-.14,.87-.31,1.9-.49,3.03-.18,1.13-.34,2.15-.48,3.03-.12,.77-.19,1.26-.23,1.25-.03,0-.03-.49,.04-1.28,.07-.78,.21-1.86,.4-3.05,.19-1.18,.4-2.25,.57-3.02,.17-.77,.3-1.24,.33-1.23Z"/></g><g><path class="cls-10" d="M22.45,112.82s1.31-7.07,6.59-8.82c.19-.06,.36,.11,.31,.29-.35,1.1-1.74,4.27-6.9,8.52Z"/><path class="cls-12" d="M27.61,105.82s-.25,.42-.72,1.05c-.53,.7-1.16,1.53-1.85,2.45-.69,.92-1.31,1.74-1.84,2.45-.47,.63-.75,1.02-.79,1-.03-.02,.2-.45,.63-1.11,.43-.66,1.06-1.55,1.78-2.5,.72-.96,1.41-1.8,1.91-2.4,.51-.6,.84-.96,.87-.93Z"/></g><g><path class="cls-10" d="M21.03,130.55s-.8-7.14,3.75-10.35c.16-.11,.38,0,.38,.19-.01,1.15-.42,4.59-4.13,10.16Z"/><path class="cls-12" d="M23.93,122.36s-.12,.48-.38,1.21c-.3,.83-.66,1.8-1.06,2.88-.39,1.08-.75,2.05-1.05,2.88-.26,.74-.42,1.2-.46,1.19-.03,0,.06-.49,.28-1.24,.22-.76,.56-1.79,.98-2.91,.42-1.13,.82-2.13,1.13-2.85,.31-.72,.53-1.16,.56-1.15Z"/></g><g><path class="cls-10" d="M25,148.38s-.54-7.17,4.12-10.21c.16-.11,.38,.01,.37,.21-.06,1.15-.58,4.57-4.49,10.01Z"/><path class="cls-12" d="M28.2,140.3s-.13,.47-.43,1.2c-.33,.82-.73,1.78-1.16,2.84-.43,1.06-.82,2.02-1.15,2.84-.29,.73-.47,1.18-.5,1.17-.03-.01,.08-.49,.33-1.23,.25-.75,.62-1.77,1.08-2.88,.46-1.11,.9-2.1,1.23-2.81,.34-.71,.57-1.14,.6-1.12Z"/></g><g><path class="cls-10" d="M16.85,90.61s-6.37-3.33-6.5-8.89c0-.2,.21-.32,.37-.21,.95,.65,3.57,2.91,6.13,9.09Z"/><path class="cls-12" d="M11.68,83.63s.33,.36,.79,1c.52,.72,1.13,1.56,1.8,2.48,.67,.93,1.28,1.76,1.8,2.48,.47,.63,.76,1.02,.73,1.05-.03,.02-.37-.32-.88-.93-.5-.6-1.17-1.46-1.87-2.44-.7-.97-1.31-1.87-1.73-2.53-.43-.66-.67-1.08-.64-1.1Z"/></g><g><path class="cls-10" d="M23.69,105.34s-6.56-2.93-7.02-8.48c-.02-.19,.19-.33,.36-.23,.99,.6,3.74,2.69,6.67,8.71Z"/><path class="cls-12" d="M18.1,98.69s.35,.34,.85,.95c.56,.68,1.22,1.48,1.94,2.37,.73,.88,1.39,1.68,1.95,2.36,.5,.6,.82,.97,.79,1-.02,.02-.39-.3-.93-.87-.54-.57-1.26-1.39-2.02-2.32-.76-.93-1.42-1.79-1.89-2.42-.46-.63-.73-1.04-.7-1.06Z"/></g><g><path class="cls-10" d="M19.92,121.78s-4.51-5.6-2.39-10.75c.07-.18,.32-.21,.42-.04,.61,.98,2.11,4.1,1.97,10.79Z"/><path class="cls-12" d="M17.97,113.31s.16,.47,.33,1.23c.19,.86,.41,1.88,.65,3,.25,1.12,.47,2.13,.66,2.99,.17,.76,.28,1.24,.25,1.25-.03,.01-.21-.45-.43-1.2-.22-.76-.49-1.81-.74-2.98-.25-1.17-.45-2.24-.57-3.02-.12-.78-.18-1.26-.14-1.27Z"/></g><g><path class="cls-10" d="M24.38,141.12s-6.51-3.04-6.88-8.6c-.01-.19,.2-.33,.36-.22,.98,.61,3.7,2.75,6.52,8.82Z"/><path class="cls-12" d="M18.9,134.37s.34,.35,.84,.96c.55,.69,1.19,1.5,1.9,2.4,.71,.9,1.36,1.71,1.91,2.4,.49,.61,.8,.99,.77,1.01-.03,.02-.38-.31-.92-.89-.53-.58-1.23-1.41-1.98-2.35-.74-.94-1.39-1.81-1.84-2.45-.45-.64-.72-1.05-.69-1.08Z"/></g><g><path class="cls-12" d="M37.35,112.85s0,.05,0,.16c0,.13,0,.28-.01,.46-.02,.43-.04,1.02-.08,1.74-.08,1.53-.2,3.67-.34,6.22h0c-.46,2.62-1.79,5.5-3.57,8.3-1.31,2.06-2.67,3.94-3.85,5.68-1.19,1.74-2.19,3.35-2.89,4.78-.7,1.42-1.11,2.65-1.35,3.5-.11,.43-.2,.76-.25,.99-.05,.23-.09,.35-.1,.35,0,0,0-.12,.04-.36,.03-.23,.1-.57,.2-1.01,.21-.87,.59-2.11,1.28-3.56,.68-1.45,1.68-3.08,2.85-4.83,1.17-1.76,2.53-3.63,3.83-5.69,1.77-2.79,3.09-5.62,3.57-8.18h0c.18-2.54,.33-4.67,.44-6.2,.06-.73,.11-1.31,.14-1.74l.05-.46c.01-.1,.02-.16,.03-.16Z"/><g><path class="cls-10" d="M33.47,129.2s2.76-6.64-.71-10.99c-.12-.15-.36-.11-.42,.08-.31,1.11-.88,4.52,1.13,10.91Z"/><path class="cls-12" d="M32.97,120.53s.12,.48,.22,1.26c.1,.78,.21,1.86,.29,3.06,.09,1.2,.13,2.28,.13,3.07,0,.79-.04,1.27-.08,1.27-.04,0-.07-.49-.11-1.27-.06-.88-.13-1.91-.2-3.06-.08-1.14-.15-2.18-.21-3.06-.05-.78-.07-1.27-.03-1.27Z"/><g class="cls-6"><path d="M33.47,129.2s2.76-6.64-.71-10.99c-.12-.15-.36-.11-.42,.08-.31,1.11-.88,4.52,1.13,10.91Z"/></g></g><g><path class="cls-10" d="M24.93,145.2s2.21-6.84-1.6-10.89c-.13-.14-.37-.08-.41,.11-.22,1.13-.51,4.58,2.01,10.78Z"/><path class="cls-12" d="M23.73,136.6s.16,.46,.32,1.23c.16,.77,.36,1.84,.54,3.02,.18,1.19,.31,2.27,.37,3.05,.06,.78,.06,1.27,.03,1.28-.04,0-.11-.48-.22-1.25-.13-.87-.28-1.9-.45-3.03-.17-1.13-.33-2.16-.46-3.03-.11-.78-.17-1.26-.13-1.27Z"/><g class="cls-6"><path d="M24.93,145.2s2.21-6.84-1.6-10.89c-.13-.14-.37-.08-.41,.11-.22,1.13-.51,4.58,2.01,10.78Z"/></g></g><g><path class="cls-10" d="M36.98,121.09s5.89-4.12,5.29-9.65c-.02-.19-.25-.29-.39-.16-.85,.77-3.17,3.35-4.9,9.81Z"/><g class="cls-6"><path d="M36.98,121.09s5.89-4.12,5.29-9.65c-.02-.19-.25-.29-.39-.16-.85,.77-3.17,3.35-4.9,9.81Z"/></g><path class="cls-12" d="M41.21,113.5s-.15,.47-.49,1.18c-.34,.71-.82,1.68-1.39,2.74-.57,1.06-1.12,1.99-1.54,2.66-.42,.66-.72,1.05-.75,1.03-.03-.02,.2-.44,.58-1.13,.42-.77,.92-1.68,1.47-2.69,.55-1.01,1.04-1.92,1.46-2.7,.38-.69,.63-1.11,.66-1.09Z"/></g><g><path class="cls-10" d="M27.3,138.42s7.1-1.11,9.01-6.33c.07-.18-.1-.37-.29-.31-1.11,.32-4.32,1.61-8.72,6.65Z"/><g class="cls-6"><path d="M27.3,138.42s7.1-1.11,9.01-6.33c.07-.18-.1-.37-.29-.31-1.11,.32-4.32,1.61-8.72,6.65Z"/></g><path class="cls-12" d="M34.44,133.47s-.34,.35-.96,.84c-.61,.49-1.48,1.15-2.46,1.84-.98,.7-1.88,1.3-2.55,1.71-.67,.41-1.11,.63-1.13,.6-.02-.03,.38-.31,1.02-.76,.72-.51,1.57-1.11,2.5-1.77,.93-.66,1.78-1.26,2.5-1.78,.64-.45,1.05-.72,1.07-.69Z"/></g></g></g><polygon class="cls-8" points="18.9 151.49 20.94 164.85 29.07 164.84 31.81 151.49 18.9 151.49"/></g><path class="cls-12" d="M30.62,156.65s-.02,.02-.07,.05c-.05,.03-.12,.08-.21,.12-.19,.1-.5,.21-.91,.27-.41,.06-.93,.05-1.5-.14-.56-.18-1.17-.54-1.61-1.17-.21-.32-.35-.7-.38-1.12-.03-.41,.13-.91,.55-1.15,.42-.24,.96-.15,1.36,.11,.42,.27,.66,.75,.78,1.23,.12,.49,.13,1,.1,1.51-.03,.51-.13,1.04-.33,1.54-.2,.5-.51,.98-.94,1.35-.43,.36-.97,.63-1.57,.65-.59,.03-1.16-.18-1.63-.47-.47-.3-.88-.68-1.21-1.1-.33-.42-.58-.93-.62-1.47-.03-.53,.16-1.08,.58-1.42,.42-.34,1.02-.32,1.44-.09,.43,.22,.76,.63,.83,1.09,.16,.92-.38,1.74-1.03,2.12-.67,.38-1.39,.39-1.96,.28-.58-.11-1.04-.34-1.4-.55-.36-.21-.61-.4-.78-.53-.17-.13-.26-.21-.25-.21,0,0,.1,.06,.28,.18,.18,.12,.44,.3,.8,.49,.36,.19,.81,.4,1.38,.5,.56,.09,1.25,.07,1.86-.3,.6-.35,1.08-1.13,.93-1.94-.07-.4-.35-.76-.74-.95-.38-.2-.88-.21-1.22,.07-.35,.28-.52,.77-.49,1.24,.03,.48,.26,.95,.57,1.34,.32,.4,.71,.76,1.16,1.04,.45,.28,.97,.46,1.5,.44,.53-.02,1.03-.26,1.43-.6,.4-.34,.7-.78,.88-1.26,.19-.48,.29-.98,.32-1.48,.03-.5,.02-.99-.09-1.45-.11-.45-.33-.88-.69-1.11-.35-.24-.82-.31-1.16-.12-.35,.2-.49,.61-.47,.98,.02,.38,.15,.74,.34,1.04,.4,.59,.98,.95,1.52,1.14,.54,.19,1.05,.21,1.45,.17,.81-.09,1.19-.39,1.2-.36Z"/></g></svg>