<?xml version="1.0" encoding="UTF-8"?><svg id="Objects" xmlns="http://www.w3.org/2000/svg" viewBox="0 0 194.39 167.02"><defs><style>.cls-1{opacity:.1;}.cls-2{fill:#007cff;}.cls-3{fill:#f5f5f5;}.cls-4,.cls-5{fill:#fff;}.cls-6{fill:#ececec;}.cls-7{fill:#e67b62;}.cls-8{fill:#7468f8;}.cls-9{fill:#d54c38;}.cls-10{fill:#e1e1e1;}.cls-11{fill:#1a2e35;}.cls-12{fill:#5446eb;}.cls-13{opacity:.2;}.cls-14,.cls-5{opacity:.7;}</style></defs><g><g><path class="cls-6" d="M18.04,38.48s-4.67-.34-4.24,10.13c.43,10.47,1.5,16.05,1.5,16.05,0,0-.14,2.32-1.94,1.87-1.8-.46-5.18-2.72-6.85-1.03-1.73,1.75-1.12,4.44,1.18,7.6,2.3,3.16,7.08,10.28,7.51,10.93,.42,.63,.59,1.82-.68,1.71-1.27-.11-9.88-3.03-11.02,1.14-1.14,4.17,6.71,11.93,7.55,12.79,.84,.87,.89,1.41,.55,1.93-.34,.52-3.14-.73-5.62-1.46-2.48-.73-5.49-1.14-5.94,1.32-.46,2.46,3,9.65,15.95,17.21l6.23,3.11,5.9-3.76c12.13-8.82,14.85-16.32,14.15-18.72-.7-2.4-3.65-1.69-6.04-.72-2.4,.97-5.06,2.5-5.45,2.01-.39-.49-.4-1.03,.35-1.98,.75-.95,7.79-9.46,6.24-13.49-1.55-4.03-9.82-.27-11.08-.03-1.26,.24-1.21-.96-.85-1.63,.36-.68,4.41-8.25,6.38-11.62,1.97-3.38,2.31-6.11,.42-7.68-1.83-1.51-4.97,1.07-6.71,1.71s-2.11-1.66-2.11-1.66c0,0,.51-5.66-.11-16.12-.62-10.46-5.34-9.62-5.34-9.62"/><path class="cls-10" d="M18.41,47.86s.01,.07,.03,.22c.01,.15,.03,.37,.05,.64,.04,.58,.1,1.41,.17,2.47,.14,2.15,.33,5.26,.54,9.1,.43,7.68,.93,18.3,1.44,30.04,.51,11.73,.99,22.36,1.37,30.04,.2,3.83,.35,6.94,.46,9.1,.05,1.07,.09,1.9,.12,2.47l.03,.64c0,.15,0,.22,0,.22,0,0-.01-.07-.03-.22-.01-.15-.03-.37-.05-.64-.04-.58-.1-1.41-.17-2.47-.14-2.15-.33-5.26-.54-9.1-.43-7.68-.93-18.31-1.44-30.04-.51-11.73-.98-22.35-1.37-30.04-.2-3.83-.35-6.94-.46-9.1-.05-1.07-.09-1.9-.12-2.48-.01-.27-.02-.49-.03-.64,0-.15,0-.22,0-.22Z"/><path class="cls-10" d="M11.12,68.86s.15,.1,.39,.32c.24,.22,.58,.54,.99,.95,.82,.81,1.93,1.97,3.12,3.27,1.17,1.28,2.23,2.44,3.05,3.33,.36,.39,.67,.73,.93,1.01,.22,.24,.34,.37,.32,.39-.01,.01-.15-.1-.39-.32-.24-.22-.58-.54-.98-.96-.81-.82-1.9-1.99-3.1-3.29-1.18-1.27-2.24-2.42-3.07-3.31-.37-.39-.68-.73-.93-1-.22-.24-.33-.38-.32-.39Z"/><path class="cls-10" d="M20.53,77.91s2.23-2.43,5.09-5.33c2.86-2.9,5.21-5.21,5.26-5.16,.05,.05-2.23,2.43-5.09,5.33-2.86,2.9-5.21,5.21-5.26,5.16Z"/><path class="cls-10" d="M20.51,95.97s.15-.11,.43-.28c.33-.19,.74-.42,1.22-.68,1.03-.58,2.45-1.38,3.98-2.32,1.53-.94,2.89-1.84,3.87-2.49,.46-.3,.85-.56,1.16-.78,.28-.18,.43-.28,.44-.26s-.13,.13-.39,.34c-.26,.2-.64,.49-1.12,.84-.96,.69-2.31,1.61-3.85,2.56-1.54,.94-2.97,1.73-4.02,2.27-.53,.27-.96,.48-1.26,.62-.3,.14-.47,.21-.48,.19Z"/><path class="cls-10" d="M10.19,89.65s.16,.06,.43,.2c.27,.14,.66,.36,1.13,.63,.95,.54,2.25,1.3,3.68,2.15,1.43,.85,2.72,1.63,3.65,2.21,.46,.29,.84,.52,1.09,.69,.25,.17,.39,.27,.38,.28,0,.01-.16-.06-.43-.2-.27-.14-.66-.36-1.13-.63-.95-.54-2.25-1.3-3.68-2.15-1.43-.85-2.72-1.63-3.64-2.21-.46-.29-.84-.52-1.09-.69-.25-.17-.39-.27-.38-.28Z"/><path class="cls-10" d="M8.14,105.58s.2,.08,.55,.27c.38,.21,.87,.48,1.45,.8,1.22,.68,2.89,1.64,4.74,2.72,1.84,1.07,3.51,2.06,4.7,2.78,.56,.35,1.04,.64,1.41,.87,.33,.21,.51,.33,.5,.35,0,.01-.2-.08-.55-.27-.38-.21-.87-.48-1.45-.8-1.22-.68-2.9-1.64-4.74-2.72-1.84-1.07-3.51-2.06-4.7-2.78-.56-.35-1.04-.64-1.41-.87-.33-.21-.51-.33-.5-.35Z"/><path class="cls-10" d="M21.23,113.08s.19-.14,.54-.36c.4-.24,.9-.55,1.51-.92,1.28-.78,3.04-1.86,4.95-3.11,1.91-1.24,3.62-2.42,4.85-3.27,.59-.41,1.07-.75,1.46-1.01,.35-.24,.54-.36,.55-.35,0,.01-.17,.16-.5,.42-.33,.26-.81,.63-1.41,1.07-1.2,.89-2.9,2.09-4.81,3.33-1.92,1.25-3.69,2.31-5,3.05-.65,.37-1.18,.66-1.55,.86-.37,.2-.58,.3-.59,.28Z"/></g><g><polygon class="cls-10" points="30.59 123.83 13.35 123.83 18.98 166.41 24.96 166.41 30.59 123.83"/><path class="cls-3" d="M14.25,129.06s.02,.06,.09,.15c.07,.09,.21,.21,.42,.3,.41,.18,1.13,.19,1.82-.22,.7-.38,1.3-1.14,2.23-1.47,.93-.35,2.07-.29,3.17,.06,1.11,.34,2.08,.91,2.95,1.43,.88,.52,1.68,.99,2.4,1.29,.72,.31,1.34,.46,1.77,.51,.22,.03,.39,.04,.5,.03,.11,0,.17,0,.17-.01,0-.06-.98-.05-2.36-.71-.7-.32-1.48-.79-2.35-1.33-.87-.53-1.85-1.12-3-1.48-1.13-.36-2.35-.43-3.35-.04-.5,.19-.91,.49-1.26,.78-.35,.29-.67,.57-.99,.76-.63,.41-1.29,.42-1.68,.29-.4-.14-.52-.37-.55-.35Z"/><path class="cls-3" d="M14.88,136.91s.14-.18,.41-.46c.27-.27,.72-.63,1.38-.87,.65-.25,1.48-.4,2.4-.36,.92,.03,1.93,.23,3,.41,1.07,.18,2.13,.26,3.07,.13,.94-.12,1.77-.39,2.42-.69,.65-.3,1.14-.62,1.45-.86,.32-.24,.47-.4,.46-.41-.03-.05-.7,.55-1.99,1.1-.65,.27-1.45,.51-2.37,.61-.92,.11-1.93,.03-3-.15-1.06-.17-2.08-.37-3.04-.39-.95-.02-1.81,.15-2.48,.44-.67,.28-1.13,.68-1.38,.98-.12,.16-.21,.29-.26,.38-.05,.09-.07,.14-.06,.15Z"/><path class="cls-3" d="M28.64,141.1s-.15-.12-.47-.25c-.32-.13-.81-.26-1.43-.31-.62-.05-1.36,0-2.16,.12-.8,.13-1.67,.35-2.57,.54-.9,.19-1.78,.32-2.57,.29-.79-.03-1.49-.2-2.04-.44-1.11-.49-1.5-1.2-1.55-1.15-.01,0,.07,.18,.29,.45,.22,.27,.61,.6,1.17,.88,.56,.28,1.29,.48,2.11,.52,.82,.04,1.72-.08,2.64-.27,.91-.19,1.77-.42,2.56-.56,.79-.14,1.5-.2,2.1-.18,1.21,.04,1.9,.41,1.91,.35Z"/><path class="cls-3" d="M16.4,147.01s.62-.38,1.67-.17c.52,.09,1.1,.36,1.75,.65,.65,.3,1.43,.56,2.27,.63,1.69,.16,3.2-.38,4.12-.96,.47-.28,.8-.58,1.03-.79,.21-.22,.32-.35,.3-.37-.04-.04-.49,.47-1.43,.98-.92,.51-2.38,1-4,.85-1.63-.09-2.88-1.07-4.02-1.19-.55-.08-1.01,0-1.3,.11-.29,.11-.41,.24-.41,.25Z"/><path class="cls-3" d="M17.36,155.18s.58,.03,1.44-.29c.87-.29,1.94-.95,3.19-1.45,.63-.24,1.26-.39,1.83-.38,.57,0,1.09,.14,1.47,.34,.79,.39,1.02,.95,1.06,.92,.01,0-.02-.15-.16-.36-.14-.22-.4-.5-.81-.73-.4-.23-.95-.4-1.56-.42-.62-.02-1.28,.13-1.94,.38-1.3,.52-2.34,1.2-3.16,1.53-.82,.35-1.37,.43-1.36,.47Z"/><path class="cls-3" d="M18.21,158.99s.4,.18,1.09,.35c.69,.17,1.65,.35,2.73,.46,1.08,.11,2.06,.11,2.77,.08,.71-.03,1.14-.1,1.14-.13,0-.09-1.75-.01-3.88-.22-2.13-.2-3.83-.62-3.85-.53Z"/></g></g><g><g><rect class="cls-10" x="137.65" y="0" width="36.48" height="52.87"/><rect class="cls-3" x="135.82" y="0" width="36.48" height="52.87"/><g><rect class="cls-4" x="140.35" y="5.73" width="27.41" height="41.42"/><path class="cls-10" d="M167.77,47.15s0-.07,0-.2v-.59c0-.52-.01-1.28-.02-2.27,0-1.99-.01-4.88-.02-8.53-.01-7.3-.03-17.65-.04-29.83l.09,.09c-8.38,0-17.66,0-27.41,0h0l.1-.1c0,15.63-.01,30.03-.02,41.42l-.08-.08c8.35,.02,15.19,.03,19.95,.04,2.38,0,4.24,.02,5.51,.02,.63,0,1.12,0,1.45,0,.33,0,.5,0,.5,0,0,0-.16,0-.48,0h-1.43c-1.27,.01-3.12,.02-5.5,.03-4.77,0-11.63,.02-20,.04h-.08v-.08c0-11.39-.01-25.79-.02-41.42v-.1h.1c9.75,0,19.03,0,27.41,0h.09v.09c-.02,12.2-.03,22.57-.04,29.89-.01,3.65-.02,6.53-.02,8.51,0,.98,0,1.74-.01,2.25v.58c0,.13-.01,.19-.01,.19Z"/></g><path class="cls-10" d="M172.4,0s-.23,.38-.65,.94c-.42,.57-1.03,1.34-1.71,2.17-.69,.83-1.33,1.57-1.8,2.1-.47,.52-.78,.84-.8,.82-.02-.02,.25-.36,.7-.91,.49-.59,1.09-1.32,1.76-2.13,.66-.81,1.27-1.54,1.75-2.13,.45-.54,.74-.87,.76-.86Z"/><g><path class="cls-4" d="M167.91,47.01c1.36,2.17,2.97,4.18,4.78,5.98"/><path class="cls-10" d="M172.69,52.99s-.34-.26-.83-.76c-.49-.49-1.14-1.2-1.8-2.03-.66-.83-1.21-1.62-1.59-2.21-.37-.59-.58-.97-.56-.98,.02-.02,.27,.34,.67,.9,.4,.56,.97,1.34,1.63,2.16,.66,.82,1.29,1.55,1.75,2.06,.46,.52,.75,.83,.73,.85Z"/></g><g><path class="cls-4" d="M135.82,52.83c1.59-1.97,3.19-3.93,4.78-5.9"/><path class="cls-10" d="M140.59,46.94s-.99,1.38-2.31,3.01c-1.32,1.63-2.42,2.92-2.47,2.89-.04-.03,.99-1.38,2.31-3.01,1.32-1.63,2.42-2.92,2.47-2.89Z"/></g><path class="cls-10" d="M135.82,0s1.08,1.21,2.32,2.77c1.24,1.57,2.21,2.86,2.16,2.9-.04,.03-1.08-1.21-2.32-2.77-1.24-1.56-2.21-2.86-2.16-2.9Z"/></g><g><circle class="cls-10" cx="157.16" cy="27.11" r="2.94"/><path class="cls-10" d="M161.68,16.76c0,1.21-.98,2.2-2.2,2.2s-2.2-.98-2.2-2.2,.98-2.2,2.2-2.2,2.2,.98,2.2,2.2Z"/><path class="cls-10" d="M153.12,20.14c0,.88-.71,1.59-1.59,1.59s-1.59-.71-1.59-1.59,.71-1.59,1.59-1.59,1.59,.71,1.59,1.59Z"/><path class="cls-10" d="M161.89,36.81c-.39,.39-1.01,.39-1.4,0-.39-.39-.39-1.01,0-1.4,.39-.39,1.01-.39,1.4,0s.39,1.01,0,1.4Z"/><path class="cls-10" d="M148.5,28.98c0,.88-.71,1.59-1.59,1.59s-1.59-.71-1.59-1.59,.71-1.59,1.59-1.59,1.59,.71,1.59,1.59Z"/><path class="cls-10" d="M157.16,27.11c.1-.05,1.08,1.85,2.19,4.23,1.11,2.38,1.94,4.35,1.84,4.39-.1,.05-1.08-1.85-2.19-4.23-1.11-2.38-1.93-4.35-1.84-4.39Z"/><path class="cls-10" d="M156.92,27.41c.02,.11-2.13,.51-4.79,.91-2.66,.39-4.83,.63-4.85,.52-.02-.11,2.13-.51,4.79-.91,2.66-.39,4.83-.63,4.85-.52Z"/><path class="cls-10" d="M156.72,26c-.07,.08-1.43-1.03-2.8-2.71-1.38-1.67-2.2-3.22-2.11-3.27,.1-.06,1.06,1.38,2.42,3.02,1.35,1.65,2.58,2.87,2.5,2.96Z"/><path class="cls-10" d="M159.48,16.76h-.01s.01,0,.02,0h0v.08l-.06,.28-.23,1.04c-.2,.87-.49,2.07-.83,3.39-.68,2.64-1.25,4.78-1.35,4.76-.11-.02,.28-2.21,.96-4.86,.34-1.32,.67-2.51,.94-3.37,.13-.43,.25-.77,.35-1.01,.05-.12,.09-.21,.12-.27,.02-.03,.03-.05,.05-.07h.01s.04,0,.03,0c0,0,0,.01,0,.01Z"/></g></g><g><path class="cls-8" d="M149.93,165.94l-123.15,1.08-3.93-37.13c28.86-12.95,72.26-47.39,72.1-70.51-.06-8.21-5.74-16.81-13.73-16.76-9.72,.07-17.64,11.57-18.64,23.03l-39.58-6.63C24.49,26.17,48.73,1.15,83.08,.91c33.92-.24,55.48,23.81,55.71,57.3,.15,22.04-11.78,45.46-35.37,69.82l41.69-.94,4.81,38.86Z"/><g><path class="cls-12" d="M98.85,54.67c-.06-8.21-5.74-16.81-13.73-16.76-5.51,.04-10.43,3.75-13.85,9.04,2.88-2.66,6.28-4.31,9.94-4.33,7.99-.06,13.67,8.55,13.73,16.76,.05,7.03-3.95,15.12-10.33,23.33,8.62-9.79,14.29-19.65,14.24-28.03Z"/><path class="cls-12" d="M30.69,162.31l-3.65-34.42c-1.42,.7-2.83,1.38-4.19,1.99l3.93,37.13,123.15-1.08-.58-4.66-118.66,1.04Z"/><path class="cls-12" d="M63.52,60.45l-36.62-6.14c.6-13.2,4.88-25.14,12.01-34.71-9.47,10.23-15.21,23.95-15.92,39.41l39.58,6.63c.15-1.75,.48-3.49,.94-5.2Z"/></g></g><g><g><path class="cls-2" d="M134.4,78.78c4.46,.88,13.3,4.68,13.35,4.47,0,0,7.44-1.76,10.49-5.13,0,0,2.92-.36,4.45-.66-1.11,2.61-3.27,5.78-5.67,7.29-3.05,1.92-3.88,2.5-6.91,3.65-3.78,1.44-9.56-.09-13.3-1.62-1.38-.57-2.79-1.28-3.6-2.54-.81-1.25-.05-4.62,1.19-5.45Z"/><path class="cls-5" d="M134.4,78.78c4.46,.88,13.3,4.68,13.35,4.47,0,0,7.44-1.76,10.49-5.13,0,0,2.92-.36,4.45-.66-1.11,2.61-3.27,5.78-5.67,7.29-3.05,1.92-3.88,2.5-6.91,3.65-3.78,1.44-9.56-.09-13.3-1.62-1.38-.57-2.79-1.28-3.6-2.54-.81-1.25-.05-4.62,1.19-5.45Z"/><g><path class="cls-2" d="M146.24,78.56h11.11c1.56-5.63-1.56-11.25,0-16.88h-11.11c-1.56,5.63,1.56,11.25,0,16.88Z"/><g class="cls-14"><path class="cls-4" d="M146.24,78.56h11.11c1.56-5.63-1.56-11.25,0-16.88h-11.11c-1.56,5.63,1.56,11.25,0,16.88Z"/></g></g><path class="cls-7" d="M155.62,75.56l1.79,.86c.2,.47,.56,1.17,1.07,1.44,.56,.29,1.09,.54,1.58,.67,.8,.2,1.53,.1,2.25-.62,.25-.25,.31-.62,.17-.94l-1.71-3.19c-.2-.36-.55-.62-.96-.68l-2.81-.44c-.35-.05-.7,.09-.92,.37l-.82,1.08c-.37,.49-.2,1.19,.35,1.45Z"/></g><g><polygon class="cls-2" points="118.21 105.17 115.58 114.77 130.03 117.87 138.76 113.25 136.32 104.98 118.21 105.17"/><polygon class="cls-1" points="118.21 105.17 115.58 114.77 130.03 117.87 138.76 113.25 136.32 104.98 118.21 105.17"/><g><g id="freepik--Character--inject-5"><path class="cls-2" d="M137.73,84.3c.33,3.12,.21,4.87,.03,7.4-.14,3.31-.86,6.79-1.76,12.15-1.81,1.06-10.98,.62-16.84-.14,.36-4.69-.23-10.06-3.41-20.62-.74-2.45,.91-4.8,3.53-5.05,.7-.07,1.45-.12,2.21-.16,2.68-.18,5.36-.18,8.04,0,.86,.08,1.78,.18,2.65,.29,3.12,.41,4.96,2.81,5.54,6.12Z"/><path class="cls-2" d="M136.32,104.98c-5.91,.65-11.88,.64-17.79-.03-.23-.05-.38-.28-.32-.51,0-.02,0-.04,.02-.05,.15-.34,.29-.68,.43-1.02,.06-.15,.22-.25,.38-.24,5.68,.63,11.42,.63,17.1,0,.21-.03,.4,.12,.43,.33v.03c.04,.36,.08,.71,.11,1.06,.03,.22-.13,.42-.35,.44h0Z"/><g><path class="cls-2" d="M129.76,77.75c4.37,5.61,4.69,19.48,3.57,46.72-.1,2.37,2.18,2.2,4.41,1.74,3.32-.68,4.64-.44,4.64-.44,0,0-5.29-13.91-4.44-26.38,.86-12.47,.26-16.88-1.76-19.19-2.02-2.31-6.42-2.45-6.42-2.45Z"/><path class="cls-5" d="M129.76,77.75c4.37,5.61,4.69,19.48,3.58,46.72-.1,2.37,2.06,2.12,4.41,1.74,3.05-.49,4.63-.44,4.63-.44,0,0-5.29-13.91-4.44-26.38,.86-12.47,.26-16.88-1.76-19.19-2.02-2.31-6.42-2.45-6.42-2.45Z"/></g><path class="cls-7" d="M122.07,68.84c.7,2.57,1.56,7.33-.12,9.06,0,0,2.22,1.78,6.93,3.5,1.41-.36,1.11-3.5,1.11-3.5-2.94-.69-3.03-2.83-2.67-4.84l-5.24-4.22Z"/><path class="cls-13" d="M124.21,70.56l3.11,2.49c-.09,.47-.14,.95-.14,1.43-1.11-.16-2.72-1.37-2.92-2.52-.1-.46-.11-.93-.04-1.4Z"/><path class="cls-11" d="M126.89,59.37c3.04,4.07,4.4,9.37,3.68,14.41,1.48-2.8,2.82-1.27,2.91-4.43,.05-1.59-.78-8.04-1.49-9.46s-2.15-2.58-3.74-2.51c-.57,.02-1.15,.21-1.54,.63-.39,.41-.17,.92,.17,1.37Z"/><path class="cls-7" d="M119.85,63.64c.78,4.18,1.03,5.96,3.43,7.96,3.59,3,8.52,1.42,9-2.84,.43-3.84-.93-10.03-5.24-11.41-2.83-1.03-5.95,.42-6.99,3.25-.35,.97-.43,2.02-.21,3.03Z"/><path class="cls-11" d="M127.11,64.6c.1,.34,.36,.58,.58,.53,.22-.05,.32-.37,.22-.71-.1-.34-.37-.58-.58-.54-.22,.05-.32,.37-.22,.71Z"/><path class="cls-11" d="M130.66,63.74c.1,.34,.36,.58,.58,.53s.32-.37,.22-.71c-.1-.34-.36-.58-.58-.53-.22,.05-.32,.36-.22,.71Z"/><path class="cls-11" d="M130.79,63.07l.75-.42s-.23,.74-.75,.42Z"/><path class="cls-9" d="M129.67,64.56c.53,.72,1.15,1.36,1.85,1.92-.32,.52-1.14,.49-1.14,.49l-.71-2.41Z"/><path class="cls-11" d="M128.79,68.67c.2,0,.39-.04,.58-.08,.05-.01,.09-.06,.07-.12h0c-.02-.06-.07-.1-.13-.08-.88,.19-1.8-.02-2.5-.58-.05-.03-.11-.03-.14,.02h0s-.03,.11,.02,.14h0c.59,.48,1.34,.73,2.1,.7Z"/><g><path class="cls-11" d="M130.05,57.9c-1.31-1.8-4.87-2.29-6.95-1.79-7.39,1.76-4,7.9-8.27,11.35,1.24,2.23,2.44,1.76,3.89,2.76,.85,.59,3.09,2.42,4.11,2.34-.05-2.09-.97-4.49-.54-6.54,.42-2.04,1.25-4.03,2.61-5.54,1.36-1.51,3.2-2.68,5.16-2.59Z"/><path class="cls-13" d="M130.05,57.9c-1.31-1.8-4.87-2.29-6.95-1.79-7.39,1.76-4,7.9-8.27,11.35,1.24,2.23,2.44,1.76,3.89,2.76,.85,.59,3.09,2.42,4.11,2.34-.05-2.09-.97-4.49-.54-6.54,.42-2.04,1.25-4.03,2.61-5.54,1.36-1.51,3.2-2.68,5.16-2.59Z"/></g><g><path class="cls-11" d="M130.05,57.9c-1.31-1.8-4.87-2.29-6.95-1.79-7.39,1.76-4,7.9-8.27,11.35,1.24,2.23,2.44,1.76,3.89,2.76,.85,.59,3.09,2.42,4.11,2.34-.05-2.09-.97-4.49-.54-6.54,.42-2.04,1.25-4.03,2.61-5.54,1.36-1.51,3.2-2.68,5.16-2.59Z"/><path class="cls-1" d="M130.05,57.9c-1.31-1.8-4.87-2.29-6.95-1.79-7.39,1.76-4,7.9-8.27,11.35,1.24,2.23,2.44,1.76,3.89,2.76,.85,.59,3.09,2.42,4.11,2.34-.05-2.09-.97-4.49-.54-6.54,.42-2.04,1.25-4.03,2.61-5.54,1.36-1.51,3.2-2.68,5.16-2.59Z"/></g><path class="cls-7" d="M120.1,67.87c.43,.7,1.14,1.18,1.95,1.33,.99,.14,1.29-1.02,.82-2.09-.43-.96-1.43-2.19-2.34-1.83-.91,.36-1.02,1.68-.44,2.59Z"/><path class="cls-11" d="M125.52,63.23c.05-.02,.09-.06,.11-.11,.17-.48,.58-.85,1.08-.97,.1-.01,.18-.11,.16-.21v-.02c-.03-.11-.14-.19-.26-.17-.64,.14-1.16,.6-1.38,1.21-.04,.11,.02,.22,.13,.26,.05,.02,.11,.02,.16,0Z"/><path class="cls-11" d="M131.45,61.72c.11,0,.19-.09,.19-.2,0-.06-.03-.12-.08-.15-.5-.46-1.19-.65-1.86-.53-.1,.03-.16,.13-.14,.24h0c.04,.12,.15,.19,.26,.16,.53-.09,1.07,.07,1.47,.43,.04,.04,.1,.05,.16,.05Z"/><path class="cls-11" d="M127.24,63.93l.75-.42s-.23,.73-.75,.42Z"/></g><path class="cls-11" d="M129.41,57.72c.3,.36,.59,.74,.75,1.18,.16,.44,.17,.96-.07,1.36-.21,.35-.59,.57-.96,.74-.38,.17-.78,.29-1.19,.37,.45-.4,.62-.93,.47-1.51-.02,.49-.46,1.04-.88,1.29-.42,.25-.89,.38-1.33,.6-1.37,.69-3.92,4.29-2.03,11.78-1.67-.62-4.01-6.49-3.62-8.23,.39-1.74,.45-6.21,4.91-7.77,1.19-.42,2.74-.13,3.96,.21Z"/></g><g><polygon class="cls-7" points="151.01 161.77 155.02 162.16 157.4 150.84 152.67 150.3 151.01 161.77"/><path class="cls-11" d="M156.68,161.22c-.37-.38-.88-.6-1.41-.63l-4.31-.3c-.2-.02-.38,.11-.42,.31l-.83,4c-.1,.46,.19,.91,.65,1.01h.03c1.63,.43,2.65,.09,5.13,.26,1.53,.11,4.79,.72,6.88,.37,2.09-.34,1.83-2.42,.93-2.46-3.19-.11-5.82-1.69-6.65-2.55Z"/><g class="cls-13"><polygon points="157.4 150.85 156.02 157.43 151.76 156.54 152.66 150.3 157.4 150.85"/></g><path class="cls-2" d="M132.23,127.39c.16,0,.32,0,.49-.01,.27,0,.55-.02,.82-.06l21.5-1.15c-3.47,3.18-4.04,28.69-4.04,28.69l1.03,.22,4.66,1h0l.86,.18s1.95-8.36,4.21-17.94c1.14-4.85,2.62-9.87,3.25-14.69,.18-1.3,.29-2.6,.31-3.86,0-.39,0-.79,0-1.18,0-.04,0-.08,0-.12,0-.17-.02-.33-.04-.49-.11-.8-.44-1.5-.94-2.11-.05-.06-.1-.12-.16-.18-.05-.06-.11-.12-.17-.17-.11-.12-.23-.23-.36-.33-.13-.11-.26-.21-.4-.31-.12-.08-.24-.17-.36-.25-.15-.09-.3-.18-.46-.27-.08-.04-.16-.09-.24-.13-.25-.13-.5-.25-.76-.36-.08-.03-.15-.06-.23-.1-.1-.04-.21-.08-.31-.12-.09-.04-.19-.07-.28-.1-.29-.1-.58-.2-.88-.29-.05-.01-.1-.03-.15-.04-.01,0-.03,0-.04,0-8.15-2.31-22.03-.53-22.03-.53,0,0-3.66-2.71-7.56-3.23-.18,.02-.36,.04-.55,.06-.56,.06-1.14,.12-1.73,.19-.02,0-.05,0-.07,0-5.7,10.02-2.16,17.61,4.65,17.68Z"/><g class="cls-1"><path d="M132.23,127.39c.16,0,.32,0,.49-.01,.27,0,.55-.02,.82-.06l21.5-1.15c-3.47,3.18-4.04,28.69-4.04,28.69l1.03,.22,4.66,1h0l.86,.18s1.95-8.36,4.21-17.94c1.14-4.85,2.62-9.87,3.25-14.69,.18-1.3,.29-2.6,.31-3.86,0-.39,0-.79,0-1.18,0-.04,0-.08,0-.12,0-.17-.02-.33-.04-.49-.11-.8-.44-1.5-.94-2.11-.05-.06-.1-.12-.16-.18-.05-.06-.11-.12-.17-.17-.11-.12-.23-.23-.36-.33-.13-.11-.26-.21-.4-.31-.12-.08-.24-.17-.36-.25-.15-.09-.3-.18-.46-.27-.08-.04-.16-.09-.24-.13-.25-.13-.5-.25-.76-.36-.08-.03-.15-.06-.23-.1-.1-.04-.21-.08-.31-.12-.09-.04-.19-.07-.28-.1-.29-.1-.58-.2-.88-.29-.05-.01-.1-.03-.15-.04-.01,0-.03,0-.04,0-8.15-2.31-22.03-.53-22.03-.53,0,0-3.66-2.71-7.56-3.23-.18,.02-.36,.04-.55,.06-.56,.06-1.14,.12-1.73,.19-.02,0-.05,0-.07,0-5.7,10.02-2.16,17.61,4.65,17.68Z"/></g><polygon class="cls-7" points="177.6 142.56 178.75 144.32 181.31 148.25 185.59 148.7 182.34 141.87 180.14 137.23 177.6 142.56"/><path class="cls-11" d="M184.51,145.76l-3.55,2.21c-.17,.09-.25,.31-.17,.49l1.74,4.06c.21,.41,.71,.57,1.11,.36h.02c1.65-1.02,2.4-1.59,4.5-2.82,1.29-.76,3.43-2,5.21-3.04,1.78-1.04,.82-2.85-.02-2.57-3.77,1.25-6.28,1.42-7.97,1.14-.3-.05-.61,0-.88,.16Z"/><g class="cls-13"><polygon points="177.6 142.56 178.74 144.32 178.75 144.32 182.34 141.87 180.14 137.23 177.6 142.56"/></g><path class="cls-2" d="M130.85,127.78c.43-.05,.89-.14,1.38-.27,.16-.04,.32-.08,.49-.14,3.95-1.14,9.63-4.25,14.92-7.31,4.87-2.82,9.39-5.59,11.89-6.75,.01,0,.03,0,.04,0,.05,.01,.1,.03,.15,.04,.3,.08,.6,.18,.88,.29,.09,.03,.19,.06,.28,.1,.11,.04,.21,.08,.31,.12,.08,.03,.15,.07,.23,.1,.27,.11,.52,.24,.76,.36,.08,.04,.16,.08,.24,.13,.16,.09,.31,.18,.46,.27,.13,.08,.25,.17,.36,.25,.14,.1,.27,.21,.4,.31,.13,.11,.25,.22,.36,.33,.06,.05,.11,.11,.17,.17,.05,.06,.1,.12,.16,.18,.5,.61,.83,1.31,.94,2.11,.02,.16,.03,.32,.04,.49,.01,.39,.01,.79,0,1.18-.02,1.27-.12,2.58-.29,3.89,0,.03,0,.06-.01,.1,5.87,10.59,11.98,20.19,11.98,20.19l1.04-.71,3.74-2.57,.65-.45s-6.52-15.27-11-28.88c-1.69-5.13-6.49-8.6-11.89-8.55-11.07,.1-25.6,6.22-25.6,6.22,0,0-1.7,.18-3.99,.42-.18,.02-.36,.04-.55,.06-.56,.06-1.14,.12-1.73,.19-.02,0-.05,0-.07,0-.95,.1-1.98,.18-3,.25-2.3,.16-4.24,1.77-4.84,3.99-2.94,10.77,4.13,14.69,11.11,13.83Z"/><path class="cls-2" d="M130.85,127.78c.43-.05,.89-.14,1.38-.27,.16-.04,.32-.08,.49-.14,3.95-1.14,9.63-4.25,14.92-7.31,4.87-2.82,9.39-5.59,11.89-6.75,.01,0,.03,0,.04,0,.05,.01,.1,.03,.15,.04,.3,.08,.6,.18,.88,.29,.09,.03,.19,.06,.28,.1,.11,.04,.21,.08,.31,.12,.08,.03,.15,.07,.23,.1,.27,.11,.52,.24,.76,.36,.08,.04,.16,.08,.24,.13,.16,.09,.31,.18,.46,.27,.13,.08,.25,.17,.36,.25,.14,.1,.27,.21,.4,.31,.13,.11,.25,.22,.36,.33,.06,.05,.11,.11,.17,.17,.05,.06,.1,.12,.16,.18,.5,.61,.83,1.31,.94,2.11,.02,.16,.03,.32,.04,.49,.01,.39,.01,.79,0,1.18-.02,1.27-.12,2.58-.29,3.89,0,.03,0,.06-.01,.1,5.87,10.59,11.98,20.19,11.98,20.19l1.04-.71,3.74-2.57,.65-.45s-6.52-15.27-11-28.88c-1.69-5.13-6.49-8.6-11.89-8.55-11.07,.1-25.6,6.22-25.6,6.22,0,0-1.7,.18-3.99,.42-.18,.02-.36,.04-.55,.06-.56,.06-1.14,.12-1.73,.19-.02,0-.05,0-.07,0-.95,.1-1.98,.18-3,.25-2.3,.16-4.24,1.77-4.84,3.99-2.94,10.77,4.13,14.69,11.11,13.83Z"/><path class="cls-2" d="M159.58,113.2h0c.05,.02,.1,.03,.15,.05-.05-.02-.1-.03-.15-.05Z"/></g></g><g><path class="cls-2" d="M121.76,77.49s3.04,2.7,3.95,9.22c1.45,10.52,.69,30.79,.15,42.37-.08,1.7-1.79,2.83-3.39,2.23-3.61-1.35-9.52-.29-12.17-2.58-.19-3.49,5.88-21.31,5.29-30.53-.59-9.22-1.74-17.26-.54-19,1.19-1.74,6.72-1.71,6.72-1.71Z"/><path class="cls-5" d="M121.76,77.49s3.04,2.7,3.95,9.22c1.45,10.52,.61,30.79,.07,42.37-.08,1.7-1.79,2.83-3.39,2.23-3.61-1.35-9.44-.29-12.09-2.58-.19-3.49,5.88-21.31,5.29-30.53-.59-9.22-1.74-17.26-.54-19,1.19-1.74,6.72-1.71,6.72-1.71Z"/></g><g><path class="cls-11" d="M121.89,91.33c.09,0,.15-.08,.15-.17,0-.06-.04-.1-.08-.13l-.65-.32c-1.24-.6-1.99-1.9-1.86-3.28l.53-6.32c.1-1.16,1.11-2.02,2.27-1.93,.79,.06,1.48,.57,1.78,1.3l2.41,5.86c.53,1.27,.22,2.74-.78,3.69l-.53,.5c-.06,.06-.06,.16,0,.22,.06,.06,.16,.06,.22,0l.53-.5c1.09-1.04,1.43-2.64,.84-4.03l-2.43-5.85c-.51-1.23-1.93-1.82-3.16-1.31-.83,.35-1.4,1.13-1.48,2.03l-.53,6.32c-.13,1.51,.69,2.93,2.05,3.58l.65,.32s.05,.02,.08,.02Z"/><path class="cls-11" d="M119.71,82.5c.08,0,.14-.06,.15-.14,.16-1.05,1.01-1.85,2.06-1.96,.87-.13,2.05,.11,2.56,1.24,.03,.08,.12,.12,.2,.09,.08-.03,.12-.12,.09-.2v-.02c-.76-1.36-2.47-1.85-3.82-1.1-.73,.4-1.24,1.1-1.4,1.91,0,.08,.05,.16,.13,.17h.02Z"/><path class="cls-11" d="M121.73,79.21h0c.08,0,.15-.08,.14-.16h0c-.07-.77,0-2.16,.71-2.54,.08-.04,.1-.14,.06-.21-.04-.08-.14-.1-.21-.06h0c-1.03,.56-.88,2.6-.86,2.83,0,.08,.07,.14,.15,.14Z"/><path class="cls-11" d="M124.88,90.71c.05,.29,.24,.5,.43,.47,.19-.03,.31-.29,.26-.57-.05-.29-.23-.5-.42-.47-.19,.03-.31,.29-.27,.57Z"/><path class="cls-11" d="M121.54,91.23c.04,.29,.24,.5,.43,.47,.19-.03,.31-.29,.26-.58-.05-.29-.24-.5-.43-.47s-.31,.29-.26,.58Z"/></g><g><path class="cls-11" d="M129.97,85.17c.16,.65,.64,1.09,1.05,.99,.41-.11,.65-.7,.49-1.37-.16-.67-.64-1.09-1.05-.99-.41,.11-.64,.72-.49,1.37Z"/><path class="cls-11" d="M131.3,84.95h.03c.09,0,.15-.08,.15-.16-.16-2.62-1.72-6.95-3.42-8.37-.06-.06-.16-.07-.22-.01-.06,.06-.07,.16-.01,.22,.01,.01,.02,.02,.04,.03,1.65,1.38,3.16,5.57,3.31,8.14,0,.08,.06,.14,.13,.15Z"/><path class="cls-4" d="M129.51,85.24c.11,.56,.52,.95,.92,.87,.41-.07,.65-.59,.55-1.15-.1-.56-.52-.95-.92-.87-.41,.07-.66,.59-.55,1.15Z"/><path class="cls-11" d="M129.48,85.29c.15,.69,.52,1.19,.84,1.13,.31-.07,.45-.68,.3-1.37-.15-.69-.52-1.19-.84-1.13-.31,.07-.45,.68-.3,1.37Z"/></g><g><path class="cls-11" d="M135.79,100.24l9.75,.18c.37,0,.71-.29,.76-.66l1.85-14.93c.05-.37-.22-.68-.59-.68l-9.75-.18c-.37,0-.71,.29-.76,.66l-1.85,14.93c-.05,.37,.22,.68,.59,.68Z"/><path class="cls-11" d="M141.37,85.22l2.33,.04c.46,0,.89-.36,.95-.82l.17-1.38-4.02-.07-.17,1.38c-.06,.46,.27,.85,.74,.86Z"/><path class="cls-5" d="M141.37,85.22l2.33,.04c.46,0,.89-.36,.95-.82l.17-1.38-4.02-.07-.17,1.38c-.06,.46,.27,.85,.74,.86Z"/><path class="cls-4" d="M137.36,84.01h.46c-.37,0-.71,.3-.76,.67l-1.85,14.93c-.05,.37,.22,.68,.59,.68h-.46c-.37-.02-.64-.32-.59-.69l1.85-14.93c.05-.37,.38-.67,.76-.66Z"/></g><path class="cls-13" d="M118.4,81.39c-.15,.32,3.01,12.92,3.01,12.92l-2.41,1.06-.61-13.98Z"/><g><path class="cls-2" d="M113.21,89.52c.55,4.95,1.06,6.88,1.41,7.41,1.82,6.7,7.59,3.33,8.42,3.05,1.44-.47,2.93-1.45,4.3-2.08,2.67-1.21,5.2-2.17,7.7-3.71l-1.28-2.77s-9.6,2.09-10.86,2.35c-.55,.12-3.28,.57-3.21-.89-.28-.5-.53-8.97-1.32-12.34-.09-.38-.26-.73-.49-1.05l-.08-.11c-.52-.71-.87-.7-1.83-.67-2.09,.08-3.07,1.7-3.3,3.78h0c-.21,1.92,.32,5.1,.53,7.02Z"/><g class="cls-14"><path class="cls-4" d="M113.21,89.52c.55,4.95,1.06,6.88,1.41,7.41,1.82,6.7,7.59,3.33,8.42,3.05,1.44-.47,2.93-1.45,4.3-2.08,2.67-1.21,5.2-2.17,7.7-3.71l-1.28-2.77s-9.6,2.09-10.86,2.35c-.55,.12-3.28,.57-3.21-.89-.28-.5-.53-8.97-1.32-12.34-.09-.38-.26-.73-.49-1.05l-.08-.11c-.52-.71-.87-.7-1.83-.67-2.09,.08-3.07,1.7-3.3,3.78h0c-.21,1.92,.32,5.1,.53,7.02Z"/></g><g><path class="cls-7" d="M133.64,91.76h0c-.32,1.42,.64,2.81,2.08,3.04,1.17,.18,2.31,.09,2.31,.09l.18-4.75-3.63,.71c-.46,.09-.83,.45-.93,.91Z"/><path class="cls-7" d="M138.21,90.14l-.19,4.76,1.76,.11c1.07,.06,2.03-.65,2.27-1.69l.03-.11c.29-1.22-.5-2.44-1.74-2.67l-2.13-.4Z"/></g></g></g></svg>